<?xml version="1.0" encoding="utf-8"?>
<!-- Generator: Adobe Illustrator 25.0.0, SVG Export Plug-In . SVG Version: 6.00 Build 0)  -->
<svg version="1.1" id="Capa_1" xmlns="http://www.w3.org/2000/svg" xmlns:xlink="http://www.w3.org/1999/xlink" x="0px" y="0px"
	 viewBox="0 0 100 100" style="enable-background:new 0 0 100 100;" xml:space="preserve">
<style type="text/css">
	.st0{fill:#FFFFFF;}
</style>
<g>
	<path class="st0" d="M75.4,100c-1.3-0.3-2.7-0.5-4-0.9c-8.1-2.5-13.2-7.9-15.5-16.1c0-0.2-0.1-0.3-0.1-0.5c0-0.1-0.1-0.1-0.2-0.2
		c-3.5,2.1-7.1,2.6-11,1.2c-3-1.1-5.3-3.1-6.8-5.9c-3-5.7-1.2-12.7,4.2-16.3c5.5-3.6,12.9-2.4,17.2,3.4c1.2-1.2,1.7-2.6,1.4-4.3
		c-0.7-3.2-0.6-6.3,0.5-9.3c0.2-0.7,0.1-0.9-0.5-1.3c-9.6-5.2-21.5-3.4-29.3,4.5C25.7,60,23.4,66.6,24,74.3c1,10.8,9.5,20.1,20.2,22
		c4.2,0.8,8.4,0.5,12.5-0.9c0.4-0.1,1-0.3,1.4-0.1c0.4,0.2,0.8,0.8,1,1.3c0.2,0.7-0.3,1.3-1,1.5c-2.2,0.5-4.5,1.3-6.7,1.5
		c-8.3,0.8-15.6-1.8-21.7-7.4c0,0-0.1-0.1-0.3-0.1c-0.9,1.5-1.7,2.9-2.6,4.4c-0.5,0.8-0.9,1.6-1.4,2.4c-0.6,0.9-1.4,1.1-2.1,0.6
		c-0.7-0.4-0.9-1.3-0.4-2.1c1.3-2.3,2.7-4.7,4.1-7c0.3-0.5,0.3-0.8-0.1-1.3c-9.1-11.6-7.6-28,3.4-37.9c0.3-0.2,0.6-0.6,0.6-0.9
		c0-3.5,0-7,0-10.6c-0.5,0-0.9,0-1.4-0.1c-0.8-0.1-1.3-0.5-1.4-1.4c0-0.8,0.5-1.4,1.3-1.6c0.3,0,0.6,0,0.9,0c11.9,0,23.8,0,35.6,0
		c0.3,0,0.6,0,0.9,0c0.8,0.1,1.4,0.8,1.3,1.6c-0.1,0.8-0.5,1.3-1.4,1.4c-0.5,0-1,0-1.5,0.1c0,1.5,0,3,0,4.5c0.8-0.6,1.5-1.3,2.3-1.8
		c1.4-0.8,2.9-1.5,4.3-2.2c0.5-0.2,0.8-0.4,0.8-1c0-6.9,0-13.8,0-20.7c0-0.4-0.1-0.9-0.4-1.3c-2-2.8-2.7-5.8-2.4-9.2
		c0.2-1.4,0-2.8,0-4.2C70,1.5,71.5,0,73.7,0c2.6,0,5.2,0,7.8,0c2.2,0,3.7,1.5,3.8,3.6c0.1,2.9,0,5.7,0,8.6c0,0.5-0.2,1.1-0.5,1.5
		c-1.9,2.6-2.4,5.4-2.2,8.6c0.2,5.5,0.1,11,0,16.5c0,0.7,0.2,1,0.9,1.2c8.4,3,13.1,11.4,11.4,20.2c-0.3,1.4-0.1,2.7,0.8,3.9
		c2.4,3.2,3.8,6.7,4.3,10.6c0,0.1,0.1,0.2,0.2,0.3c0,1.6,0,3.3,0,4.9c-0.1,0.1-0.2,0.3-0.2,0.4c-1.6,9.4-6.9,15.6-15.9,18.6
		c-1.3,0.4-2.7,0.6-4,0.9C78.4,100,76.9,100,75.4,100z M72.7,43.1c-0.2,0-0.3,0-0.4,0.1c-6,2-10.4,9.3-9.1,15.6
		c0.6,3,0.1,5.6-1.7,8.2c-3,4.3-4,9.2-2.9,14.4c1.6,7.6,6.1,12.7,13.5,14.9c7.3,2.2,13.9,0.4,19.3-4.9c6.7-6.6,7.6-17.2,2.1-24.9
		c-1.5-2-2.1-4.2-1.6-6.7C92.7,55.9,92,52.3,90,49c-1.7-2.8-4.2-4.8-7.4-6c0,0.2-0.1,0.3-0.1,0.4c0,6.1,0,12.1,0,18.2
		c0,0.3,0.3,0.8,0.6,1c1.9,1.7,3,3.8,3,6.3c0,3.5-1.5,6.1-4.5,7.8c-0.8,0.5-1.6,0.2-2-0.5c-0.4-0.7-0.2-1.5,0.5-2
		c0.2-0.2,0.4-0.3,0.7-0.4c1.8-1.3,2.7-3.6,2.3-5.6c-0.6-2.6-2.6-4.4-5.1-4.5c-2.7-0.2-4.9,1.3-5.8,3.8c-0.8,2.5,0.1,5.1,2.4,6.6
		c0.1,0.1,0.2,0.1,0.2,0.2c0.8,0.6,1.1,1.3,0.6,2.1c-0.4,0.8-1.3,0.9-2.2,0.4c-5.1-2.8-5.8-10-1.3-13.9c0.5-0.4,0.7-0.9,0.6-1.5
		c0-5.7,0-11.5,0-17.2C72.7,43.7,72.7,43.4,72.7,43.1z M48.4,62.4c-6,0.4-10,5.4-8.9,11.3c0.6,3.5,2.7,5.9,6.1,7.1
		c3.3,1.2,6.5,0.6,9.2-1.6c0.3-0.2,0.5-0.7,0.5-1.1c-0.1-3.4,0.6-6.6,1.9-9.8c0.1-0.3,0.1-0.8,0-1.1C55.6,64.3,51.9,62.2,48.4,62.4z
		 M72.9,7.8c0,0.9,0,1.9,0,2.8c-0.1,1,0.3,1.8,0.6,2.7c0.8,2.3,2.3,2.9,4.6,2.7c1.5-0.1,2.5-0.4,3-1.8c0.3-0.8,1-1.6,1.1-2.5
		c0.1-2.6,0-5.2,0.1-7.8c0-0.7-0.3-1-1-1c-2.4,0-4.9,0-7.3,0c-0.7,0-1.1,0.3-1.1,1.1C72.9,5.3,72.9,6.5,72.9,7.8z M40.8,39.6
		c-2.4,0-4.6,0-6.8,0c0,2.9,0,5.8,0,8.5c2.2-0.9,4.3-1.8,6.4-2.8c0.2-0.1,0.4-0.3,0.4-0.4C40.8,43.1,40.8,41.4,40.8,39.6z
		 M55.1,39.6c0,1.5,0,3,0,4.5c0,0.6,0.2,0.8,0.8,1c1.3,0.4,2.5,0.8,3.8,1.3c0.9,0.3,1.7,0.8,2.6,1.2c0-2.7,0-5.3,0-7.9
		C59.8,39.6,57.5,39.6,55.1,39.6z M43.8,39.6c0,1.7,0,3.3,0,4.7c2.8,0,5.5,0,8.3,0c0-1.6,0-3.2,0-4.7C49.3,39.6,46.6,39.6,43.8,39.6
		z M75.7,19c0,1.9,0,3.6,0,5.4c1.3,0,2.5,0,3.7,0c0-1.8,0-3.6,0-5.4C78.2,19,77,19,75.7,19z M79.5,31.8c0-1.5,0-3,0-4.4
		c-1.3,0-2.5,0-3.7,0c0,1.5,0,2.9,0,4.4C77,31.8,78.2,31.8,79.5,31.8z M75.7,34.9c0,1.5,0,2.9,0,4.3c1.3,0,2.5,0,3.7,0
		c0-1.5,0-2.9,0-4.3C78.2,34.9,77,34.9,75.7,34.9z M75.7,42.3c0,1.5,0,2.9,0,4.3c1.3,0,2.5,0,3.8,0c0-1.5,0-2.9,0-4.3
		C78.2,42.3,77,42.3,75.7,42.3z M75.7,49.8c0,1.5,0,2.9,0,4.3c1.3,0,2.5,0,3.7,0c0-1.5,0-2.9,0-4.3C78.2,49.8,77,49.8,75.7,49.8z
		 M75.7,57.2c0,1.2,0,2.3,0,3.4c1.3,0,2.5,0,3.8,0c0-1.1,0-2.3,0-3.4C78.2,57.2,77,57.2,75.7,57.2z"/>
	<path class="st0" d="M17.9,27.2c0,2.1,0,4.2,0,6.2c0,0.4,0,0.7,0,1.1c-0.1,0.8-0.6,1.3-1.4,1.3c-0.8,0-1.4-0.5-1.5-1.4
		c0-0.3,0-0.6,0-0.9c0-2.2,0-4.4,0-6.5c0-0.5-0.2-0.8-0.7-0.9c-3.7-1-7.4-2-11.1-3.1C1.2,22.5,0,20.7,0,18.8c0-2,1.2-3.8,3.1-4.3
		c0.9-0.2,1.9-0.3,2.8,0c8.2,2.2,16.4,4.5,24.6,6.8c2.4,0.7,3.7,2.5,3.6,4.9c-0.1,2.1-1.8,3.8-4,4.1c-0.7,0.1-1.4-0.1-2-0.2
		c-3-0.8-5.9-1.6-8.9-2.4C18.7,27.4,18.4,27.3,17.9,27.2z M29.3,27.2c1,0,1.5-0.4,1.8-1.2c0.2-0.8-0.1-1.4-0.8-1.8
		c-0.2-0.1-0.4-0.2-0.6-0.2c-8.1-2.2-16.2-4.5-24.3-6.7c-1.2-0.3-2,0.1-2.2,1c-0.3,0.9,0.3,1.7,1.4,2c8.1,2.2,16.2,4.5,24.2,6.7
		C28.9,27.1,29.2,27.2,29.3,27.2z"/>
	<path class="st0" d="M17.9,69.7c0,9.1,0,18.3,0,27.4c0,0.4,0,0.7,0,1.1c-0.1,0.8-0.6,1.4-1.5,1.4c-0.9,0-1.3-0.6-1.5-1.4
		c0-0.3,0-0.6,0-0.9c0-18.4,0-36.8,0-55.2c0-1.6,0.5-2.4,1.5-2.4c1,0,1.5,0.8,1.5,2.3C17.9,51.3,17.9,60.5,17.9,69.7z"/>
	<path class="st0" d="M77.4,87.4c-2,0-4,0-6.1,0c-1.3,0-2.1-0.9-1.7-2c0.3-0.7,0.8-1,1.5-1c4.2,0,8.4,0,12.6,0c1,0,1.6,0.6,1.6,1.5
		c0,0.9-0.6,1.5-1.6,1.5C81.7,87.5,79.6,87.4,77.4,87.4z"/>
</g>
</svg>
