<?xml version="1.0" encoding="utf-8"?>
<!-- Generator: Adobe Illustrator 25.0.0, SVG Export Plug-In . SVG Version: 6.00 Build 0)  -->
<svg version="1.1" id="Capa_1" xmlns="http://www.w3.org/2000/svg" xmlns:xlink="http://www.w3.org/1999/xlink" x="0px" y="0px"
	 viewBox="0 0 100 100" style="enable-background:new 0 0 100 100;" xml:space="preserve">
<style type="text/css">
	.st0{fill:#FFFFFF;}
</style>
<g>
	<path class="st0" d="M0,19.3c1.6-0.8,3.2-1.7,4.9-2.3C18.7,11.8,32.5,6.5,46.5,1.6c2.1-0.7,4.9-0.8,7,0c14.2,5,28.2,10.4,42.4,15.5
		c3,1.1,4.2,2.6,4.2,6c-0.2,23.6-0.1,47.1-0.1,70.7c0,4.8-0.4,5.2-5,5.2c-2.7,0-5.5-0.1-8.2,0c-3.2,0.2-4.6-1.3-4.4-4.4
		c0.6-9.3,1.2-18.7,6-27.4c-14.9-3-21.3-13.6-24.6-27.4c-9,0-18.1,0-27.3,0c-3.2,13.4-9.4,24.2-24.6,27.3c4,7.7,5.1,15.9,5.7,24.4
		c0.5,7.2,0.4,7.6-7,7.3c-3.5-0.1-7-1-10.4-1.5C0,71.3,0,45.3,0,19.3z M93.6,33.4c0-3.3,0-6.3,0-9.3c-29.2,0-58.1,0-87.2,0
		c0,3.2,0,6.2,0,9.3C35.6,33.4,64.4,33.4,93.6,33.4z M22.1,17c0.1,0.2,0.1,0.4,0.2,0.5c18.5,0,37,0,55.6,0
		c-8.9-3.9-18-7.3-27.1-10.6c-0.5-0.2-1.3-0.1-1.9,0.1C39.9,10.4,31,13.7,22.1,17z M82.1,39.7c-0.4,9.8,4.2,18.4,11.4,21.4
		c0-7.2,0-14.3,0-21.4C89.6,39.7,86,39.7,82.1,39.7z M6.3,39.7c0,7.4,0,14.4,0,21.5c7.6-3.4,12.8-13.5,11.1-21.5
		C13.9,39.7,10.3,39.7,6.3,39.7z M11.4,92.6c-0.5-7.6-1-14.8-5.1-21.1c0,7,0,14,0,21.1C8,92.6,9.5,92.6,11.4,92.6z M93.6,71.5
		c-3.9,6.5-4.8,13.7-5,21.2c1.8,0,3.3,0,5,0C93.6,85.5,93.6,78.5,93.6,71.5z M24.9,39.7c-1.5,5.9-2.8,11.3-4.3,17.2
		c5-4.9,8.2-10.3,9.2-17.2C27.8,39.7,26.2,39.7,24.9,39.7z M70.1,39.7c1.3,6.8,4.1,12.3,9.2,17c-1.4-5.8-2.8-11.3-4.1-17
		C73.7,39.7,72.1,39.7,70.1,39.7z"/>
</g>
</svg>
