<?xml version="1.0" encoding="utf-8"?>
<!-- Generator: Adobe Illustrator 25.0.0, SVG Export Plug-In . SVG Version: 6.00 Build 0)  -->
<svg version="1.1" id="Capa_1" xmlns="http://www.w3.org/2000/svg" xmlns:xlink="http://www.w3.org/1999/xlink" x="0px" y="0px"
	 viewBox="0 0 100 100" style="enable-background:new 0 0 100 100;" xml:space="preserve">
<style type="text/css">
	.st0{fill:#FFFFFF;}
</style>
<g>
	<path class="st0" d="M28.5,100c-1.6-1-2.2-2.4-2.2-4.2c0.1-3.1-0.1-6.2,0.1-9.4c0.1-1.2,0.6-2.6,1.4-3.4c0.6-0.6,2.2-0.7,3-0.3
		c0.9,0.4,1.7,1.7,1.9,2.6c0.3,1.7,0.1,3.5,0.1,5.6c1.8-1.1,3.5-1.9,4.9-3.1c5.8-4.7,12.3-6.2,19.7-5.7c8.9,0.5,17.8,0.1,26.7,0.1
		c4.7,0,7.9-2.2,8.9-6c0.3-1.2,0.3-2.4,0.3-3.7c0-6.8,0-13.5,0-20.3c0-0.8,0-1.7,0.2-2.5c0.4-1.7,1.7-2.6,3.4-2.4
		c1.7,0.2,2.8,1.3,2.8,3c0,8.4,0.3,16.8-0.1,25.2c-0.3,7.2-6.9,13.2-14.2,13.2c-11.7,0.1-23.4,0-35.1,0.1c-1.1,0-2.3,0.3-3.2,0.9
		c-5.5,3.4-11,6.9-16.4,10.4C30.1,100,29.3,100,28.5,100z"/>
	<path class="st0" d="M0,12.1c1-2,1.7-4.2,3-6C6,1.9,10.2,0,15.4,0c23.1,0,46.2,0,69.3,0c2.9,0,5.7,0.6,8.2,2.2
		c4.4,2.8,6.8,6.9,7.1,12.1c0.1,2.1-1,3.4-2.7,3.6c-1.9,0.2-3.3-0.7-3.6-2.9c-0.5-4-2.1-7-6.1-8.2c-1.2-0.4-2.6-0.4-3.9-0.4
		c-22.4,0-44.9,0-67.3,0c-6.1,0-8.7,2.2-9.8,8.2c-0.3,1.5-0.8,2.8-2.4,3.2C2.2,18.4,1,17.4,0,16C0,14.7,0,13.4,0,12.1z"/>
	<path class="st0" d="M0,49.2c2.1-2.5,4.8-2.7,6-0.3c0.4,0.9,0.5,2,0.5,3c0,7.1,0,14.2,0,21.2c0.1,5.8,3.3,8.9,9.1,9.1
		c1.2,0,2.5,0,3.7,0c3.4,0,5,1,5,3.2c0,2.3-1.5,3.3-4.9,3.2c-2.4,0-4.9,0.2-7.2-0.2c-5.8-1.1-9.7-4.6-11.6-10.3
		c-0.2-0.5-0.4-1-0.7-1.6C0,67.4,0,58.3,0,49.2z"/>
	<path class="st0" d="M0,21.9c1.3-1.6,3-2,4.9-2c3.1,0.1,6.2,0,9.4,0c2.6,0,4,1.2,4,3.2c0,2-1.4,3.3-3.9,3.4c-0.6,0-1.2,0-2,0
		c0,4.5,0,8.9,0,13.3c0,0.8,0,1.6-0.2,2.3c-0.4,1.5-1.5,2.4-3.1,2.4c-1.6,0-2.6-0.9-3-2.3c-0.2-0.7-0.2-1.5-0.2-2.3
		c0-4.4,0-8.8,0-13.3c-2.4,0-4.7,0.1-5.9-2.3C0,23.5,0,22.7,0,21.9z"/>
	<path class="st0" d="M67.1,34.6c0,1.7,0,3.5,0,5.2c0,0.7,0,1.4-0.2,2.1c-0.4,1.8-1.6,2.7-3.3,2.6c-1.6-0.1-2.9-1.3-2.9-3.1
		c-0.1-6.1,0-12.2,0-18.3c0-1.5,0.9-2.6,2.4-3c1.5-0.5,2.7,0.2,3.6,1.4c1.7,2.4,3.3,4.8,5,7.2c0.4,0.5,0.7,1,1.5,1.4
		c0-2.4-0.2-4.8,0.1-7.1c0.1-1,1.2-2.3,2.2-2.8c0.8-0.4,2.3,0.2,3.1,0.8c0.6,0.4,0.9,1.6,0.9,2.4c0.1,5.9,0,11.8,0,17.7
		c0,1.6-0.7,2.8-2.3,3.2c-1.5,0.4-2.8-0.1-3.7-1.5c-1.9-2.8-3.9-5.7-5.8-8.5C67.4,34.5,67.2,34.6,67.1,34.6z"/>
	<path class="st0" d="M31.4,35.6c-2.1,0-3.9,0-5.9,0c0,1.8,0,3.6,0,5.3c-0.1,2.3-1.3,3.6-3.2,3.6c-2,0-3.1-1.3-3.2-3.6
		c0-5.7,0-11.4,0-17.2c0-2.3,1.2-3.7,3.1-3.7c1.9,0,3.2,1.3,3.3,3.6c0.1,1.7,0,3.5,0,5.3c2,0,3.8,0,5.8,0c0.1-2.2,0.1-4.3,0.4-6.4
		c0.2-1.6,1.4-2.6,2.8-2.4c1.1,0.1,2.2,1.1,3.1,1.9c0.3,0.3,0.3,1.1,0.3,1.7c0,5.8,0,11.6,0,17.4c0,2.2-1.2,3.5-3.1,3.5
		c-1.9,0.1-3.2-1.1-3.3-3.3C31.3,39.4,31.4,37.6,31.4,35.6z"/>
	<path class="st0" d="M48.3,50.3c3.8,0.1,6.6,1.8,8.2,5c2.3,4.7,2.3,9.5,0.1,14.3c-1.6,3.5-4.6,5.3-8.4,5.3c-3.7,0-6.7-1.8-8.3-5.2
		c-2.2-4.6-2.2-9.3-0.1-13.9C41.4,52.1,44.4,50.4,48.3,50.3z M51.8,62.7c-0.3-1.3-0.4-2.8-1-4c-0.4-0.8-1.6-1.7-2.5-1.7
		c-0.9,0-2.3,0.8-2.7,1.7c-1.2,2.5-1.2,5.3,0,7.9c0.4,0.8,1.7,1.7,2.6,1.7c0.9,0,2.1-0.9,2.6-1.8C51.5,65.5,51.5,64.1,51.8,62.7z"/>
	<path class="st0" d="M90.6,30.3c2.7,2.8,5.2,5.6,7.8,8.2c1.8,1.8,2,3.7,0.6,5.1c-1.4,1.4-3.3,1.2-5.1-0.5c-1.8-1.7-3.6-3.5-5.8-5.6
		c0,1.6,0.1,2.6,0,3.6c-0.2,2.3-1.4,3.5-3.4,3.5c-1.9-0.1-3.1-1.4-3.1-3.7c0-5.6,0-11.2,0-16.8c0-2.4,1-3.8,2.8-4
		c1.8-0.2,3,0.9,3.6,3.2c0.1,0.2,0.2,0.5,0.3,0.8c2.1-1.2,4.2-2.3,6.2-3.4c2.2-1.2,4-0.8,5,1.1c0.9,1.7,0.2,3.4-2,4.6
		C95.3,27.8,92.9,29,90.6,30.3z"/>
	<path class="st0" d="M59.3,59.2c0-1.8,0-3.6,0-5.5c0.1-2.2,1.3-3.4,3.2-3.4c1.9,0,3.1,1.2,3.2,3.4c0.1,3.4,0.1,6.9,0.2,10.3
		c0,0.7,0.2,1.4,0.4,2.1c0.4,1.4,1.3,2.2,2.9,2.2c1.4,0,2.4-0.8,2.7-2.1c0.4-1.4,0.6-2.9,0.7-4.4c0.1-2.7,0-5.3,0-8
		c0-2.2,1.2-3.5,3.1-3.5c1.8-0.1,3.3,1,3.3,3.1c0,4.6,0.1,9.2-0.6,13.8c-0.7,4.6-4.7,7.6-9,7.7C64.9,75,61,72.1,60,67.5
		c-0.6-2.7-0.6-5.5-0.9-8.3C59.1,59.3,59.2,59.3,59.3,59.2z"/>
	<path class="st0" d="M59.4,40.9c0,2-0.8,3-2.2,3.5c-1.4,0.4-2.9,0.1-3.5-1.3c-0.6-1.2-1.5-1.4-2.6-1.3c-1,0.1-1.9,0-2.9,0
		c-1.4,0-2.7-0.1-3.5,1.6c-0.7,1.4-2.3,1.5-3.8,0.8c-1.7-0.8-2.1-2.3-1.6-4c0.5-1.5,1.2-3,1.7-4.5c1.6-4.2,3.2-8.5,4.9-12.7
		c0.6-1.6,1.5-3,3.4-3c1.9,0,2.8,1.3,3.4,2.9c2.1,5.4,4.2,10.9,6.3,16.3C59.2,39.9,59.3,40.6,59.4,40.9z"/>
	<path class="st0" d="M29.2,57.9c1.4-2,2.5-3.8,3.8-5.6c1.4-2,3.2-2.5,4.8-1.5c1.7,1.1,1.9,3,0.5,5.1c-0.6,0.9-1.2,1.9-1.9,2.7
		c-3.1,3.7-4.8,7.7-4.1,12.6c0.3,2-1.3,3.5-3.1,3.6c-1.7,0.1-3-1.2-3.3-3.2c0-0.3-0.1-0.5,0-0.8c0.8-4.8-1.1-8.7-4-12.3
		c-0.7-0.9-1.3-1.9-2-2.9c-1.2-2-1-3.7,0.5-4.8c1.6-1.1,3.5-0.6,4.9,1.3c0.7,0.9,1.2,1.8,1.9,2.7C27.8,55.8,28.4,56.8,29.2,57.9z"/>
</g>
</svg>
