<svg id="Capa_1" data-name="Capa 1" xmlns="http://www.w3.org/2000/svg" viewBox="0 0 500 486.04" fill="#fff"><path d="M39.3,347.93c42.09,4.71,52-1.12,68-38.17,1.33-3.08,2-6.62,4.06-9.15,3.52-4.45,7.75-11.42,11.79-11.5s9.5,6.21,12.32,10.91c4.25,7.11,6.84,15.23,10,23,7.46,18.18,21.6,26.42,40.61,26.7,19.81.3,34.27-8.36,42.18-27C232,314,235.07,305,239.41,296.59c5.89-11.37,15.09-11.48,21-.26,4.15,7.86,7.09,16.36,10.4,24.63,7.44,18.59,21.19,28.43,41.09,28.75,20.38.33,35.42-8.25,43.12-28,3.24-8.31,6.35-16.78,10.73-24.5,2.16-3.81,7.06-8.39,10.73-8.4s8.32,4.65,10.65,8.43c3.75,6.11,6,13.17,8.8,19.85,11.41,27,26,35.46,55,31.7,2.62-.34,5.27-.52,9.51-.93,0,28.16.63,55.4-.61,82.57-.21,4.59-8,9.39-13.15,13-2.26,1.58-6.51.33-9.86.33q-186.73,0-373.47,0c-23.73,0-24.09-.44-24.1-24.62Z"/><path d="M233.06,88.66h33.88c0,29.17.88,58-.36,86.8-.68,15.73,3.14,21.36,20,20.85,40.73-1.25,81.52-.59,122.28-.21,34.06.32,51.48,18,51.79,51.82.18,19-.39,38,.13,57,.33,11.93-4.32,19.64-16,21.81s-21-1.41-25.9-13.13c-3.66-8.76-7.11-17.6-10.94-26.28-6.2-14-16.62-22.41-32.41-22.06-15.09.34-24.73,8.91-30.55,22.28-3.78,8.69-5.92,18.6-11.52,25.86-4.81,6.24-13.31,12.74-20.49,13.12-6.46.34-15-6.17-19.62-12C288,307.67,286,298.33,282.66,290c-5.89-14.68-15.73-24.65-32.32-24.81s-26.72,9.46-32.72,24.17c-3,7.23-4.38,15.79-9.23,21.37-6,6.87-14.61,15.13-22.46,15.52-6.71.33-15.33-8.51-20.53-15.27s-7.22-16.2-10.88-24.35c-6-13.34-15.88-21.43-31-21.48s-25,8.25-31,21.51c-3.93,8.64-7.45,17.46-11,26.25-4.75,11.63-13.9,15.83-25.56,14-12.67-2-17-10.55-16.64-23,.54-20.09-.3-40.22.25-60.3.8-29,18.49-46.92,47.6-47.38,42.43-.66,84.89-.89,127.31,0,14.44.3,19.64-3.19,19-18.4C232.21,148.86,233.06,119.81,233.06,88.66Z"/><path d="M500,468.12V486H0V468.12Z"/><path d="M250.93,37.65l-19.76,32c-14.11-19.81-9.44-37.19,19-69.63,23.69,18.11,31.64,45.88,18.76,68.59Z"/></svg>