<svg id="Capa_1" data-name="Capa 1" xmlns="http://www.w3.org/2000/svg" viewBox="0 0 275.72 486.04" fill="#fff"><path d="M239.91,433.63c2.2,15.69-3.1,25.05-18.64,32.9a181,181,0,0,1-62,18.26c-36,4-70.47-1.64-103.17-17.43a58.11,58.11,0,0,1-6.17-3.44c-12.06-7.74-15.72-15.55-14-30.11-4.12-2.34-8.42-4.7-12.65-7.19C5.49,416.14-2,400.42.46,380.17A243.68,243.68,0,0,1,15.72,321C35.22,270.91,66.92,231,111,200.73c-2.1-3.66-4.69-7-6-10.81s-1.49-8.18-2.3-13.23c-2.9,3.38-6.09,6.15-8.09,9.6-8.11,14-21.56,16.23-35.81,16.91-3.06.15-6.16-.2-9.2.09-9.54.89-19.07,2-28.6,3-3.77.4-7.54.77-11.3,1.16l-.55-2.26,11-4.78c-7.46-7.47-14.59-14.13-14.41-26.55,3.54,2.92,6.32,4.76,8.54,7.12,11.32,12.07,24.61,14.91,40.58,10.87,14.08-3.56,25.92-8.7,32-23.22,2.78-6.66,7.62-12.43,11.35-18.72,4-6.82,9.33-11.06,17.81-10.2a13.94,13.94,0,0,0,6.85-1.06,6.15,6.15,0,0,0,3.22-4.14c.12-1-2.11-2.44-3.52-3.3-3.79-2.3-7.7-4.39-10.76-6.11-5.57.87-11.06,3.1-15.82,2-3.62-.8-7.71-5.27-9.09-9-1.79-4.88,1.12-9.38,6-12.32a9.4,9.4,0,0,0,4.08-5.35,44.06,44.06,0,0,1,15.25-25.58,9.8,9.8,0,0,0,2.94-7.07c-.68-11.71-2-23.38-2.82-35.09-.13-2,.91-5,2.41-5.94s5.11-.92,6.31.23a7.82,7.82,0,0,1,1.81,6.69c-2.2,6.64,0,11.62,3.09,15.31,3.23-12.17,6.67-24.71,9.8-37.33.4-1.61-1.15-3.62-1.18-5.46A10.41,10.41,0,0,1,135.72.59c.47-.73,3.76-.8,4.23-.11,1,1.51,2.12,4.63,1.38,5.45-3,3.33-.6,5.89.16,8.92,2.9,11.68,5.51,23.43,8.2,35,3.18-4.13,5.71-9.06,3.95-15.76a9.29,9.29,0,0,1,2-7.29c.93-1.08,5.31-1,6.18.13,1.41,1.79,1.76,4.89,1.6,7.37-.79,12-2,23.89-2.74,35.86-.09,1.58,1.74,3.68,3.21,4.87A40.38,40.38,0,0,1,179,100.55a7.73,7.73,0,0,0,2.95,4.86c6.82,4.24,9.46,9.79,6.84,15.54s-9.45,8.41-16.27,6.38a68,68,0,0,1-7.21-3l-15.68,9.42c1,5,4.81,6.57,9.22,6.31,8.31-.51,13.05,3.3,16.2,10.75,3.83,9.08,8.45,17.83,13.39,28.12,6.84-12.69,13.46-24.22,19.13-36.19,1.06-2.23-1.36-6.45-2.84-9.42-1.39-2.77-3.66-5.1-4.5-8.91l6.56,3.1c2.22-9.12-7-13-8.16-20.06,7.68.58,16.87,8.44,18.23,17,1,6.14,1.42,13-.35,18.81-4.94,16.16-11.12,31.94-16.91,47.83a19,19,0,0,1-3,4.8c-4.8,6.3-6.86,6.44-12,.39-3.46-4.13-6.53-8.6-9.78-12.92-3.16,5.56-6.36,11.17-9.66,17,9.78,8,20.44,16.05,30.33,25a240.07,240.07,0,0,1,60.64,85c9.42,22.06,16.56,44.92,19.14,69.11,2.47,23.19-6.77,39.17-26.92,49.68C245.51,430.55,242.65,432.15,239.91,433.63Z" transform="translate(0 0)"/></svg>