<?xml version="1.0" encoding="utf-8"?>
<!-- Generator: Adobe Illustrator 25.0.0, SVG Export Plug-In . SVG Version: 6.00 Build 0)  -->
<svg version="1.1" id="Capa_1" xmlns="http://www.w3.org/2000/svg" xmlns:xlink="http://www.w3.org/1999/xlink" x="0px" y="0px"
	 viewBox="0 0 100 89.3" style="enable-background:new 0 0 100 89.3;" xml:space="preserve">
<style type="text/css">
	.st0{fill:#A18262;}
</style>
<g>
	<path class="st0" d="M50,89.1c-13.6,0-27.3,0-40.9,0c-4.4,0-7.6-2.2-8.7-6.1c-0.8-2.6-0.2-4.9,1.1-7.2C5,69.6,8.6,63.4,12.2,57.2
		c10-17.3,20-34.6,30-51.9c1.7-2.9,3.9-4.8,7.3-5c3.6-0.2,6.3,1.4,8.1,4.6c3.2,5.5,6.4,11,9.6,16.6c10.4,18,20.7,36,31.2,53.9
		c1.5,2.5,2.2,5.1,1.3,7.9c-1.1,3.4-4.2,5.8-7.8,5.8C77.8,89.1,63.9,89.1,50,89.1C50,89.1,50,89.1,50,89.1z M44.7,43
		c0,3.8,0,7.5,0,11.3c0,3.2,2,5,5.3,5c3.3,0,5.3-1.9,5.3-5.1c0-7.5,0-15,0-22.5c0-3.2-2-5-5.3-5c-3.3,0-5.3,1.9-5.3,5.1
		C44.7,35.5,44.7,39.2,44.7,43z M50,67c-3,0-5.3,2.3-5.3,5.2c0,3,2.3,5.4,5.3,5.4c2.9,0,5.3-2.4,5.3-5.3C55.4,69.3,53.1,67,50,67z"
		/>
</g>
</svg>
