<?xml version="1.0" encoding="utf-8"?>
<!-- Generator: Adobe Illustrator 25.0.0, SVG Export Plug-In . SVG Version: 6.00 Build 0)  -->
<svg version="1.1" id="Capa_1" xmlns="http://www.w3.org/2000/svg" xmlns:xlink="http://www.w3.org/1999/xlink" x="0px" y="0px"
	 viewBox="0 0 100 100" style="enable-background:new 0 0 100 100;" xml:space="preserve">
<style type="text/css">
	.st0{fill:#A18262;}
	.st1{fill:#FFFFFF;}
</style>
<g>
	<g>
		<path class="st0" d="M53.2,48c5.2,0,10.5,0,15.7,0c6.1,0,12.1,0,18.2,0c0.8,0,1.6,0,2.4,0c0.7,0,1.1,0.3,1.3,0.9
			c0.5,1.5,1.2,3,2.2,4.2c1.5,1.9,3.5,3.1,5.7,4c0.3,0.1,0.6,0.2,0.8,0.5c0.2,0.2,0.3,0.5,0.3,0.8c0,4,0,8,0,12c0,2.6,0,5.2,0,7.7
			c0,2.3,0,4.6,0,6.9c0,0.9-0.2,1.2-1,1.5c-1.8,0.7-3.5,1.6-4.8,2.9c-1.5,1.4-2.5,3.1-3.2,5.1c-0.3,1-0.6,1.2-1.7,1.2
			c-8.5,0-16.9,0-25.4,0c-7.7,0-15.5,0-23.2,0c-7.6,0-15.2,0-22.8,0c-0.4,0-0.7,0-1.1,0c-0.8,0-1.2-0.3-1.4-1
			c-0.4-1.3-1-2.6-1.9-3.7c-1.4-1.9-3.2-3.2-5.3-4.1c-0.4-0.2-0.7-0.3-1.1-0.5c-0.6-0.2-0.8-0.6-0.8-1.2c0-4.4,0-8.7,0-13.1
			c0-2.9,0-5.7,0-8.6c0-1.7,0-3.3,0-5c0-0.8,0.2-1.2,1-1.4c2-0.8,3.9-1.9,5.4-3.5c1.3-1.4,2.2-3,2.7-4.7c0.3-0.8,0.6-1,1.4-1
			c6.1,0,12.2,0,18.4,0C41.2,48.1,47.2,48.1,53.2,48C53.2,48.1,53.2,48,53.2,48z M17.5,93.4c23.6,0,47.2,0,70.8,0
			c0.1-1.2,0.2-1.2,0.9-1.2c0.6-0.9,1.1-1.8,1.7-2.7c1.6-2.2,3.8-3.7,6.2-4.8c0.3-0.1,0.4-0.3,0.4-0.7c0-7.9,0-15.9,0-23.8
			c0-0.7-0.2-1-0.8-1.3c-2.5-1.1-4.5-2.7-6-4.9c-0.5-0.8-1-1.6-1.5-2.4c-0.3,0.1-0.6,0.1-0.8-0.2c-0.1-0.3-0.1-0.6-0.2-0.9
			c-23.6,0-47.2,0-70.8,0c0,0.2,0,0.4,0,0.6c-0.1,0.2-0.2,0.4-0.3,0.5c-0.1,0.1-0.3,0.3-0.4,0.4c-0.6,1.1-1.2,2.1-2,3
			c-1.6,1.8-3.5,3.1-5.6,4c-0.3,0.1-0.4,0.3-0.4,0.7c0,3.5,0,7.1,0,10.7c0,4.6,0,9.1,0,13.7c0,0.3,0.1,0.4,0.3,0.5
			c1.4,0.6,2.7,1.4,3.9,2.4c1.6,1.3,2.9,2.8,3.8,4.6c0.1,0.2,0.2,0.5,0.5,0.6c0.1,0.1,0.2,0.3,0.2,0.5
			C17.5,92.9,17.5,93.1,17.5,93.4z"/>
		<path class="st0" d="M84,38.5c-0.2-0.3-0.4-0.5-0.5-0.8c-0.1-0.4,0.2-0.6,0.4-0.7c-0.1-0.7-0.4-1.4-0.5-2.1
			c-0.4-2.3-0.3-4.5,0.4-6.7c0.2-0.7,0.5-1.4,0.8-2.2c0.1-0.2,0.1-0.4-0.1-0.6c-1.9-2-3.7-4-5.6-5.9c-2.3-2.4-4.6-4.9-6.9-7.3
			c-1.4-1.6-2.9-3.1-4.4-4.7c-0.1-0.2-0.3-0.2-0.5-0.1c-2.1,0.8-4.3,1.1-6.5,1c-1.5-0.1-3-0.4-4.5-1c-0.6,0.6-0.6,0.6-1.6-0.2
			C37.5,23.4,20.3,39.5,3.1,55.7c0.1,0.1,0.3,0.2,0.4,0.4c0.1,0.1,0.3,0.4,0.2,0.5c-0.2,0.6,0.1,1.1,0.2,1.6c0.8,3.3,0.4,6.6-1,9.7
			c-0.1,0.3-0.1,0.5,0.1,0.7c0.7,0.7,1.4,1.4,2,2.2c0.1,0.1,0.2,0.3,0.2,0.4c0,1.1,0,2.2,0,3.4c-0.4-0.4-0.6-0.7-0.9-0.9
			c-1.3-1.4-2.6-2.7-3.9-4.1c-0.5-0.5-0.5-1-0.2-1.7c0.4-0.8,0.7-1.7,1-2.6c1-3.1,0.7-6.1-0.7-9c-0.3-0.7-0.2-1.2,0.3-1.7
			c3.7-3.5,7.5-7,11.2-10.5c0.9-0.8,1.8-1.6,2.7-2.5c0.7-0.7,1.4-1.3,2-2c1.6-1.5,3.3-3.1,4.9-4.6c1.8-1.6,3.5-3.2,5.1-4.8
			c3.6-3.4,7.2-6.8,10.9-10.2c0.9-0.8,1.8-1.7,2.7-2.5c4.5-4.2,9-8.5,13.6-12.7c0.6-0.5,1-0.6,1.7-0.2c3.1,1.7,6.4,2.1,9.8,1
			c0.6-0.2,1.2-0.4,1.8-0.7s1.1-0.1,1.5,0.3c2.1,2.2,4.2,4.4,6.2,6.6c2.3,2.5,4.6,4.9,6.9,7.3c1.7,1.8,3.5,3.7,5.2,5.5
			c0.4,0.5,0.5,1,0.2,1.6c-1.1,2.2-1.7,4.4-1.6,6.9c0.1,1.7,0.5,3.2,1.2,4.7c0.3,0.7,0.2,1.2-0.3,1.7c-2.7,2.5-5.3,5-7.9,7.4
			C78.6,47,78.5,47,78.4,47c-1.1,0-2.2,0-3.5,0C78,44.2,81,41.3,84,38.5z"/>
		<path class="st0" d="M56.6,45.6c-3.5-3.8-7-7.5-10.6-11.3c2.1-2,4.2-3.9,6.3-5.9c0.6,0.6,1.2,1.2,1.7,1.9c-1.4,1.3-2.7,2.5-4,3.8
			c0.8,0.9,1.6,1.7,2.5,2.6c1.3-1.2,2.5-2.3,3.8-3.5c0.6,0.6,1.2,1.2,1.7,1.9c-1.2,1.2-2.5,2.3-3.8,3.5c0.9,1,1.9,2,2.8,3
			c0.3-0.2,0.5-0.5,0.8-0.7c1-1,2.1-1.9,3.1-2.9c0.2-0.2,0.3-0.2,0.6,0c0.5,0.5,1,0.9,1.5,1.4C60.9,41.5,58.7,43.5,56.6,45.6z"/>
		<path class="st0" d="M37.5,42.3c0.8-0.7,1.5-1.4,2.3-2.1c1.4,1.5,2.8,3,4.2,4.4c0,0,0.1,0,0.1,0c-0.1-0.7-0.2-1.3-0.4-2
			c-0.3-1.6-0.6-3.2-0.9-4.8c0-0.1,0-0.3,0.1-0.4c0.7-0.7,1.5-1.4,2.3-2.2c0.1,0.7,0.3,1.3,0.4,2c0.4,1.8,0.7,3.6,1,5.4
			c0.1,0.3,0.2,0.4,0.4,0.5c2,0.7,3.9,1.3,5.9,2c1,0.4,2.1,0.7,3.2,1.1c-0.4,0.4-0.7,0.7-1.1,1c-0.1,0.1-0.2,0.1-0.3,0.1
			c-1.5,0-3,0-4.6,0c-0.2,0-0.4-0.1-0.6-0.1c-0.9-0.3-1.7-0.7-2.7-1c0.1,0.4,0.1,0.7,0.2,1.1c-0.6,0-1.2,0-1.7,0c-1,0-2,0-3,0
			c-0.1,0-0.3,0-0.4-0.1C40.5,45.4,39.1,43.9,37.5,42.3z"/>
		<path class="st0" d="M57.2,27.3c-0.8,0.8-1.6,1.5-2.5,2.3c-0.6-0.6-1.2-1.2-1.7-1.9c2.4-2.2,4.8-4.5,7.2-6.7
			c0.6,0.6,1.2,1.2,1.7,1.9c-0.8,0.8-1.6,1.5-2.5,2.3c2.9,3.1,5.9,6.2,8.8,9.4c-0.8,0.7-1.5,1.4-2.3,2.1
			C63,33.6,60.1,30.5,57.2,27.3z"/>
		<path class="st0" d="M39.4,47c-2.5,0-4.9,0-7.3,0C34.1,44.6,36.9,44.3,39.4,47z"/>
		<path class="st0" d="M77,29.4c-0.1,0.1-0.2,0.4-0.4,0.5c-0.2,0.1-0.6,0.1-0.7-0.1c-0.9-0.9-1.8-1.8-2.6-2.8
			c-0.2-0.3-0.2-0.6,0-0.8c0.2-0.2,0.6-0.3,0.9,0c0.9,0.9,1.8,1.9,2.7,2.8C76.9,29.1,76.9,29.2,77,29.4z"/>
		<path class="st0" d="M58.2,9.3c0.2,0.1,0.4,0.2,0.6,0.4c0.8,0.9,1.7,1.7,2.5,2.6c0.3,0.3,0.3,0.7,0,0.9c-0.2,0.2-0.7,0.2-0.9-0.1
			c-0.8-0.9-1.7-1.8-2.5-2.7c-0.2-0.2-0.3-0.4-0.1-0.7C57.8,9.6,58,9.5,58.2,9.3z"/>
		<path class="st0" d="M68.6,20.4c0.2,0.1,0.4,0.2,0.5,0.3c0.8,0.9,1.7,1.7,2.5,2.6c0.3,0.3,0.3,0.7,0.1,0.9
			c-0.3,0.2-0.7,0.2-0.9-0.1c-0.8-0.9-1.7-1.7-2.5-2.7C68,21.4,68,21,68.1,20.8C68.1,20.7,68.4,20.5,68.6,20.4z"/>
		<path class="st0" d="M78.9,31.4c0.2,0.1,0.4,0.2,0.6,0.4c0.8,0.9,1.6,1.7,2.5,2.6c0.3,0.4,0.3,0.7,0.1,1c-0.3,0.2-0.6,0.2-0.9-0.1
			c-0.8-0.9-1.6-1.7-2.5-2.6c-0.2-0.2-0.3-0.5-0.2-0.7C78.5,31.7,78.7,31.6,78.9,31.4z"/>
		<path class="st0" d="M63.3,14.9c0.2,0.1,0.4,0.2,0.5,0.3c0.8,0.8,1.6,1.6,2.4,2.5c0.1,0.1,0.2,0.2,0.3,0.3
			c0.2,0.3,0.1,0.6-0.1,0.8c-0.2,0.2-0.6,0.2-0.8,0c-0.9-0.9-1.8-1.9-2.7-2.9c-0.1-0.1-0.1-0.4,0-0.6C63,15.1,63.2,15,63.3,14.9z"/>
		<path class="st0" d="M72.1,14.2c-0.1,0.2-0.2,0.4-0.4,0.5c-0.8,0.8-1.6,1.5-2.5,2.3c-0.3,0.3-0.7,0.3-0.9,0
			c-0.2-0.3-0.2-0.6,0.1-0.9c0.8-0.8,1.7-1.6,2.5-2.3c0.2-0.2,0.4-0.3,0.7-0.1C71.8,13.9,71.9,14.1,72.1,14.2z"/>
		<path class="st0" d="M72.8,21.6c-0.1-0.1-0.4-0.2-0.5-0.4c-0.1-0.2,0-0.5,0.1-0.7c0.9-0.8,1.7-1.7,2.6-2.5c0.3-0.2,0.6-0.2,0.8,0
			c0.2,0.2,0.2,0.6,0,0.8c-0.9,0.8-1.7,1.6-2.6,2.5C73.2,21.5,73,21.5,72.8,21.6z"/>
		<path class="st0" d="M70.1,18.8c-0.2-0.1-0.4-0.3-0.5-0.4c-0.1-0.2,0-0.5,0.1-0.6c0.9-0.9,1.7-1.7,2.6-2.5
			c0.2-0.2,0.6-0.1,0.8,0.1c0.2,0.2,0.2,0.6,0,0.8c-0.9,0.8-1.7,1.7-2.6,2.5C70.5,18.7,70.3,18.7,70.1,18.8z"/>
		<path class="st0" d="M77.5,20c-0.1,0.2-0.2,0.4-0.3,0.5c-0.8,0.8-1.6,1.5-2.5,2.3c-0.3,0.3-0.7,0.3-0.9,0
			c-0.2-0.3-0.2-0.6,0.1-0.9c0.8-0.8,1.7-1.6,2.5-2.3c0.1-0.1,0.5-0.2,0.7-0.1C77.2,19.5,77.3,19.8,77.5,20z"/>
		<path class="st0" d="M81.5,24.3c-0.1,0.2-0.2,0.4-0.3,0.5c-0.8,0.8-1.7,1.6-2.5,2.3c-0.2,0.2-0.5,0.3-0.7,0.1
			c-0.2-0.1-0.3-0.4-0.4-0.5c0-0.1,0.1-0.4,0.2-0.5c0.8-0.8,1.7-1.6,2.5-2.3c0.1-0.1,0.5-0.2,0.7-0.1C81.2,23.8,81.3,24.1,81.5,24.3
			z"/>
		<path class="st0" d="M70.8,12.8c-0.1,0.2-0.2,0.4-0.3,0.5c-0.8,0.8-1.7,1.6-2.5,2.3c-0.3,0.3-0.7,0.2-0.9,0
			c-0.2-0.2-0.2-0.6,0.1-0.9c0.8-0.8,1.7-1.6,2.5-2.4c0.1-0.1,0.5-0.1,0.7-0.1C70.5,12.4,70.6,12.6,70.8,12.8z"/>
		<path class="st0" d="M71.5,20.2c-0.2-0.1-0.4-0.2-0.5-0.4c-0.1-0.2,0-0.5,0.1-0.7c0.8-0.8,1.7-1.7,2.6-2.5c0.2-0.2,0.7-0.2,0.8,0
			c0.2,0.2,0.2,0.6,0,0.9c-0.8,0.8-1.7,1.6-2.5,2.4C71.9,20.1,71.7,20.1,71.5,20.2z"/>
		<path class="st0" d="M67.4,9.3c0.2,0.2,0.4,0.3,0.5,0.5c0.2,0.2,0.1,0.5-0.1,0.7c-0.4,0.4-0.8,0.8-1.2,1.2
			c-0.4,0.4-0.9,0.8-1.3,1.2c-0.3,0.2-0.5,0.2-0.8,0s-0.3-0.5-0.1-0.8c0.1-0.1,0.2-0.2,0.3-0.3c0.7-0.7,1.4-1.4,2.2-2
			C66.9,9.5,67.2,9.4,67.4,9.3z"/>
		<path class="st0" d="M80.1,22.8C80,23,80,23.2,79.9,23.3c-0.8,0.8-1.6,1.5-2.5,2.3c-0.3,0.3-0.7,0.3-0.9,0.1
			c-0.2-0.2-0.2-0.7,0.1-0.9c0.8-0.8,1.7-1.5,2.5-2.3c0.2-0.2,0.4-0.3,0.7-0.1C79.9,22.5,80,22.7,80.1,22.8z"/>
		<path class="st0" d="M69.3,11.5c-0.1,0.1-0.1,0.3-0.3,0.4c-0.8,0.8-1.6,1.5-2.4,2.3c-0.3,0.3-0.7,0.3-0.9,0
			c-0.2-0.3-0.1-0.6,0.2-0.9c0.7-0.7,1.4-1.4,2.2-2.1c0.2-0.2,0.4-0.3,0.7-0.4C69,10.8,69.3,11.1,69.3,11.5z"/>
		<path class="st0" d="M78.8,21.4c-0.1,0.2-0.2,0.4-0.3,0.5c-0.8,0.8-1.7,1.6-2.5,2.4c-0.3,0.2-0.7,0.2-0.9,0
			c-0.2-0.2-0.2-0.6,0-0.9c0.9-0.8,1.7-1.6,2.6-2.4c0.1-0.1,0.5-0.1,0.7-0.1C78.6,21,78.7,21.2,78.8,21.4z"/>
		<path class="st0" d="M79.5,28.8c-0.2-0.1-0.4-0.3-0.5-0.4c-0.1-0.2,0-0.5,0.1-0.7c0.8-0.8,1.7-1.6,2.5-2.4c0.3-0.3,0.7-0.3,0.9,0
			c0.2,0.2,0.2,0.7-0.1,0.9c-0.8,0.8-1.6,1.5-2.5,2.3C80,28.7,79.8,28.7,79.5,28.8z"/>
		<path class="st0" d="M62.8,79.7c-1.2,0-2.2,0-3.3,0c-0.1,0-0.3-0.1-0.3-0.2c-0.9-1.8-1.9-3.7-2.8-5.5c-0.1-0.1-0.1-0.3-0.3-0.5
			C55.7,74,55.3,74.5,55,75c-0.1,0.1-0.1,0.2-0.1,0.4c0,1.3,0,2.6,0,3.8c0,0.1,0,0.3,0,0.4c-1.1,0-2.1,0-3.1,0c0-5.1,0-10.2,0-15.4
			c1,0,2,0,3.1,0c0,2,0,4,0,6c0,0,0.1,0,0.1,0c0.3-0.5,0.7-1,1-1.5c0.6-0.9,1.2-1.8,1.7-2.7c0.4-0.6,0.7-1.1,1-1.7
			c0.1-0.1,0.2-0.2,0.3-0.2c1,0,2.1,0,3.2,0c-0.3,0.4-0.5,0.8-0.7,1.1c-1.1,1.7-2.2,3.5-3.3,5.2c-0.1,0.2-0.1,0.4,0,0.6
			c1.2,2.1,2.3,4.3,3.4,6.4C62,78.3,62.3,78.9,62.8,79.7z"/>
		<path class="st0" d="M63.4,64.3c2.9,0,5.7,0,8.6,0c0,0.8,0,1.7,0,2.5c-1.8,0-3.6,0-5.5,0c0,1.2,0,2.4,0,3.6c1.7,0,3.4,0,5.1,0
			c0,0.9,0,1.7,0,2.5c-1.7,0-3.4,0-5.1,0c0,1.4,0,2.8,0,4.2c1.9,0,3.8,0,5.6,0c0,0.9,0,1.7,0,2.5c-0.1,0-0.3,0-0.4,0
			c-2.7,0-5.3,0-8,0c-0.3,0-0.4-0.1-0.4-0.4c0-4.9,0-9.8,0-14.8C63.4,64.5,63.4,64.4,63.4,64.3z"/>
		<path class="st0" d="M46.9,69.4c-0.1-0.7-0.1-1.3-0.3-2c-0.2-0.9-0.7-1.2-1.6-1.2c-0.8,0-1.4,0.4-1.5,1.2c-0.2,1-0.4,2-0.4,3
			c0,1.7,0.1,3.4,0.1,5.1c0,0.4,0.1,0.8,0.3,1.2c0.2,0.7,0.7,1,1.4,1c0.8,0,1.3-0.3,1.6-1c0.3-0.8,0.4-1.7,0.4-2.5
			c0-0.1,0-0.2,0-0.4c1,0,2,0,3.1,0c0,1.5-0.1,3-0.9,4.3c-0.4,0.7-1.1,1.2-1.9,1.5c-0.8,0.3-1.6,0.4-2.5,0.3
			c-0.7-0.1-1.4-0.1-2.1-0.4c-1.3-0.5-2.1-1.5-2.3-2.8c-0.2-1.2-0.4-2.3-0.5-3.5c-0.1-1.8-0.1-3.5,0.3-5.3c0.2-1.2,0.7-2.4,1.8-3.1
			c0.7-0.5,1.5-0.7,2.3-0.8c1.1-0.1,2.1-0.1,3.1,0.4c0.9,0.4,1.5,1,2,1.9c0.5,1,0.5,2.1,0.6,3.3C48.9,69.4,47.9,69.4,46.9,69.4z"/>
		<path class="st0" d="M23.5,66.8c0-0.9,0-1.7,0-2.5c3.3,0,6.5,0,9.8,0c0,0.8,0,1.7,0,2.5c-1.1,0-2.2,0-3.3,0c0,4.3,0,8.6,0,12.9
			c-1.1,0-2.1,0-3.1,0c0-4.3,0-8.5,0-12.8C25.7,66.8,24.6,66.8,23.5,66.8z"/>
		<path class="st0" d="M79.4,79.6c-1.1,0-2.1,0-3.1,0c0-4.3,0-8.5,0-12.8c-1.1,0-2.2,0-3.4,0c0-0.9,0-1.7,0-2.5c3.3,0,6.5,0,9.8,0
			c0,0.8,0,1.7,0,2.5c-1.1,0-2.2,0-3.3,0C79.4,71.1,79.4,75.4,79.4,79.6z"/>
		<path class="st0" d="M34.8,79.7c0-5.1,0-10.2,0-15.4c0.1,0,0.2,0,0.3,0c0.8,0,1.6,0,2.4,0c0.3,0,0.4,0.1,0.4,0.4
			c0,0.6,0,1.2,0,1.8c0,4.2,0,8.5,0,12.7c0,0.1,0,0.3,0,0.5C36.9,79.7,35.9,79.7,34.8,79.7z"/>
		<path class="st0" d="M16.2,72c0-0.6,0-1.2,0-1.8c0-0.5,0.2-0.7,0.6-0.7c0.4,0,0.6,0.3,0.6,0.8c0,1.2,0,2.3,0,3.5
			c0,0.5-0.2,0.7-0.6,0.7c-0.4,0-0.6-0.2-0.6-0.7C16.2,73.1,16.3,72.5,16.2,72C16.3,72,16.2,72,16.2,72z"/>
		<path class="st0" d="M89.5,87.1c0,0.6,0,1.2,0,1.8c0,0.4-0.2,0.7-0.6,0.7s-0.6-0.3-0.6-0.7c0-1.2,0-2.5,0-3.7
			c0-0.4,0.3-0.7,0.6-0.7s0.6,0.3,0.6,0.7C89.6,85.8,89.5,86.5,89.5,87.1L89.5,87.1z"/>
		<path class="st0" d="M17.5,79.5c0,0.6,0,1.2,0,1.8c0,0.5-0.2,0.7-0.6,0.7s-0.6-0.3-0.6-0.7c0-1.2,0-2.4,0-3.6
			c0-0.5,0.2-0.7,0.6-0.7c0.4,0,0.6,0.2,0.6,0.7C17.5,78.3,17.5,78.9,17.5,79.5L17.5,79.5z"/>
		<path class="st0" d="M88.3,71.9c0-0.6,0-1.2,0-1.8c0-0.5,0.2-0.7,0.6-0.7c0.4,0,0.6,0.2,0.6,0.7c0,1.2,0,2.4,0,3.6
			c0,0.3-0.1,0.6-0.4,0.7c-0.3,0.1-0.5,0-0.7-0.3c-0.1-0.1-0.1-0.3-0.1-0.4C88.3,73.1,88.3,72.5,88.3,71.9z"/>
		<path class="st0" d="M89.6,56.8c0,0.6,0,1.2,0,1.8c0,0.4-0.3,0.7-0.6,0.7c-0.4,0-0.6-0.3-0.6-0.7c0-1.2,0-2.4,0-3.6
			c0-0.4,0.3-0.7,0.6-0.7c0.3,0,0.6,0.3,0.6,0.7C89.6,55.6,89.5,56.2,89.6,56.8C89.5,56.8,89.6,56.8,89.6,56.8z"/>
		<path class="st0" d="M17.5,56.8c0,0.6,0,1.2,0,1.8c0,0.4-0.2,0.7-0.6,0.7c-0.4,0-0.7-0.3-0.7-0.7c0-1.2,0-2.4,0-3.6
			c0-0.5,0.3-0.8,0.6-0.7c0.4,0,0.6,0.3,0.6,0.7C17.5,55.6,17.5,56.2,17.5,56.8z"/>
		<path class="st0" d="M88.3,64.3c0-0.6,0-1.2,0-1.8c0-0.4,0.3-0.7,0.6-0.7c0.4,0,0.6,0.3,0.6,0.7c0,1.2,0,2.4,0,3.6
			c0,0.4-0.2,0.7-0.6,0.7c-0.4,0-0.6-0.3-0.6-0.7C88.3,65.5,88.3,65,88.3,64.3z"/>
		<path class="st0" d="M17.5,64.4c0,0.6,0,1.2,0,1.8c0,0.4-0.2,0.7-0.6,0.7c-0.4,0-0.6-0.3-0.6-0.7c0-1.2,0-2.4,0-3.6
			c0-0.4,0.2-0.6,0.7-0.6c0.4,0,0.6,0.2,0.6,0.6C17.5,63.1,17.5,63.8,17.5,64.4z"/>
		<path class="st0" d="M89.6,79.5c0,0.6,0,1.2,0,1.8c0,0.4-0.2,0.7-0.6,0.7c-0.4,0-0.7-0.3-0.7-0.7c0-1.2,0-2.4,0-3.5
			c0-0.5,0.2-0.7,0.6-0.7c0.4,0,0.6,0.2,0.6,0.7C89.6,78.3,89.6,78.9,89.6,79.5z"/>
		<path class="st0" d="M17.5,87c0,0.6,0,1.2,0,1.8c0,0.4-0.2,0.7-0.6,0.7c-0.4,0-0.6-0.3-0.6-0.7c0-1.2,0-2.5,0-3.7
			c0-0.4,0.2-0.5,0.6-0.5s0.6,0.2,0.6,0.6c0,0.3,0,0.6,0,0.9C17.5,86.4,17.5,86.7,17.5,87z"/>
		<path class="st0" d="M93.8,61.7c-0.6,0-1.1,0-1.7,0c-0.4,0-0.6-0.2-0.7-0.6c0-0.4,0.2-0.7,0.6-0.7c1.2,0,2.3,0,3.5,0
			c0.4,0,0.6,0.3,0.6,0.6s-0.3,0.6-0.7,0.6C95,61.7,94.4,61.7,93.8,61.7z"/>
		<path class="st0" d="M93.9,81.4c-0.6,0-1.2,0-1.7,0c-0.4,0-0.6-0.2-0.6-0.6c0-0.4,0.2-0.6,0.6-0.7c1.2,0,2.4,0,3.5,0
			c0.4,0,0.6,0.3,0.6,0.6s-0.3,0.6-0.7,0.6C95,81.4,94.5,81.4,93.9,81.4L93.9,81.4z"/>
		<path class="st0" d="M93.9,66.4c0.6,0,1.1,0,1.7,0c0.4,0,0.7,0.3,0.7,0.6c0,0.3-0.3,0.6-0.7,0.6c-1.1,0-2.2,0-3.3,0
			c-0.4,0-0.7-0.2-0.7-0.6s0.2-0.6,0.7-0.6C92.8,66.4,93.3,66.4,93.9,66.4L93.9,66.4z"/>
		<path class="st0" d="M93.9,71.6c-0.6,0-1.1,0-1.7,0c-0.4,0-0.7-0.2-0.7-0.6c0-0.4,0.2-0.6,0.7-0.6c1.2,0,2.3,0,3.4,0
			c0.4,0,0.7,0.3,0.7,0.6c0,0.4-0.3,0.6-0.7,0.6C95,71.6,94.4,71.6,93.9,71.6z"/>
		<path class="st0" d="M93.9,65.7c-0.6,0-1.1,0-1.7,0c-0.4,0-0.7-0.2-0.7-0.6c0-0.4,0.2-0.6,0.7-0.6c1.1,0,2.2,0,3.4,0
			c0.4,0,0.7,0.3,0.7,0.6c0,0.4-0.3,0.6-0.7,0.6C95,65.7,94.4,65.7,93.9,65.7L93.9,65.7z"/>
		<path class="st0" d="M93.9,75.5c-0.6,0-1.1,0-1.7,0c-0.4,0-0.7-0.2-0.7-0.6c0-0.4,0.2-0.6,0.6-0.6c1.2,0,2.3,0,3.5,0
			c0.4,0,0.7,0.3,0.7,0.6c0,0.4-0.3,0.6-0.7,0.6C95,75.5,94.4,75.5,93.9,75.5L93.9,75.5z"/>
		<path class="st0" d="M93.9,77.5c-0.6,0-1.1,0-1.7,0c-0.4,0-0.7-0.2-0.7-0.6s0.2-0.6,0.7-0.6c1.1,0,2.2,0,3.4,0
			c0.4,0,0.7,0.3,0.7,0.6c0,0.3-0.3,0.6-0.7,0.6C95,77.5,94.4,77.5,93.9,77.5L93.9,77.5z"/>
		<path class="st0" d="M93.8,63.7c-0.6,0-1.1,0-1.7,0c-0.4,0-0.6-0.2-0.6-0.6c0-0.4,0.2-0.7,0.6-0.7c1.2,0,2.3,0,3.5,0
			c0.4,0,0.7,0.3,0.7,0.6c0,0.3-0.3,0.6-0.7,0.6C95,63.7,94.4,63.7,93.8,63.7z"/>
		<path class="st0" d="M93.9,69.6c-0.6,0-1.1,0-1.7,0c-0.4,0-0.7-0.2-0.7-0.6s0.2-0.6,0.7-0.6c1.1,0,2.2,0,3.3,0
			c0.4,0,0.7,0.2,0.7,0.6s-0.3,0.6-0.7,0.6C95,69.6,94.4,69.6,93.9,69.6L93.9,69.6z"/>
		<path class="st0" d="M93.8,73.5c-0.6,0-1.1,0-1.7,0c-0.4,0-0.6-0.2-0.6-0.6c0-0.4,0.2-0.6,0.6-0.6c1.2,0,2.3,0,3.5,0
			c0.4,0,0.7,0.3,0.7,0.6s-0.3,0.6-0.7,0.6C95,73.5,94.4,73.5,93.8,73.5z"/>
		<path class="st0" d="M93.9,79.4c-0.6,0-1.1,0-1.7,0c-0.5,0-0.7-0.2-0.7-0.7c0-0.4,0.3-0.6,0.7-0.6c1.1,0,2.2,0,3.3,0
			c0.3,0,0.6,0.1,0.6,0.4c0,0.2,0,0.4-0.2,0.6c-0.1,0.1-0.3,0.1-0.5,0.2C95,79.4,94.4,79.4,93.9,79.4L93.9,79.4z"/>
		<path class="st0" d="M93.9,83.3c-0.6,0-1.2,0-1.7,0c-0.4,0-0.7-0.2-0.7-0.6c0-0.4,0.2-0.6,0.7-0.6c1.1,0,2.2,0,3.4,0
			c0.4,0,0.7,0.3,0.7,0.6s-0.3,0.6-0.7,0.6C95,83.3,94.5,83.3,93.9,83.3z"/>
	</g>
</g>
<circle class="st0" cx="52.6" cy="72.9" r="16"/>
<circle class="st1" cx="52.6" cy="72.9" r="14.7"/>
<g>
	<path class="st0" d="M52.6,81.4c-1.4,0-2.5-0.3-3.4-1c-0.9-0.7-1.3-1.7-1.3-3.1v-2.7h3.7v1.5c0,0.3,0,0.6,0.1,0.9s0.1,0.5,0.3,0.7
		s0.4,0.3,0.6,0.3c0.4,0,0.6-0.1,0.8-0.4s0.2-0.6,0.2-1v-3.5c0-0.3,0-0.6-0.1-0.9c0-0.3-0.1-0.5-0.2-0.7c-0.1-0.2-0.3-0.3-0.6-0.3
		c-0.7,0-1,0.5-1,1.5h-3.3v-9.5h8.6v3.4h-5.1v2.5c0.2-0.2,0.4-0.4,0.7-0.6c0.3-0.2,0.7-0.2,1.1-0.2c0.8,0,1.5,0.2,2,0.5
		c0.5,0.3,0.9,0.7,1.2,1.3s0.5,1.2,0.6,1.9c0.1,0.7,0.2,1.5,0.2,2.4c0,1.1-0.1,2.1-0.2,2.9c-0.1,0.9-0.3,1.6-0.7,2.2
		c-0.3,0.6-0.8,1.1-1.4,1.4C54.5,81.2,53.7,81.4,52.6,81.4z"/>
</g>
</svg>
