<?xml version="1.0" encoding="utf-8"?>
<!-- Generator: Adobe Illustrator 25.0.0, SVG Export Plug-In . SVG Version: 6.00 Build 0)  -->
<svg version="1.1" id="Capa_1" xmlns="http://www.w3.org/2000/svg" xmlns:xlink="http://www.w3.org/1999/xlink" x="0px" y="0px"
	 viewBox="0 0 600 592" style="enable-background:new 0 0 600 592;" xml:space="preserve">
<style type="text/css">
	.st0{fill:#D9EDDD;}
</style>
<g>
	<path class="st0" d="M134,45.1c3,4,7.6,6.1,11.3,9.4c1.4,1.2,2.3-0.6,3.3-1.4c5.6-4.7,11.5-4.3,16.1,1.1c1.7,1.8,3.7,3.3,5.9,4.5
		c1,0.6,2.4,0.5,3.3-0.2c0.8-0.5,1.1-1.6,0.6-2.4c0-0.1-0.1-0.1-0.1-0.2c-1.3-2.2-1.6-4,1.4-5.1c2.6-1,5.2-1.3,7.4,1
		c5.3,5.7,2.7,14.9-4.8,17.3c-5.9,1.9-11.4,0.9-17-1.1c-1.1-0.4-2.4-0.3-3.4,0.2c4.2,5,8.2,10.2,12.8,14.7c2.7,2.6,7.5,0.7,10.6,3.3
		c0.5-0.6,1-1.2,1.5-1.9c5.1-8.2,13.2-10.6,22.3-6.7c3.2,1.4,6.2,3.2,9.4,4.6c5.3,2.3,11.8-0.6,12.3-5.3c0.2-2,0.2-3.7-2.8-3
		c-1.8,0.3-3.7,0.3-5.5,0.1c-2.3,0-4.2-1.6-4.5-3.9c-0.4-2.4-0.6-4.8,2.3-6.4c10.5-5.7,20.8,2.4,22.4,11.6
		c3.1,17.4-11.6,30.6-26.4,29.8c-7.5-0.3-14.9-1.7-22.1-4c0.1,3.2,2.4,3.9,4.1,4.8c9,4.9,18.9,8.1,29.1,9.3c6,0.8,11.4,0.4,16.7-2.4
		c1-0.5,2-1.2,2.8-2c1.9-2.1,2.7-6.1,7.4-2.5c1.9,1.5,5.4-2.3,7.2-4.9c1.2-1.7,2-4.7,4.7-2.8c2.1,1.5,4.5,3.8,3.1,7.1
		c-0.9,2.1-1.6,4.4-4,5.6c-0.7,0.3-1.5,1-1,2s1.4,0.7,2.2,0.8c3.4,0.2,8.3-4.2,9.2-8.6c1.1-4.5,1.4-9.2,0.9-13.8
		c-0.2-2.1,0.3-2.5,2.3-2.6c7.1-0.5,11.8,3.7,11.9,10.8c0,3.1-0.2,6.1-0.6,9.2c8.8-9.5,19.3-10.4,32-7.9c-7.6,4-13.1,8.6-15.4,15.9
		l0,0c-1.7,0.2-3.1,0.9-2.8,2.7s2.4,1.9,3.7,2c5.9,0.6,10.6,3.8,15.2,7.1c5.9,4.2,6.8,12.9,2.1,17.5c-2.6,2.5-5.7,3.8-9,2
		c-3.5-1.9-3.9-5.1-2-8.6c1.5-2.8-0.4-3.9-2.5-4.7c-4.4-1.6-9.2-1.8-13.8-0.6c-4.8,1.2-9.8,1.7-14.8,1.6c-2.5-1-4.1,3.2-7.2,0.7
		c-2.3-1.9-4.3-3.4-3.8-6.7c9.7,0.3,19.2-1.7,29-1.5c-5.6-1.9-11.3-2.4-17-2.6c-0.4-1.7,2.2-1.8,1.4-3c-1-1.7-2.4-0.2-3.5,0.1
		c-11.8,3.8-23.5,3-36,0.6c2.5-3.1,6.4-3.3,9.5-6.8c-8.7,1.9-15.8,4.6-23.3,2.4c-1.4-0.6-3.1-0.2-4.1,0.9c-2.2,0.1-4.4,0.2-5,3h-2
		c-4.4-1-8.8-0.3-13,1.1c-1.8-1.2-3.8-2.5-4-4.8c-0.4-4.8-4-6.8-7.4-9.2c-7.9-5.4-13.8-12.9-20.6-21.4c0,4.2-0.1,7.2,0,10.1
		c0.4,11.7-9.8,19.7-22.2,18.2c-2.1-0.3-2.5-1.2-2.2-3.4c1-7,4.2-13.4,9-18.5c1.5-1.6,3.1-3,4.5-4.7c3.1-3.7,3.6-7.6,0.7-11.8
		c-9.2-13-19.9-24.5-34-32.1s-29.4-11.5-45.6-8.5c-0.6,0.2-1.1,0.5-1.7,0.8c12,0.6,22.8,3.5,32.7,9.3c6.2,3.7,11.2,9,14.5,15.4
		c2,3.7,4.4,7.1,7.2,10.1c3.6,3.9,7.3,4.9,11.8,1.7c0.6-0.3,1.2-0.5,1.8-0.6c0,8.5-3.8,12.3-11.9,11.2c-3-0.4-3.5,0.1-3.8,3
		c-0.9,7.7-5.2,13.3-12.7,15.6c-7,2.1-13.4,0.8-18.5-5.1c-3-3.4-3.1-6.3,0.1-9.5c3.5-3.7,8.5-5,11.5-2.9c2.5,1.8,2.4,5-0.4,7
		c-0.8,0.6-2.6,0.5-1.9,2.2c0.5,1.3,1.8,1.8,3.2,2c7.5,1.2,13.8-3.8,14.9-11.9c0.7-5.8-0.6-11.1-5.4-16.6c0.5,5.6,1.1,10.2-2.2,14.3
		c-2,2.5-3.3,2.2-5.1,0.4c-4.6-4.6-6.5-10.5-4.9-16.5c1.9-7.1-1.2-11.1-6.2-14.7c-0.6-1.4-1.8-1.8-3-2.5c-6.3-3.5-13.3-3.7-20.1-4.7
		c-18.3-3.2-35,0.7-50.6,10c-1.8,1.1-5.4,2.3-3.9,4.8c1.8,2.9,4.3,0,6.3-1.2c16.3-9.5,31.9-10.3,48.5,1.9c4,2.9,8.1,6.4,13.6,6.5
		c-1.1,3.8-4.5,4.9-7.7,5.9c-1.6,0.5-3.2,0.7-4.3,2c-8,0.1-16.1,2.5-23.8-2c-3-1.7-6.5-2.7-9.4-4.4c-16-9.4-33.5,1.6-42,13
		c-0.6,0.8-2.2,1.7-1,2.9s2.3,0,3-0.8c2.2-2.8,5.5-4.3,8.4-6.2c10.6-6.9,30.1-8.7,40.2,0.7c2.9,2.6,6.3,3.4,9.9,3.8
		c2.7,0.3,5.3,0.9,7.9,1.4c-0.3,3.1-5,2.2-4.3,4.2c1,2.4,4.5,2,7,2.4c0.1,2.4,2.4,3.4,3.5,5.1c2.8,4.1,3,9.5,0.5,13.9
		c-0.7,0.4-1.4,0.9-2,1.5c-3,3.7-5.5,3-7.8-0.7c-3.4-5.6-9.8-6.6-14.9-9.4c-1.7-0.9-2.9-0.2-3.4,2.1c-1.1,4.8-4.3,6-8.5,3.5
		c-3.8-2.1-6.9-5.3-9-9.1c-1.2-2.4-3.2-4.3-5.6-5.4c-8.4-3.8-16.7-3-25,0.6c-2.7,1.2-4.4,4.2-7.8,4c0-31.6,0.1-63.4,0-95.1
		C0,1,0.4,0,3.7,0C18.1,0.2,32.6,0.1,47,0.1c1.7,6.1,0.8,11.6-3.8,16.5c11.5,2,16.9,7.5,12.2,16.8c-2.4-3.7-4.6-7.7-9.4-8.2
		c-6.7-0.7-13.4-0.3-19,4c-6,4.5-10.4,10-11,18c3.1-2.9,5.8-5.9,9-8.3c2.9-2.1,6.4-4.8,9.7-1c3,3.4,1,6.4-1.8,9
		c-0.1,0.1,0,0.5,0.1,1c0.5,0,1,0.1,1.4-0.1C53.6,35.5,75.1,33.6,97.1,34c9.9,0.2,19.6,2.7,28.4,7.2C128.3,42.6,130.6,45.1,134,45.1
		z M282,116.1c0.7-0.1,1.6-0.1,1.5-1.2c0-0.1-0.2-0.3-0.3-0.3C282.1,114.5,282.2,115.4,282,116.1l-0.2,0.4L282,116.1z M22.7,84.7
		v1.4c3.4,0,6.8,0,10.1,0c2.9,0,5,0.6,5.4,4.3c0.3,3.4,2.2,6.4,5.1,8.2c1.6,1,4.1,2,3.6-1.8c-0.4-3.2,0.5-4.4,4-3.8
		c1.9,0.3,4.9,1.2,5.5-1.7c0.5-2.6-1.7-3.9-4.2-4.7c-0.9-0.3-2.7-0.8-1.3-2.4c3.6-4.2-0.5-3.2-2.2-3.1c-5.8,0.6-11.5,2.7-17.5,1.9
		C28.4,82.9,25.4,83.4,22.7,84.7z M77.4,70.2c-5.8-4.8-16-7-26.2-5.6C61.3,70.7,70,72.5,77.4,70.2z M192.1,90.8
		c9.4,7,22.1,7.4,29.5,0.9c-3.1,0.7-5.4,1.4-7.8,1.9c-2.6,0.6-5.9,1.4-7.6-0.3c-2.8-2.8-5.8-2.1-8.9-2.2
		C195.7,91,194.3,90.9,192.1,90.8z M166.4,97.7c-2.8,3.9-6.4,5.9-8,9.7c-0.4,1-0.6,2,0.1,2.8c0.9,1,1.8,0.1,2.7-0.3
		C166.1,108,167.5,105.1,166.4,97.7z M253.3,116.7c0-0.1,0-0.3-0.1-0.3c-0.1-0.1-0.2-0.1-0.4-0.1l0.1,0.5L253.3,116.7z M156.8,66.3
		c0-0.1-0.1-0.3-0.1-0.4c0,0-0.2,0.1-0.4,0.1c0,0.2,0.1,0.3,0.1,0.4C156.4,66.4,156.7,66.3,156.8,66.3z"/>
	<path class="st0" d="M77.1,368.9c-11.6-10.9-18.6-24.4-22.7-39.6c-0.5-1.7-0.9-3.5-1.2-5.3c-0.3-2.2-1.2-3-3.7-2.8
		c-7.2,0.9-12.1-3.4-12.3-10.5c-0.1-3.6-0.8-6.9-4.4-8.8c-1.7-0.9-2.5-0.8-2.6,1.2c0,2.4-1,3.8-3.5,3.8c-2.6,0-4.8-1.9-5.3-4.4
		c-1-3.9,0.5-7.4,3.4-9.9c2.4-2.4,6-3.1,9.2-1.9c6.1,1.9,11.2,6.1,14.1,11.8c0.8,1.5,1.1,3.4,2.9,4.6c1.2-7.6-0.8-15-1-22.4
		c-0.1-3.8-4.8-5.7-6.4-9.2c-0.4-0.7-1.5,0.1-2.2,0.4c-9.5,2.9-16.9-0.1-21.8-9.1c-1-1.9-2.1-3.8-3.2-5.6c-4.2-7.5-7-10.7-16.1-6.2
		v-17c24.6-9.1,37,5.9,47.6,24.4c-2.2-14.9-9.7-26.5-20.1-36.4c-5-4.7-10.4-8.9-17.9-8c-2.9,0.4-6.8,3.2-7.6-2.7
		c0-0.2-1.2-0.2-1.9-0.3v-24c8.7,2.9,13.1,10.7,19.6,16.3c-4.8-1.7-10.1-1.8-15-0.2c11.2,0.8,19.3,6.9,26.7,14.6
		c-0.4-5.2-3-9.1-5.2-13.2c-2.9-5.3-8.3-8.2-11.4-13.5s-3.9-10.8-5.8-16.4c-1.7,3.8-0.6,7.8-0.2,11.8c-3.5-1.5-5.4-4.6-8.7-5.4v-14
		c2.6-0.7,3.8-3.4,6.5-4.1c5.2-1.4,6.1-1.1,7.6,4.1c0.5,2.3,1.7,4.4,3.4,6c4.6,4.1,8.7,8.6,10.7,14.4c2.5-0.5,5.8-6,6.5,0.4
		c1,8.3,3,16.6,2.3,25.1c-0.2,2.4,0.8,4.4,2.3,7.1c1-5.1,4-7.1,8.1-8.4c3.7-1.1,1,1.6,1.7,2.3c0.3,2-0.8,4.2,1,6
		c0.6,4.6,1.3,9.2,0.9,13.9c-0.7,1-1.3,2-2,3.1c-1.2,1-1.2,2,0,3c4.6,10.6,4.3,22,4,33.9c3.7-1.8,3.8-5.4,5.9-7.6
		c10.1-10.9,19.4-9.9,29.4-1.4c1.5,1.3,2,2.5,0,4c-6.5,5-13.2,9.1-21.9,9.3c-7.3,0.1-11.1,4.4-11.4,11.8
		c-0.7,19.8,2.7,38.7,13.4,55.6c4.8,7.8,11.3,14.3,19.1,19.1c0.8,0.3,1.6,0.4,2.4,0.4c0.2,2.1,1.2,3.4,4,3.7c-1-2.3-2-3.5-4-3.7
		c0-1.5-0.9-2.4-2-3.3c-9.3-8.5-14.4-19.2-15.9-31.6c-0.6-4.8,0.9-9.5,1.5-14.3c0.6-5.1,1-10-3.2-13.9c-0.8-1-2-1.7-3.2-1.9
		c-1.2-0.1-3.1,0.7-3.5-1s1.4-2.5,2.5-3.4c4.7-3.5,8.2-3.4,13.2,1.5c2.2,2.2,3.3,1.9,5.2,0c9.2-8.7,26.2-8.2,31.2,9.2
		c1.2,4.2-0.9,8.5-4.9,9.6c-4.4,1.2-10.3-1.2-11.5-4.7c-1.2-3.6,1.6-5.6,7-4.7c-1-7.4-7.1-10.7-14.5-7.8s-13,9.6-11.3,20.3
		c1.4-5.4,4.8-7.9,8.6-10s5.6-0.9,6,3.3c0.6,5.9-2.3,10.7-5.9,14.9c-7,8.2-8,14.2-1.8,23c6,8.7,13.9,15.4,22.3,21.7
		c10.3,7.8,21.9,11.5,34.3,13.5c0.3,0,0.6,0.3,0.9,0.3c2.4,0.2,6,0.9,6.4-1.9c0.3-2.5-3.4-2.7-5.5-2.8c-8.8-0.5-17-3.1-24-8.4
		c-6.3-4.7-10.9-11.3-12.9-18.9c-1.6-6.6-4.4-12.8-8.3-18.4c5-1.1,9.4,0.8,13.5,2.3c10.2,3.7,17.6,10.3,21.3,21.2
		c4.5,13.4,16.3,21,30.5,21.1c5.3,0,10.6,0.4,16.4-3.8c-6-0.6-11.2-0.2-16.2-1.1c-14.3-2.7-24.6-9.9-29.2-24.3
		c-2.1-6.6-6-12.2-12.3-15.6c0.2-0.4,0.3-0.9,0.5-0.9c4.8,0,6.4-0.9,3.9-6.4c-3.4-7.4,1.7-18.2,11.6-17.1c2.4,0.3,3.8,0.8,3.5,3.5
		c-0.5,5.3,2.1,9.6,4.2,14.1c1.6,3.3,2.7,6.6,7.8,3.3c3.9-2.6,6.1,1.3,7.4,4.3c1.8,4,2.2,8.4,1.1,12.7c-0.5,1.6-0.4,3.3,0.2,4.8
		c4.6,11.1,17.3,20.5,31.2,16.5c-2.1-2.3-4.9-3-7.2-4.2c-4.2-2-8.1-4.7-11.3-8c-2.8-2.9-4.4-6.7-4.4-10.7c0-5.6,0.7-11.3-0.8-16.9
		c-2-7.5-5.4-8.8-11.4-4.2c-1.7,1.3-2.4-0.3-3.1-1.2c-2.9-3.6-1.8-10.1,2.1-12.9c3.3-2.4,10.7-1,13,2.7c1.1,1.8,2,3.8,3.2,6
		c3.9-3.5,6.6-8.7,12.7-7.5c3.7,0.6,6.8,2.9,8.5,6.3c-5.1,0-9.9,0.2-12.8,4.1c-3.4,4.5-5.3,10-5.4,15.7c-0.3,8.1,1.9,15,9.2,21
		c-0.9-4.2-1.6-7.5-2.4-10.7c-0.1-0.6-0.4-1.3-0.5-1.9c-0.5-4.3,1.9-8.5,5-8.5c3.6,0,5.6,2.9,6,7.6c0.3,4-1.6,7.4-2.6,11
		c-1.3,4.4,1.5,7.1,3.8,9.6s5.1,1.8,8.2,0.2c4.5-2.4,8.6-5.7,12-9.5c4.4-4.8,10.2-5.9,16.1-6.9c0.6-0.1,1.3,0.1,1.8,0.5
		c0.6,0.8,0,1.5-0.6,2.1c-3.3,3.4-3.9,7.5-3.8,12c0.1,6.1-2.6,9.4-8.3,11.5c-2.6,1-3.4-0.2-3.6-2.4c-0.4-5.2-0.4-10.4,4.5-14
		c1.3-0.7,2.1-2.1,2-3.5c-7.3,0.8-9.2,6.7-11.1,11.9c-2.5,6.7-4.5,13.5-11.5,17.2c-4,2.1-4.7,1.9-5-2.5c-0.3-4.2-2.4-5.4-6.3-3
		c-8.4,5.2-17.4,9.3-27.2,10.2c-18.1,1.8-36.2,2.6-53.3-5.6C100.7,384,90,378,80.4,370C78.9,369.6,78,369.2,77.1,368.9z M37.1,264
		l0.4,0.2L37.1,264C35.2,253.6,22,243.4,13,246.3c6.6,1.4,12,3.7,15.5,9.1c-1,1.2-2.6-0.1-3.3,1.4c1.3,0.3,2.5,1,3.7,1.3
		C32.4,259.1,33.2,263.6,37.1,264z M166.7,373.6c-1.5-2.2-3.2-4.3-5-6.3c-2.7-2.6-4.4-4.8-2.2-8.9c1.1-2.1,0.6-5.2,0.4-7.8
		c-0.2-2-2.3-3.9-3.5-1.5c-2.2,4.3-3.8,3.1-6.3,0.6c-1.2-1.2-3.2-2.5-4.9-1.3c-2.1,1.4-0.4,3.2,0.1,4.9c0.4,1.1,2.1,2.7,0.7,3.4
		c-5.5,2.7-0.3,3.9,0.8,4.9c2.5,2.3,6.6,2.2,8.8,5.3C158.4,370.8,163,371.9,166.7,373.6z M117.1,352.9c0.1,6.3,8.3,16.4,15,18.3
		C129.4,363,125.2,356.5,117.1,352.9L117.1,352.9z M66.3,275c2.5-1.1,5.9-0.4,8.6-2.5c0.9-0.7,2.6-1.5,0.8-3
		c-2.4-1.9-10.2-0.1-11.6,2.6C62.9,274.2,63.5,275.1,66.3,275z M197.4,381.7c-0.1,0.1-0.1,0.3-0.1,0.4c0,0,0.2,0.1,0.3,0.1
		c0.1-0.1,0.1-0.3,0.1-0.4C197.8,381.8,197.5,381.8,197.4,381.7z"/>
	<path class="st0" d="M0.1,521.9c7.2,0,7.2,0,8,7.3c0.4,3.3,3,5,4.9,2.9c4.2-4.7,10.2-6.9,14.7-11.2c3-3,5.6-5.8,4.1-10.3
		c-0.7-2.1-0.2-3.4,2-3.5s4.1,0.5,4.3,3.1c0.1,2.3,0,4.6,0,7.1c5.4-1.4,8.4-6.5,13.9-6.9c2.1-0.2,4.3-0.7,5.4,1.1
		c1,1.6-0.3,3.4-1.3,5c-0.8,1.3-3.2,2.9-1,4c2.7,1.3,6,2.8,9,0.7c1.5-0.9,2-2.8,1.2-4.3c-0.2-0.4-0.5-0.7-0.8-0.9
		c-2.9-2.7-2.4-5.2,0.4-7c2.6-2,6.4-1.7,8.6,0.8c3.1,3.1,3.7,9.9,1.2,14c-2.2,3.6-5,6.7-8.4,9.1c-1,0.8-2.9,1.5-1.1,2.9
		c3.8,3.1,1.1,5.4-0.9,7.4c-1.8,1.9-4.1,3.4-6.6,4.3c-3.5,1-6.4,1.5-4.7,6.4c0.7,2-1.6,2.2-3.1,2.1c-3.2-0.2-6.3,0.6-9.1,2.1
		c-3,1.5-6.1,1-9.2,0.2c-10.3-2.3-19.2,6.9-16.4,17.8c1.4-4.1,4.8-5.9,6.8-8.8c1.2-1.6,3-2.7,5-3.1c2.2-0.5,5.1-1.3,6.6,0.5
		c1.7,2.1-0.3,4.4-1.9,6.1c-1.1,1.2-1.7,2.9-1.6,4.6c0,2.2-0.3,4.9,2.6,5.1s2.3-2.8,2.3-4.6c0-3.9,2.6-5.7,5.7-6.7
		c3-1.2,6.1-1.6,9.3-1.4c3.3,0.4,5.5-0.2,5.1-4.4c-0.3-2.8,1.9-2.9,3.7-2.4c2.9,0.8,5.8,2,7.9,4.1c2.3,2.4,4.2,4.6,8,5.1
		c3.3,0.4,4.5,9.4,2.5,14.5c-1,2.4-3.5,4.2-3.1,7.2h-7c0-1.7,0-3.3,0-4.9c0-5.7-1.9-7.8-8-9c-0.1-1-0.4-1.9-1.6-1.8
		c-0.2,0-0.6,0.4-0.6,0.5c0.3,1.2,1.3,1.2,2.2,1.3c3.1,4.2,5.8,8.5,5,14c-20.2,0-40.5-0.1-60.8,0.1c-2.8,0-3.3-0.6-3.3-3.3
		C0.1,566.4,0.1,544.2,0.1,521.9z M27.1,536.2c-0.1,6.8,5,11.4,11.3,10.7c1.3-0.1,3.3-0.2,1.8-2.1c-2.9-3.6-2-6.2,1.3-8.8
		c0.6-0.5,1.1-1.2,1.1-2c-0.2-1.3-1.5-1.1-2.4-1c-3.7,0.4-6.5-0.1-6.6-4.7c0-1-1.3-1.9-2.6-2.1c-0.8-0.2-1.5,0.3-1.7,1.1
		c0,0.1,0,0.2,0,0.3C28.8,530.6,26.3,533.2,27.1,536.2L27.1,536.2z"/>
	<path class="st0" d="M517.9,591.9c-0.2-0.8-0.4-1.6-0.7-2.4c-2.2-5.2-1.9-5.6,3.6-4.8c2.4,0.3,4.6-0.6,6.8-1.3
		c4.6-1.5,9.1-3.1,14.1-2.5c2.3,0.3,3.1-0.9,3.3-3.2c0.7-8.6,5.2-11.3,13.2-8.2c1.5,0.5,3,4,4.8,1s4.4-6,1.9-10.1s-6-7-9-10.6
		c-3.8-4.5-2.1-10.3-4.7-14.9c-0.7-1.3,0.9-1.8,2.1-2c3.3-0.4,3.8-2.6,3.6-5.4c-0.3-2.5,0.1-5,1.3-7.2c2.4-4.3,4.7-4.5,7.7-0.3
		c1.3,1.9,2.2,4.1,2.6,6.4c0.5,2.7,1.2,4.3,4.5,2.8c3.5-1.6,4.4-0.6,3.4,3.2c-1,3.9-0.2,8,2.1,11.3c2.1,3.3,3.9,1.9,6,0
		c5.2-4.6,8.2-10.7,11.6-16.5c1.5-2.6,1-5.5,0.3-8.2c-0.7-3.1-0.7-5.8,3.5-6c0,25.3,0,50.7,0.1,76c0,2.5-0.6,3.1-3.1,3.1
		C570.6,591.9,544.3,591.9,517.9,591.9z M567.4,554.1c0.8-3.5,1.1-6.5,2.2-9.2c1.4-3.4-1.7-4.3-3-6.1c-0.7-1-2.7-1.1-2.9,0
		c-0.5,2.3-3.6,3.7-1.9,6.7C563.2,548.1,564.2,551.2,567.4,554.1z"/>
	<path class="st0" d="M599.9,78.1c-2.6,0.1-3.1,2.2-3.8,4s-0.8,3.8-3.1,6c0.3-7.3-2.1-13.2-3.9-19.4c2.3-0.7,3.5,1.2,5.1,1.7
		c1-18.5-8.9-29.5-21.2-34.2c-4.9-2-10.4-1.3-14.7,1.7c-4.7,3.3-10,5.8-15.5,7.4c-3,0.8-6.9-0.9-9.4-3c-1.8-1.6,0.5-3.9,1.3-5.9
		c3.4-8.7,9.5-14.5,19.6-17.8c-4.9-1.5-10-2.3-15.1-2.3c-9.5-0.5-17.6-7-20.3-16.1c25.9,0,51.8,0.1,77.7-0.1c2.8,0,3.3,0.5,3.3,3.3
		C599.9,28.3,599.9,53.2,599.9,78.1z"/>
	<path class="st0" d="M339,0.1c1.4,8.3,2.1,16.6,1.9,25c-0.1,6.1,2.5,11.8,7.2,15.7c-7.1,0.8-12.5-2-18.1-3.7l-0.4-0.2l0.4,0.2
		c-0.2,4.1,0.6,8.3-0.8,12.4c-0.4,1.4-1,2.8-1.8,4c-2.4,3.5-5.4,7.3-9.8,6.3c-4.7-1.1-6.9-5.4-6.5-11.8c-2.4,6.2-5.6,9.7-10.7,11.7
		c-4.4,1.7-9,3.5-12.5,7.1c-2,2.1-2.8,0.4-3.5-1.2c-4.5-8.9-3.9-22.7,4.1-30.5c3.1-3,7.3-5.4,8.7-10l0.4-0.4l-0.4,0.4
		c-9.3,1.9-18.3,1.7-26.9-3.3c-3-1.8-3.1-3.1-1.5-5.8c2.7-4.5,6.7-6.7,11.5-7.8c3.7-0.8,7.4-1.4,11.2-2.1c3.7-0.6,6.9-2.8,8.7-6h11
		c0.1,1.3-0.3,2.6-1.1,3.7c-4.4,6.1-11,10.2-18.5,11.4c-1,0.2-2.4-0.2-2.5,1.6c12.1-0.4,21.4-4.8,26.1-16.6h5
		c1.1,14.5-5.6,24.9-16.6,33.5c-5.1,4-10.2,8.4-11,15.7c3.4-6,8.8-9.8,14.5-13.2c5.9-3.5,9.8-1.4,10.9,5.6c0.2,1.8,0.3,3.5,0.3,5.3
		c3-5.2,2-9.4-0.5-13.3c-1.8-2.9-1.9-5.4,0.4-8.1c2.8-3.4,4.4-7.5,4.7-11.9c0.4-4.3,2-2.9,4.4-1.6c3,1.6,3.6,5.3,6.6,7.7
		c0.1-4.1-1.7-6.8-3.4-9.3C328.2,7.3,326,4,325,0.1H339z"/>
	<path class="st0" d="M599.9,203c-9.8-4.4-16.3-1.8-23.6,9.6c-1.5,2.5-2.2,2.6-4.4,1c-6.3-4.8-6.8-11.3-1.2-17
		c2-2.1,3.9-4.4,6.8-5.9c-13.4,2.9-23.7-1.9-32.5-12.3c2.1-0.6,4.4-0.6,6.5,0c3.7,1,7.2,0.9,10.6-1.1c1.9-1,4.1-1.5,6.2-1.3
		c1.3,0,3,0.7,3.7-0.7c0.8-1.7-1.2-2.4-2.1-3.5c-4.7-6.2-8.5-12.7-8.2-20.8c0.3-7.7,7.2-12.6,13.6-9.9c2.4,1,4.4,2.6,4.3,5.5
		c0,2.7-1.1,5.1-3.9,5.8c-3.6,1-2.6,2.8-1.4,5.1c1.1,2.2,2.8,4.2,4.9,5.5c6.7,4.2,13.6,8.1,20.4,12.1v8c-6.3-2.6-11.2-7.5-18-11.2
		c1.9,5.5,6.8,6.9,10.5,11.1h-11.3c7,0.2,12.4,4.8,18.8,6.1L599.9,203z"/>
	<path class="st0" d="M382,591.9c-0.1-0.7-0.2-1.3-0.5-1.9c-1.6-3-3-5.2,2.6-5.9c4.9-0.6,8.8-6.1,8.9-10.2c0.1-5.5-2.6-9.5-7.6-11.8
		c-2.2-1-4.6-1.8-7.6-3c5.5-3.7,8.3-8.2,7.3-14.5c-0.3-1,0.2-2.1,1.1-2.5c3.7-1.6,4-4.6,0.8-7.5c-1.2-0.9-2.4-1.7-3.7-2.5
		c7.6-4.6,15.1-1.2,16.5,7.8c0.5,3.2,0.9,5.2,4.6,5.3c4,0.2,5.2,2.9,4.6,6.6l-8.5,1.5c6.3,2,12,5.6,16.4,10.5c0.6,2.3,1.4,4.5,1,6.9
		c-3,0.3-4.4,2-3.9,5.1c0,1.3,0,2.6,0,4c-0.5,2.8-2,5.2-3.5,7.6c-1.2,2.1-3,3.4-4.7,0.3c-1.1-1.9-3-2.6-4.5-1.3
		c-1.9,1.6-4.6,2.7-5.3,5.4L382,591.9z M390.4,557.1c6.9,4.7,10.1,10.1,9.9,17.7C406.1,566.6,402.1,559.1,390.4,557.1L390.4,557.1z"
		/>
	<path class="st0" d="M0.1,103.1c4.4-1.3,9-2.3,13.5-3.1c12.9-2.1,19.9,5.9,26.3,14.9c2.9,4.1,6.2,6.8,11.6,6.2
		c2.1-0.2,3.4-0.9,3.5-3.3c0.2-4,2-4.9,5.5-2.8c4.2,2.5,5.5,7.2,3.3,12.2c-1.4,3.2-6.4,5.6-10.1,4.5c-2.5-0.9-4.9-1.9-7.2-3.1
		c-0.5,4.2-0.4,8.4-2.9,12c1.9,0.7,3-0.1,3.4-1c1.7-4.4,5.5-3.9,9-4.3c1.6-0.2,3.3-0.2,3.6,1.6s-0.9,3.5-2.9,3.1
		c-3.5-0.6-5.1,0.2-5,4.1c0.1,1.6-1.7,2.8-3.5,2.9c-2.3,0.2-4.6,0.1-5.6-2.3s-1.9-2.9-4-1.5c-2.5,1.6-4.8,0.2-7.6-0.8
		c4.3-3.2,7.7-6.5,7.1-12.2c-0.4-4.9-2.1-9.7-4.9-13.8c-4.5-6.8-10.1-11-19.6-11.2c3.4,3,6.2,5.2,8.7,7.6c2,1.9,3.3,4.1,2.3,7.1
		c-1.4,4.1-5.1,5.3-8.5,2.7c-2.4-1.9-3.2-4.5-4.2-7.2c-2-5.7-4.4-11-11.9-10.4L0.1,103.1z"/>
	<path class="st0" d="M306,567.9c-1.2-4.5-3.5-8.5-5.8-12.6c-2.8-5.1-2.7-5.1-6.6-0.3c-2.9-5.9-4.9-12-8.7-17.1l0,0
		c7.5,1.3,13,6.3,18.8,10.6c10.2,7.5,19.6,15.8,26.5,26.5c3.3,5.2,7.3,10.3,7.6,16.9h-13c-2.1-9.2-5.6-17.8-11.6-25.2
		c0.3,4.3,1.2,8.4,1.5,12.6s-1,8.5-1.9,12.7h-11c2.5-6.8,5.6-13.4,4.9-21C307,569.8,307.2,568.7,306,567.9z"/>
	<path class="st0" d="M599.9,396c-11.8-0.4-20,4.9-24,16.1c-0.8,2.2-1.9,1.8-3.4,1.1c-4-1.7-6-8.5-3.9-13.6c1-2.4,2.5-4.6,3.8-7
		c-4.7-2.1-7.4-6.3-10.5-10.2c-0.9-1.1-1-2.1,0.2-3c3-2.1,5.8-4.9,9.1-5.9c3.8-1.2,3.8-2.4,2.3-5.5c-3.2-6.5-2.2-10.9,3.2-15.5
		c1.2-1,2.3-2,4-1.4s1,2.2,1.2,3.5c0.9,9,9.5,17.2,18,17.2v5c-7.2-0.3-14.4-0.8-21.6-1c-4-0.1-7.2,1.7-8.3,5.7
		c-0.8,2.8,3.1,7.5,6.8,8c7.6,1,15.3,2.5,23,1.3L599.9,396z"/>
	<path class="st0" d="M599.9,105.1c-6.8,0.9-6.6,7.1-7.7,11.4c-1.8,7.1-1.6,14.6-7.1,20.5c-1.5,1.6-2.6,3.4-5.1,3.1l0,0
		c1.1-5.6-1.5-10.3-4.9-14.1c-4-4.4-2.6-8.4-0.7-12.7c1.1-2.5,2.6-2.7,4.5-0.8c3.7,3.7,7.4,7.3,5.2,13.3c-0.5,1.6-0.1,3.5-0.1,6
		c4.8-6.3,4.6-12.2,2.1-18.4s-3.6-12.3-1.8-18.8c0.5-1.7,0.5-4.4,3.2-4.4c2.2,0,3.3,1.9,4.3,3.7c0.5,1.1,1,2.3,1.4,3.5
		c3.7-3.2,2.1-9.2,6.8-11.4L599.9,105.1z"/>
	<path class="st0" d="M82.1,0.1c0.7,4-3.6,6-4,9s4.1,5.3,4.1,9.2c0,5.1-2.6,9.4-7.3,11.2c-0.6,0.3-1.2,0.4-1.9,0.2
		c-1-0.5-0.6-1.4-0.2-2.1c1.1-2.1,1.9-4.4,0.6-6.6c-0.9-1.5-1-5.6-4.3-1.7c-1.2,1.5-2.5,0.1-3.2-1c-3.2-5-7.9-6.7-14.1-6.1
		c1.3-4.3,4.8-7.5,4.3-12L82.1,0.1L82.1,0.1z"/>
	<path class="st0" d="M101.1,0.1c0.8,3.3,3.5,1.9,5.4,1.9c8.9,0.3,13.9,6,12.7,14.6c-0.2,1.5-0.5,3-2.3,1.6c-3.8-3.1-8.2-1.8-12.5-2
		C99,15.8,92.8,17.6,90,10.5c-0.6-1.5-1.7,0-2.3,0.5c-2.4,1.6-4.6,0.9-7.4-0.6c4.7-2.3,8.8-4.6,7.9-10.3
		C88.2,0.1,101.1,0.1,101.1,0.1z"/>
	<path class="st0" d="M259,0.1c0,2.7,0.1,5.3,0,8c-0.3,8.9,6.5,16.3,14.1,18.2c0.8,0.2,1.5,0.7,2,1.4c-5.4,0.2-10.8-1.3-15.2-4.4
		c-3.7-2.5-7.8-3.6-11.9-5c-1.3-0.4-3.4,0.6-3.7-1.6c-0.2-1.9,1.5-2.8,3-3.6l2.5-1.4c-3.5-3.3-5.5-6.9-4.8-11.6
		C245,0.1,259,0.1,259,0.1z"/>
	<path class="st0" d="M0.1,373l2.8,0.9c4.9,1.6,5.6,8.8,13.3,8.2c4.8-0.4,11,2.7,16.3,5c0.8,0.5,1.6,1,2.3,1.5
		c-8.5,0.3-15.5,3.6-22.9,1c-1.8-0.6-2.4,0.6-3.3,1.5c-2.2,2.5-5.2,4.2-8.5,4.9v-7c2.1-0.5,4.8-0.9,4.7-3.5c0.1-2.8-1.9-5.2-4.7-5.5
		C0.1,380,0.1,373,0.1,373z"/>
	<path class="st0" d="M149,22.1c-7.1-1.6-12.7-5.2-14.6-12.7c-0.9-3.7-4.6-5.6-5.3-9.3h11c0,0.2,0,0.4,0.1,0.5
		C149.3,5.2,149.9,13.3,149,22.1z"/>
	<path class="st0" d="M599.9,270c-11.7-1.2-13.2-14.5-7.4-23.6c1.7-2.6,2.9-6.7,7.4-6.4V270z"/>
	<path class="st0" d="M361,0.1c-1.6,1.8-3,4.8-3.2,9.5c-0.3,6.4-6.4,8.4-9.1,13.5c-4-5.8-6.6-11.1-2.9-17.7c0.9-1.5,0.9-3.5,1.3-5.3
		L361,0.1z"/>
	<path class="st0" d="M88.1,591.9c-0.2-4,3.1-5.7,5.6-7.7s4.9-4,6.2-7c0.3-0.7,0.2-1.8,1.3-1.9s1.7,1,2,1.9
		c1.6,3.7,0.9,7.5,0.5,11.3c-0.1,1.2-0.4,2.3-0.6,3.4H88.1z"/>
	<path class="st0" d="M111.1,586c0.2,1.9,1.3,2.2,2.8,1.5c5.4-2.5,11.1-1.4,16.4-0.3s10,0,14.7-2.2c0,0.7,0,1.3,0.1,2
		c-0.9,1.5-1.2,3.3-1,5h-20c-3.8-4.2-12.3-4.2-16,0h-2C105.9,588.5,109.2,587.8,111.1,586L111.1,586z"/>
	<path class="st0" d="M347,591.9c0.1-7-2.8-12.7-7-18l0,0c3.8,0.7,7.1,2.9,9.3,6c3.4,4.9,7.6,8.5,13.4,10.1c1,0.3,1.1,1.1,1.3,1.9
		H347z"/>
	<path class="st0" d="M599.9,214c-1.6-0.1-3.3,0.2-4.8,0.8c-2.4,1-5.5,3-7-0.8c-1.7-4.1,0.8-8.1,5.1-9c2.2-0.4,4.6,0.2,6.7-1.1V214z
		"/>
	<path class="st0" d="M0.1,258c1.2,0,2,0.9,3.1,1.4c3.1,1.5,6.1,3.1,4.8,7.3c-1.2,3.8-4.2,4.7-7.8,4.3L0.1,258L0.1,258z"/>
	<path class="st0" d="M246,591.9c0.5-3.6,4.2-5.6,4.3-10.2c3,3.8,7.5,5.3,7.7,10.2H246z"/>
	<path class="st0" d="M315,591.9l2.5-6.7l1.1,0.1c0.5,2.2,0.9,4.4,1.4,6.5h-5V591.9z"/>
	<path class="st0" d="M599.9,386c-2.2-0.4-4.7,1-6.4-1.3c-0.1-0.4,0-0.9,0.2-1.2c2.2-1.3,4.1,0.4,6.1,0.5v2H599.9z"/>
	<path class="st0" d="M501.9,282.1c9.2,6.2,8,13.3,4.9,20.9c-2.1,5.3-4.7,10.5-9.8,14.6c9.7-1.4,18.1,5.3,28.4,1.2
		c-3.7,8-9.9,10.9-16.4,13.2c-6.7,2.4-13.4,0.5-20.2-0.4c2.8,1.1,5.6,2,8.2,3.4c9.4,4.7,10.6,12.3,3.4,19.9c-0.5,0.6-1,1.3-1.5,2
		c-4.8-1.6-6.4-6.4-9.8-9.5c-3.6-3.3-7.2-5.3-12-4.3c-1.7,0.4-4,0.9-3.9,3.2c0.2,2.5,2.6,1.5,4,1.5c3.5,0,6.2,1.1,7.4,4.7
		c0.7,1.9-0.1,3.7-1,5.2c-1.1,1.9-2.6,0.1-4-0.1c-4.3-0.4-9.3-3.5-11.3,3.5c-0.2,0.9-1.4,0.6-2.2,0.3c-9.4-3.2-15.6,2.5-21.4,8.3
		c-6.2,6.3-11.2,13.6-14.8,21.6c-1.6,3.6-3.4,7.4-2.7,13c4.3-7.9,8.9-14.1,14.8-19.2c14.5-12.6,33.8-7.5,40.4,6.9
		c4,8.8,0.6,17.7-8.4,21.2c-3.1,1.2-5.5,0.7-7.2-2.3s-0.8-5.5,1.6-8c1.4-1.5,7.3-0.3,3.7-5.1c-2.2-3-8-2.9-10.7,0
		c-1.1,1.3-2,2.7-2.7,4.2c-2.2,4.1-4.1,8.3-7,12c-4.8,6.3-10.2,8.2-17.9,6c-1.8-0.5-2.7-0.6-4.7,1.2c-9.5,8.4-3.5,19.1-5.8,29.1
		c3-0.9,3.1-3.2,4-4.8c4.1-7,9.4-12.1,18.1-11.7c4.9,0.4,8.5,4.6,8.2,9.5c-0.1,2-0.9,3.9-2.3,5.3c-2.7,2.9-5.4,2.7-6.3-0.9
		c-1.2-4.6-3.2-2.2-4.7-0.9c-2.2,2-2.5,4.9-2.6,7.8c-0.2,7.3-5.8,11.9-12.7,10.2c-2.7-0.7-2.1,1-2.5,2.2c-2.3,6.9-3.5,14-6,21
		c-4.2,11.4-11.5,20.1-20.4,27.7c-9,7.9-19.1,14.4-30,19.4c-10.1,4.6-21,7.3-32.1,7.9c-19.9,1.1-38.3-2.9-55.3-13.2l-0.4-0.2
		l0.4,0.2c0.4,1.4,0.7,2.9,0.8,4.3c0,1.8,1.2,4.2-1.1,5.3c-1.9,0.8-4,0.5-5.5-0.9c-4.9-3.7-8.4-8.9-10.1-14.7
		c-0.3-0.7-0.6-1.5-0.9-2.2c-1.5-7-5.4-11-11.1-11c2.3,3.9,7.3,5.9,7.1,11.1c0.1,0.3,0.1,0.7,0,1c-1,2.6,2.4,6.8-2.5,7.8
		c-2.8,0.6-8.8-5-9.4-8.3c-0.5-1.9-0.8-3.9-0.9-5.8c0.2-4.7-1.1-8.5-5.9-10.6c5.6-2.8,14.9-0.6,20.3,5.1c4.3,4.6,9.6,7.4,15,10.1
		c1.4,0.6,2.9,0.8,4.4,0.7l0,0c16.8,5.9,34.9-10,33.1-22.4c-0.4-3.1-0.4-6.3,0-9.5c0.6-6.3,5-8.9,10.4-6.1c1.9,1,2.8,0.4,3.5-1.1
		c2.6-6.2,6.7-11.9,5.5-19.2c-0.4-2.5,1.4-2.5,3.1-2.7c8.8-0.9,15.3,7.7,13.1,17.3c-1.2,5.2-1.2,5.2,3.9,6.4c-1.4,1.5-2.6,2.9-4,4.2
		c-4.6,4-6.4,9.3-8.2,14.9c-4,11.9-13.3,18.6-25.1,22.1c-5.9,1.7-12.1,2.4-18.3,2c0.4,2.8,2.7,2.2,4,2.3c12.9,1.8,25.3,1.3,34.9-9.4
		c2.4-2.5,4.3-5.5,5.5-8.8c6-18.7,20.9-27.3,35.8-27.2c-5.5,6.4-6.2,14.6-9.1,21.9c-4.2,10.6-11.3,18.6-22.6,22.3
		c-4.7,1.5-9.6,2.5-14.4,3.6c-1.3,0.3-3.5,0.3-3.2,2.3c0.3,1.7,2.2,1,3.4,1c8.4,0.3,16.1-2.5,23.5-5.9c14.7-6.7,27.1-17.5,35.8-31.1
		c2-3.1,3.2-6.6,3.6-10.3c0.6-4.9-1.4-8.4-5-11.3c-5.5-4.5-7.6-10.3-7-17.2c0.3-3.5,2.3-4.5,5.4-2.3c3.5,2.5,8.2,3.9,8.9,9.4
		c1-7.9-2.5-13.6-8.3-17.7c-4.1-2.9-8.8-3.9-13.6-0.9c-1.7,1-3.1,2.5-3.9,4.4c-0.7,1.9-0.3,3.1,2,2.5s3.8-0.3,4.4,1.9
		c0.6,2.5,0.2,4.9-2.2,6.6c-3.5,2.4-9,2.7-11.7,0c-3.5-3.4-2.7-8-1-11.6c5.7-12.8,18-15.3,29.6-6.4c2.2,1.7,2.9,2.2,5.2-0.1
		c5-5.1,11.6-5.9,15.5,1.4c-11.3,3.7-10.9,5.6-8.7,19c2.8,16.6-2,29.9-11.8,42.3c-1.6,2-3.1,4.1-5.3,7.1c4.5-1,6.5-3.5,8.9-5.6
		c15.1-13.7,22.7-31,24.8-51.1c0.8-7.6,1.2-15.1,0-22.8c-0.9-5.7-4.1-9-10.1-9.4c-7.8-0.3-15.4-3-21.7-7.8c-2.6-1.9-2.7-3.2-0.6-5.5
		c6.3-7.1,18.9-10.2,26.7-0.9c2.3,2.8,5.2,5,7.6,8.1c0-5.2,0.2-10.5-0.1-15.7c-0.2-5.2,0.7-10.3,2.7-15.1c1.1-3,1.2-5.5-0.1-8
		c-3.6-6.8,0.3-13.7-0.2-20.6c-0.1-2.3,2.7-1.7,4.4-1c2.9,1.2,4.1,4.1,6.1,6.6c0.4-11.6,3.3-22.8,3.1-34.6c2.2-0.5,4.2,1.5,6.8,1.8
		c1.7-5.4,4.9-10.2,9.3-13.9c2.4-1.8,3.9-4.6,4.1-7.7c0.2-4,3-4.5,6.1-3.6c4.4,1.1,7.9,4.5,9.2,8.9c5.6-7.1,14.3-8.5,20.3-14.3
		c1.4-1.4,2.5-3.1,3.3-4.9c0.8-1.5,0.8-2.5-0.7-3.9c-7.3-6.4-7.1-7.8,0.6-13.1h5L501.9,282.1z M384,517c0.1,0,0.2-0.1,0.4-0.2
		c0,0,0-0.2,0.1-0.3L384,517l-0.2,0.4L384,517z M309,521c0.8,0.1,1.6-0.3,2-1c1,0,1.9-0.2,2.9-0.6c6.3-4,11.5-9.6,18.6-12.5
		c0.8-0.3,1.3-1.4,2-2.1c-0.9-1.7-5.5,0.5-3.5-3.6c1.1-2.1,2.3-5.2,0.4-6.4s-4.5,1.2-6.4,2.8c-0.7,0.6-0.8,1.9-2.3,1.9
		c-0.3-0.4-0.7-0.9-1-1.5c-0.8-1.1-1.1-3.2-3.1-2.6c-1.5,0.5-2,2.2-2.3,3.7c-0.6,2.3-0.1,4.7,1.3,6.7c2.2,3.1,1.3,5.3-1.3,7.7
		c-2,1.8-4.7,3.3-5.1,6.5C310.3,519.9,309.5,520.3,309,521l-0.2,0.4L309,521z M437,407c4-2.5,7.8-5.5,12.6-6.9
		c-1.4-1.7-3.2-0.3-4-1.9c1.5-2.2,3.4-4,5.7-5.3c2.2-1.1,4.4-2.2,7.3-3.6C448.6,389.4,438.6,397.9,437,407l-0.2,0.4L437,407z
		 M461.8,319.6c0.2,12.9-5.7,21.6-13.3,29.7c-3.9,4.1-6.5,9.2-7.4,16.6c8-8.5,15.6-15,26.5-15.9c-5.4-2.2-10.2,0.5-16.2,1.5
		c11.5-12.6,22.3-24.1,39.4-26.9h-10.3c2-3.8,6.1-5.2,7.6-10.2l-25,18.7C463,328.4,465.4,324.6,461.8,319.6L461.8,319.6z
		 M345.5,518.5c6.6-5.9,12.5-11.1,15-19.5C352.7,501.6,347.3,508.5,345.5,518.5z M411.1,419.6c-2.2-5.8-7-8-11.4-6
		c-0.9,0.4-2.2,0.8-2.1,1.8c0.1,0.8,1,1.6,1.8,2.2C402.9,420.1,406.9,418.3,411.1,419.6L411.1,419.6z"/>
	<path class="st0" d="M419,223.1c1.7,0.2,2-2,4.4-2.6c-2.9,6.4-0.6,12.2-0.4,18.1c0.5,12-4.9,20.6-14.1,27.6
		c-4.1,3.2-8.6,6.3-10.1,11.9c-1,3.7-0.3,6,3.9,6c4,0,3.5,2.2,2.3,4.6c-2,3.9-5.3,6-9.8,5.2c-4-0.7-7.2-4.7-7.3-9
		c-0.1-3.5,1.2-6.4,3.7-9.6c-6.1-0.2-11.5-0.9-14.7-6.6c-2-3.6-0.2-6.7,0.6-11c2.8,6.7,7.2,10.2,13.5,9.3
		c8.4-1.2,16.1-4.3,20.7-12.2c2-3.5,4.5-7,4-12c-2.9,3.2-5.3,6.4-8.3,9c-2.5,2.2-5.3,5.1-9.2,2.1c-3.9-3-2.5-6.2-0.5-9.9
		c-3,1.7-6.2,3.3-9.1,5.2c-9.6,6.4-20.6,8.4-31.6,11c-10.3,2.5-21,3.4-31.6,2.7c-10-0.6-19.5-4-27.5-10c1.5-1,0.9-2.6,1-4
		c15.9,9.1,32.9,9.5,50.3,6.3c-1.7-1.8-3.9-1.2-5.9-1.2c-14.7-0.6-28.1-4.1-38-16.1c-1.9-2.3-3.6-4.7-5.1-7.4
		c-1.9-3.3-4.8-6.1-8.2-7.8c-4-2.1-7.3-0.2-10,2.9c-2.5-7.9,0.9-12.6,8.7-12.6c2.9,0,4.4,0.1,4.5-4c0.2-6.9,4.1-12.4,10.2-16.1
		c6.4-3.9,12.6-1.9,18.2,1.6c3.4,2.1,5.5,5.4,3.5,9.8c-1.8,4.2-6.3,6.5-10.8,5.6c-1.7-0.3-3-1.6-3.4-3.2c-0.4-1.5,0.4-3.1,1.9-3.7
		c0.9-0.4,1.7-1,2.6-1.6c-4.5-3.5-10.2-3.2-13.9,0.4c-6.8,6.7-6.2,15.1,2,24.4c-1.9-4.4-0.1-8.3,1.4-12.1c1.1-3,2.7-3.7,5.5-1.2
		c4.4,4,6.1,8.9,6.3,14.6c0.4,11.3,5.5,17.5,16.5,19.3c14.6,2.5,29.6,1.3,43.7-3.4c8.2-2.8,16.2-6.8,22.7-13
		c0.8-0.8,2.3-1.5,1.6-2.8c-0.8-1.4-2.4-0.8-3.5-0.1c-3.1,1.7-6.1,3.3-9.1,5.2c-13.8,8.6-27.6,8.3-41.2-0.2c-3.8-2.3-8-4.1-12.3-5.3
		c-3.2-0.9-3.8-1.9-1.1-3.9c5.1-3.8,10.6-6.7,17.1-7.5c8.5-1,16.4,1.2,24.2,4.3c18.8,7.6,29.5-1.2,39.3-13c1.1-1.3,2.8-2.4,2.9-5
		c-5,1.8-8.4,5.8-12.5,8.3c-11.9,7.3-23.8,9.5-36.5,2.2c-6.2-3.6-13-4.3-20.9-3.3c4.7-4.6,2-6.2-1.8-8.4c-8.2-4.8-9.3-13.2-3.2-20.2
		c2-2.2,3.6-2.9,5.9,0.2c4.1,5.4,10.6,6.9,16.8,8.8c1.2,0.4,2-0.3,2.6-1.6c2.8-6.2,8.6-7.2,13.3-2.2c1.1,1,2.1,2.1,2.9,3.3
		c4.3,8.4,12.2,8.5,19.7,8.4c7.7-0.1,14.6-3.2,19.1-9.9c0.6-0.9,2.2-1,2-2.9c-3.8,1.2-7.6,2.3-11.3,3.6c-9.8,3.3-18.3,1.6-25.2-6.4
		c-2.3-2.6-5-4.9-7.3-7.4c-3.2-3.4-7.2-2.9-11.2-2.6c-2.5,0.1-2.1,2-1.7,3.7c1.1,3.8-0.5,4.6-3.9,3.5c-4.4-1.2-7.2-5.4-6.5-9.9
		c0.4-4,4.2-7.1,8.6-7.4c3.3-0.2,6.2,0.8,9.7,1.9c-0.5-4-0.2-8,0.7-11.8l0,0l1-1l0,0l1-1l0,0c3.5-1.7,7-2.8,11.6-1.5
		c-8.6,5.9-8.1,13.8-3.9,21.4c4.9,8.8,11.7,15.6,23.9,13.9c-3.6-3.1-7.7-4.7-10.5-8c-2.4-2.8-3.3-5.8-0.6-8.4s5.8-1.8,8.3,0.9
		c2.7,3.2,4.9,6.7,6.5,10.5c2,4.5,5.8,4.1,9.7,4.3s4.8-2.9,5.5-5.4c1.6-5.1,2.4-10.4,2.6-15.8c0.2-7,3.3-12.6,9.7-17.7
		c-1.6,7.4,2.5,11.5,5.9,15.8c1.1,1.4,2.6,2.6,2.4,4.7c-0.4,3.6,1.4,8.1-3.4,10c-2.2,0.9-8.5-7-8.6-10.4c-0.1-2.8,0-5.6,0-9.1
		c-4.2,6.2-3.7,11.9-0.8,17.5s4.5,11.4,3.8,17.7c-0.3,2.5-0.2,5.5-3,6.2s-3.6-2.3-4.8-4.2c-0.4-0.7-0.6-1.6-2-1.8
		c-1.4,4-2.8,7.9-4.1,12C426.9,210.1,422.3,216.3,419,223.1c-6.6,6-11.8,13.5-20,19.6C414.6,239.9,418.6,235.7,419,223.1z
		 M376.1,211.8c9.5-3,19.2-2.6,29.5-5.7c-4-1.6-6.6-1-9.2-1c-3.4,0-6-0.2-7-4.5c-0.7-2.8-2.9-5.2-5.5-6.9c-1.7-1.1-4.4-1.2-3.6,1.6
		c1.3,4.8-1,4.9-4.4,4.8c-1.5,0-3.8,0.2-4.3,1.8c-0.6,2.1,1.4,3.3,3.1,3.9C377.9,206.9,378.1,208.8,376.1,211.8z M378.8,228.8
		c-6.8-3.4-13.7-6.6-21.6-4.7c-1.1,0.2-2.6-0.3-2.9,1.3c-0.3,1.7,1.4,1.4,2.3,1.9C363.8,230.6,371.4,228.4,378.8,228.8z"/>
	<path class="st0" d="M463,52.1c1.1,1.5,2.8,2.4,4.6,2.6c7.9,0.5,10.1,5.7,10.6,12.4c3-1.6,6-1.2,9.9-0.6c-6,4.2-9.5,11.2-9.2,18.5
		c-1.4,2.4-3.8,4.3-3.6,8.6l6.6-7.6c2.9-1.6,5.9-2.7,9.1-3.4c4.2-0.9,4.6,1.2,4.8,4.1c0.7,8.8-1.6,16.7-7.6,23.4
		c-0.8,0.6-1.1,1.6-0.8,2.5c3.8-0.7,7.6-1.9,11.1-3.5c8.5-4,20.8-2.7,27,4.9c1.7,2.1,4.3,3.5,6.2,5.9c-6.3,1.1-10.2,5.2-13.7,8.8
		c-4.1,4.4-8.6,5.8-15.4,5c3.5,3.1,6,5.5,6.8,9.2c0.5,2.2,0.2,3.9-1.5,5.3c-4.5,3.7-12.7,4.4-17.8,1.5c-5.6-3.2-5.5-3.2-7.1,2.8
		c-1,3.8-0.7,7.9-3.2,11.3c-4.5-8.4-11.6-13.2-20.3-17.1c-20-8.9-28.8-27-34.6-46.6c-3.4-11-5.1-22.5-5.2-34
		c4.1,6.1,7.8,11.5,12.8,16.1c-6.3,1.2-6.3,1.2-2.9,6.4c7,10.8,16.5,17,29.8,16.1c4.2-0.3,8.8-0.6,10.4-5.9l0,0
		c2.9-1.2,4.9-2.8,3.4-6.4c-0.3-0.9-0.3-2,0.2-2.9c3.3-7.7,0.7-14.1-4.8-19.3C463.9,66,461,61,462,54.3
		C462.2,53.5,462.6,52.8,463,52.1z M434,104.1l1,1c0.1,5.3,4.4,8.1,7.2,11.5c6.4,7.6,15.6,12.8,19.7,22.6c0.9,2.3,3.2,3.6,5.6,3.4
		c-1.9-2.2-3.2-4.8-4-7.6c-1.6-5.1-1.7-5,3.4-4.2c2.7,0.4,5.3,0.5,8,0.3c5.4-0.3,10.7-0.7,13.4,5.6c0.5,1.2,2.3,3.3,3.9,1.9
		s-1.1-2.2-1.5-3.5c-0.7-2.4-4.7-4.7-1-7.2c6.3-4.1,12.4-9.2,20.7-9c0.8,0,1.1-0.5,0.9-1.6c-5.3-0.6-10.5-0.3-15.3,2.3
		c-6.4,3.6-13.3,6-20.5,7.2c-6.9,1-21.8-2.2-24.5-9.6c5.3-0.7,10.6,0.5,15.8-1c6.4-1.9,10.3-4.8,11.7-10c-0.7,0.2-1.3,0.5-1.8,0.9
		c-9.1,9-19.3,9.3-30.5,4.6c-4-1.7-7-5.1-11-6.7l-1-1l-0.5-0.2L434,104.1z M497,140.2c-0.4-0.4-0.9-0.7-1.4-1
		c-0.2-0.1-0.6,0.2-0.9,0.3c0.2,0.4,0.4,0.9,0.7,1.1S496.2,140.4,497,140.2L497,140.2z"/>
	<path class="st0" d="M150,489c0-6.5,0-6.4-6.4-4.4c-3.4,1-7,1.6-10.5,2.4c0.3-2.9,3.6-4.7,3-8c0.6-1.3,1.3-2.7,2-4
		c1.4-2.1,1.2-4.5,1-6.8c-2.4-28.7,12.2-48.9,33.3-65.7c6-4.8,12-9.7,20.3-13.7c-3.4,6-6.1,12.3-8.2,18.9c-2.7-1-1.8-3.6-3-5.1
		c-9.9,8.5-14.9,32.5-0.1,44.2c4.2,3.3,9.2,3.3,14.1,4.2c6.1,1.1,12,2.6,15.9,8.2c1.7,2.4,1.9,3.6-1,5.4c-8.1,4.7-16.4,7-25.7,4.5
		c-0.8-0.1-1.7-0.2-2.6-0.1l-0.4-0.2l0.4,0.2c0.8,3.4,3.5,5.2,6,7c11.5,8,13,20.4,9.5,31.8c-1,3.4-2.6,5.3-5.9,1.5
		c-1.7-2-4.3-3-6.8-3.9c-5.7-1.9-11.6-3.4-14.2-10.3c-1.6,4.8-3.9,9.1-8,9.6c-4.8,0.5-7.7-3.8-10.2-7.6
		C150.8,494.5,150.5,491.7,150,489z M165,419c-3.7,3.4-5.3,8-6.9,12.5c-3.2,9.1-4.7,18.9-10.8,27c-1.2,1.6-2,3.6-0.3,6
		c0.6-3.1,2.9-4.8,4.8-6.8c2.6-2.7,4.2-2.4,5.1,1.4c1.1,5,2.4,10,6.8,13.4c1.5,1.1,0.8,2.1,0.1,3.4c-1.1,1.6-2,3.4-2.6,5.4
		c-0.8,3.3-2.8,7.1,1.9,10.3c-1.6-4.8-0.2-8.3,2.4-11.5c1.6-2.1,3.1-2.9,5.7-1c5.2,3.7,11.3,6.4,14.7,12.3c0.4,1,1.6,1.5,2.6,1.1
		c0.1,0,0.1-0.1,0.2-0.1c-2.2-6.2-6.6-10.6-11.8-14.1c-5.4-3.6-9.9-8.4-13.1-14c-4.6-7.9-6.7-16.4-2.8-25.7
		c6.8,15.6,14.6,22.1,25.4,21.2c-2.1-1-3.8-1.9-5.6-2.7c-8.2-3.3-13.2-9.1-15.8-17.7C162.9,432.3,165.9,425.8,165,419
		c0.1,0,0.2,0,0.3-0.1c0.1,0,0-0.2,0.1-0.3L165,419z"/>
	<path class="st0" d="M279.4,415c6.7,0,11.9,0.2,17.1,0c9.4-0.4,15.2,6.7,18.7,12.7c1.1,1.8,0.9,3-1.6,3.5
		c-3.8,0.8-7.3,2.4-10.4,4.7c-3.3,2.4-7,2.6-11.2,1.7c0.1,0.8,0.2,1.5,0.4,2.3c3.1,7.5,1.3,10-6.8,10.2c-5.8,0.1-10.1-2.5-13.9-6.6
		l-7.1,14.2c-1.6-9-6.2-14.4-12.4-19c-13.8-10.2-18.1-25.2-19.1-41.3c-0.7-10.9-0.6-21.8,2.4-33.4c2.6,5.2,4.8,9.8,7.3,15
		c-5.5-1.7-5.4,0.6-4,4.2c3,7.9,7.3,14.5,15.3,18.1s15.6,2.1,21.5-3.4c3.9-3.6,7.7-7,13.7-7c4.5,0,5.3,2.2,4.4,5.5
		C291.7,403.9,288.9,411.2,279.4,415z M239.4,397.5c2.2,8,5.2,15.2,10.2,21.5c1.2,1.5,2.1,3.3,2.6,5.1c1.2,3.6,1.2,8.1,5.1,10.5
		c0.6-0.8,0.6-1.8,0.2-2.7c-0.7-2.3-1.4-5.3,0-6.7s3.7,1.2,5.6,1.8c1.4,0.5,2.8,0.9,4.3,1.2c4.8,0.5,9.1,1.5,10,7.3
		c0.2,0.8,1,1.3,1.8,1.1c0.1,0,0.1,0,0.2-0.1s0.3-0.3,0.3-0.4c0.1-0.5,0.1-1,0-1.4c-1.9-4.8-0.2-6.7,4.7-7.8
		c5.3-1.4,10.8-2,16.3-1.8c-7.3-4.5-13.7-2-20.4-0.8c-11,2-25-1.2-30.9-13.5c9.6,4.2,18.7,5.3,26.9-2.4
		C261,415,248.9,411.1,239.4,397.5L239.4,397.5z"/>
	<path class="st0" d="M498.9,451.9c4.2,0.9,7.9,3.5,8.6,7.4c0.7,4-3.1,6.5-8,8.1c11.5,1.7,11.5,13.9,20.5,17.7
		c-6.4,4.7-12.7,7.9-20.1,6.7s-12-7.2-18.7-10.6c5,9,2.2,17.8,0.7,26.6c-2.1,0.1-4.1,0.2-6-1c-0.9-1.6-2-2.9-4-3
		c-2-4.9-3.6-10-6-14.7c-5-9.4-13.1-10.6-24.1-8.6c-6.6,1.2-11.9,5-16.2,10.5c0.5,1.6,2.6,0.9,3.6,2.5c-3.9,3.5-9.2,5.4-12.3,9.8
		c-0.8-0.3-1.2-1.2-0.9-2c0-0.1,0.1-0.2,0.1-0.3c6.3-14.7,12.9-29.2,24.7-40.4c8.1-7.7,17.2-13.2,28.9-13.9
		c6.7-0.4,12.5-3.8,18.2-8.8c-0.1,4.1,0.5,7.3-0.6,10.6c-0.8,2.3,0.2,3.5,2.7,3.4C492.9,451.9,495.9,451.9,498.9,451.9z
		 M471.9,452.4c-4.2,0.6-32,19.1-33.8,22.8c13.7-5.4,25.6-4.4,34.6,8.2c-3.4-9.8-11.5-12.6-21.5-14.1c5.9-3.2,10.6-4.7,16.2-4
		c9,1.2,15.9,6.2,22.4,12.1c3.8,3.4,7.8,6,13.4,5.3c-6.4-2.2-10.5-7.3-15-11.8c-2.3-2.2-1.8-3.5,0.1-5.7c2-2.4,4.9-2.8,8-4.2
		c-3.4-0.5-4.9-0.9-6.3,0.4c-5.3,4.9-10.8,3.5-16.5,1c-2.6-1.1-7,1.5-7.6-1.9C465.4,457.8,469,455.3,471.9,452.4z"/>
	<path class="st0" d="M476,169.1c0.7,0.9,1.7,0.9,2.7,0.9c6.3,0.4,8.3,2.2,10.6,8.3c1.4,3.7,0.4,8.8,6,10.4c1.3,0.4,0.1,1.9-0.9,2.6
		c-3.3,2.4-6.8,2-10.4,0.7c-0.1-0.7-0.2-1.6-1.2-1.5c-0.2,0-0.3,0.2-0.3,0.3c-0.1,1.1,0.8,1.1,1.5,1.2c-0.6,3.3,1.9,5.9,2.1,9
		c0.4,4.9-1.1,9.4-2.3,14c-1.1,4.2-1.8,8.1,2.1,11.3c1.4,1.1,0.8,2.3,0.1,3.5c-4.2,2.4-5.6-0.7-7-3.6c-0.6-1.3-1.2-2.7-2.6-2.8
		c-2-0.1-1.3,1.9-1.7,3c-1.4,4.4-3.3,8.4-7,11.2c-2.9,2.2-5,1.4-5.8-2c-0.5-2.3,2-6.2-2.1-6.5c-3.7-0.3-6.1,2.9-7.8,6.1
		c-0.4,1-0.7,2-0.9,3c0.5,1.2,1.1,0.8,1.7,0.8c2.1-0.1,4.5-1,5.8,1.6c0.8,1.9,0.4,4.1-0.9,5.6c-1.5,1.9-3.9,2.7-6.2,2.3
		c-4.6-0.6-8.2-5-8.5-10.3c-0.4-4.5,0.2-9,2-13.2c0.8-1.9,1-2.9-1.5-3.4c-3.3-0.7-3.8-3.3-3.1-6.2c0.7-2.8,2.3-5.1,3.9-7.4
		s4.3-4.6,1.1-7.8c-0.6-0.7-0.4-1.7,0.3-2.3c5.1-4,7.6-11,14.7-12.9c10-2.6,11.1-12,8-19.5c-0.7-1.7-1.6-3.2-3.2-6.2
		c-0.1,7-0.7,12.4-4,17.1c-0.8,1.3-1.7,2.4-2.9,3.4c-2.2,1.6-4.1,1.5-4.3-1.9c-0.2-3.1,0.3-6,2.6-8.3c3.2-3.2,5.2-7.5,5.3-12
		c0.2-3.2,1.5-2.5,3.5-1.7c3.3,1.4,4.8,4.5,6.7,7.1C473.4,165.2,474.7,167.2,476,169.1z M468.8,196.1c-2.8-0.5-4.9,1-7.1,2.1
		c-2.9,1.3-3.3,2.8-0.1,4.1c2.6,1.1,2.8,3,2.1,5.3c-0.5,1.7-1.6,3.8,0.3,4.9c1.8,1,3.3-0.8,4.8-1.8c1.2-0.8,1.8-3.3,4-1.4
		c1.6,1.4,3.2,4,5.4,2.2s-0.2-4.3-0.7-6.4c-0.5-2.1-1.4-4.1-2.6-5.9C473.3,196.8,471.6,195.5,468.8,196.1L468.8,196.1z M474.6,184.6
		c-0.7,2.2-1.5,4.5-2.2,6.8c-0.3,1-0.6,2.1,0.7,2.4c1.7,0.4,1.8-1,1.8-2.2C475,189.2,474.9,186.9,474.6,184.6L474.6,184.6z
		 M481.4,188.6l-0.8-0.1c0.1,0.1,0.2,0.3,0.4,0.3S481.2,188.7,481.4,188.6L481.4,188.6z"/>
	<path class="st0" d="M110,475c0.8,6.4-3.7,9.6-7.9,12.9c-2.8,2.2-5.6,4.2-5.3,8.3c-6.8-2.4-7.3-4-4.2-13.7c-2-0.2-2.4,1.7-3.2,2.6
		c-5.3,6.6-12.3,9.3-20.5,8.7c-4.6-0.3-7.7,1.5-10.1,5c-1.5,2.1-3,2.7-4.9,0.9s-0.8-3.3,0.5-4.7c0.7-0.7,1.4-1.4,2.1-2.1
		c2.2-2.5,1-3.6-1.7-3.8c-3.5-0.3-6.9,0.2-10.4-0.9c-1.6-0.5-3-1.3-4.2-2.4c-3.2-2.8-2-4.4,1.3-5.5c1.8-0.6,4.7-0.1,4.9-2.5
		c0.2-2.6-2.1-4.4-4.5-5.4c-1.3-0.7-2.7-1.1-4.2-1.4c-1.9-0.1-4.6-0.7-2.4,3c1.1,1.9,2,5.1-1.2,5.6c-2.6,0.5-6.4,2-8.2-2.3
		c-1.9-4.8,0.3-10.5,5.3-13.6c3.9-2.3,8.4-3.3,12.9-2.8c2.3,0.2,4.2,0.6,4-3.3c-0.2-4.1,3.7-4.6,6.9-4.4c1.6,0.1,3.2,0.8,4.9,0.6
		l6,2c0.7,1,1.3,1.1,1.9,0c-0.1-3.6,1-5.4,4.6-2.9c2.1,1.5,4.5,2.1,6.9,2.8c3.7,1.1,6.9,3.3,9.2,6.4c4.2,5.7,13,6.8,18.3,2
		c1.9-1.7,5.2-2.5,5.4-6.4c-4.5,1.4-8.8,2.5-13.3,2.1c-1.5-0.1-3,0.1-4.4-0.7c-1.6-1-4.6-1.1-4.2-3.5s3-3.4,5.4-3.7
		c1.3-0.2,2.7-0.1,3.9,0.4c5.8,3,11.6,3.3,18.6,0.7c-1.9,5.8-3.5,10.7-7.4,14.3C108.3,469.9,107.6,472.1,110,475z M82,475.5
		c-0.9-3.2-3.2-6-5.6-8.7c-2.1-2.3-3.9-1.5-4,1.1c-0.1,3.7-2.4,4.1-4.9,4.9c-1.3,0.4-3.5-0.2-3.7,1.7c-0.2,1.5,1.6,2.5,2.7,3.3
		c2.3,1.6,4.4,2.8,1.9,6.1c-0.9,1.2-1.1,3.8,1.9,4C73.4,488,81.9,479.3,82,475.5L82,475.5z M93,475.4c-5.9-0.7-8-0.5-8.5,0.5
		c-0.4,0.7-0.2,1.6,0.4,1.7c2.9,0.6,5.5-0.5,8-1.7C93,475.8,93,475.5,93,475.4L93,475.4z"/>
	<path class="st0" d="M453.9,20.1c0,0.3,0,0.6,0,1v7c-0.8,1.6-2.2,2.9-3.9,3.7c-3.9,1.5-7-0.6-6-4.8c1.2-5.4-2-4.1-4.6-3.5
		c-1.4,0.4-2.8,1.1-4,1.9c-1.5,0.9-2.7,2.1-2.4,4s2.2,1.9,3.5,2.3c2,0.6,4.9,0.6,5,3.2s-2.5,3.6-4.6,4.7c-3.6,1.7-7.4,1.5-11.2,1.5
		c-1.1,0-2.6-0.5-3.1,0.9s1,1.9,1.6,2.8c1,1.3,2.1,2.5,3.1,3.9c1.5,2.2-0.1,3.2-1.7,4.3c-2,1.5-2.6,0-3.3-1.3
		c-1.7-3.6-5.4-5.7-9.4-5.5c-8.6,0.3-16.6-0.7-22.5-7.8c-0.2-0.3-0.9-0.2-1.4-0.3c-0.1-0.4-0.3-0.9-0.4-1.3l-0.4,0.3l0.7,1.1
		c2.4,7.3,2.3,7.7-5.2,12.8c-0.7-2.2,1.3-4.8-1-6.3c-1.8-1.2-3.7-2.2-5.5-3.3c-4.9-2.9-7.4-7.5-6.1-13.5c0.7-2.2-0.1-4.6-2-6
		c-3-2.7-5.2-6.1-6.7-9.8c-0.8-2-1.2-4.4,2.4-3.4c4.3,1.2,8.2,0.1,12.1-1.5c2.8-1.2,5.9-1.4,8.8-0.5c1.2,0.3,2.7,0.8,2.9,2.4
		s-1.2,2.3-2.3,3c-5.5,3-11.2,1.9-16.8,0.4c-1.2-0.3-2.2-1.6-3.7-0.8c5,7.1,12.9,10.4,19.9,8.7c2.9-0.7,4.6-2.7,6-4.8
		c2.4-3.8,6.3-6.5,10.8-7.4c1.6-0.5,3.1-1.2,4.4-2.2c2.4-1.6,4.5-2,4.9,1.5c0.4,3,1.7,2.1,3.2,1.1c3.7-2.4,7.8-2.5,12-2.3
		c4.8,0.2,5.6,1.6,3.6,7c7.5-0.1,15-0.6,21.3,4.1C451.9,18.5,452.7,19.6,453.9,20.1z M407,17.6c-11.6,7.8-11.8,13.6-1.2,20.8
		c0.5,0.4,1.1,0.7,1.7,1c1.1,0.6,2,2.2,3.5,1.2c1.3-1,1.6-2.7,0.7-4.1c-2.8-4.1,0.3-5.3,2.9-6.9c0.9-0.6,2.2-1.3,1.8-2.7
		c-0.4-1.2-1.7-0.9-2.6-1C409,25.4,405.5,23.8,407,17.6z M386.2,28.1c2.6,2.4,5.1,2,7.1,2.8c0.8,0.4,1.7,0.1,2.1-0.6
		c0.1-0.2,0.1-0.3,0.2-0.5c0.2-1.3-0.8-1.6-1.8-1.7C391.6,28.1,389.3,28.1,386.2,28.1L386.2,28.1z"/>
	<path class="st0" d="M364.2,376c-6,0-9.4,3.6-13.8,4.4c-7.5,1.4-16-1.6-20.2-7.8c-0.7-1.1-1.5-1.9,0.3-2.6c4-1.6,6.7-4.8,9.7-7.6
		c0.9-0.9,2.2-2,3.4-2c6.8,0.1,4.5-2.8,2.2-6c-2.2-2.9-1.5-5,1.8-6.7c4-2.3,8.8-2.5,13-0.6c3.8,1.8,4.5,0.6,5.1-3
		c0.4-2.6-0.4-5.8,2.6-8.1c2.7,6.3,8,9.6,13.7,11.6c16.1,5.7,23.4,19,28.8,33.6c3.1,8.4,5.7,17.3,5.3,26.7c-2.2-2-4.5-3.9-6.5-6
		c-1.3-1.3-4.1-2.8-0.1-4.5c1-0.5,0.3-1.7-0.2-2.6c-4.8-8.9-17-16.2-27-13c-4.5,1.5-7.3,4.4-9.6,8.1c-2.7,4.3-5.5,8.2-10.8,9.6
		c-2.9,0.8-4.8,0.7-4.8-3.2C356.8,389,357.8,382.1,364.2,376z M403.9,380l0.4,1.3c0.1-0.1,0.2-0.2,0.4-0.2
		C404.5,380.7,404.2,380.3,403.9,380c-2.2-4.7-5.5-8.7-9.6-11.8c-4.1-3.1-8-6.4-10.4-11.1c-0.7-1.4-1.5-2.9-3.5-2.7
		c-0.3,1.9,1.1,3,1.3,4.5c0.1,1,0.7,2.8-1.3,2.3c-6.6-1.5-14.7,3.3-19.7-4.6c-0.1-0.2-0.8,0-1.4,0c3,7,2.9,7-3.5,11
		c-3.4,2.1-7.4,3.2-11.8,5.1c5.1,1.1,10.4,0,14.6-3.1c6.6-4.8,14-5,21.4-4.3c4.3,0.4,8.6,2,11.5,6.4c-6.1,1.3-12.9-1.7-17.6,4.3
		c0.7,0.6,0.9,0.8,1,0.8c0.5,0,1-0.2,1.4-0.3c7.1-3.8,14-3.1,20.8,0.8C399.3,378.2,401.4,379.7,403.9,380z M369.1,381.3
		c2.1-1.1,3.5-1.7,3.5-3.9C370.5,377.5,369.6,378.5,369.1,381.3L369.1,381.3z M356.2,356l1.3-0.7c-0.2-0.4-0.3-0.9-0.6-1
		c-0.6-0.3-1.3-0.1-1.4,0.6C355.5,355.2,355.9,355.6,356.2,356z M379.2,352.4l-0.4-0.1v0.5c0.1,0,0.3,0,0.4-0.1
		S379.2,352.5,379.2,352.4L379.2,352.4z"/>
	<path class="st0" d="M383.9,280.3c-1.4,4.8-4.5,8.6-4,13.6c0.8,7.3,10,12.6,16.5,9.2c1.5-0.8,2.8-3.9,4.7-1.6
		c2.1,2.6,3.1,6,0.6,9.2c-2.8,3.5-6.6,4.8-10.9,5.3c-3.5,0.4-7.6,0.2-6.9,5.9c0.3,2.1-1.8,2.2-3.2,1.9c-3-0.4-5.8-1.6-8.3-3.3
		c-2.9-2.2-5.1-5-9.3-4.9c-2.1,0.1-2.2-2.7-2.7-4.3c-1.1-3.9,0-9.8,3.2-18.1c-1.5,0.1-2.9,0.9-3.7,2.2c-0.9,1.2-1.8,3.2-3.9,1.8
		c-1.8-1.1-2.1-2.9-1.7-4.9c0.4-1.6,1.2-3.1,2.4-4.3c0.6-0.7,1.8-1.4,0.8-2.5c-0.8-0.9-1.9-0.3-2.7,0.2c-3.5,2.1-7.1,3.7-6.1,9.4
		c0.7,4-2.8,7.2-5.4,10.2c-1.6,1.9-3.6,3.7-4.5,5.9c-1.9,4.3-3.4,1.9-4.4-0.1c-1.8-3.4-1.9-7.6-0.1-11c1.5-3.2,0.5-4.4-2.8-4
		c-4.9,0.6-9.8-1.3-12.9-5.1c-1.5-1.6-2.3-3.7-2.4-5.9c-0.1-3.1-0.5-5.8,4.3-3.5c3,1.4,6.5,0.6,9.8,0.1c5.1-0.8,10.1-1.6,14.6,2.5
		c2.9,2.6,6.4-0.1,9.4-0.6c1.4-0.2-0.4-2.5-0.9-3.8c-2.1-5.9-0.8-10.3,4.2-13.2c0.8-0.5,2-1,2.7-0.8c1.1,0.5,0.6,1.7,0.2,2.6
		c-1.1,2.8,0.6,4.8,1.7,7c0.4,0.9,1.5,2.1,2.2,1.2c3.4-4.5,5.1-0.4,6.8,1.4C374.7,281.6,379,281.3,383.9,280.3z M378.9,307.3
		c-5.9-5.8-7.1-12.7-4.4-21.7C366.9,296.6,368.8,305.3,378.9,307.3L378.9,307.3z"/>
	<path class="st0" d="M138.1,178c2.9,8.4-4.6,6.1-9.1,7.9c5.4,2.2,10.3,0.5,15.1,1.4c0.8,1.8-2.2,2.3-1.2,4.7
		c4.2-1.9,8.2-4.5,12.9-5.4c3-0.6,4.6-0.5,4.4,2.9c-0.2,2.5,2.6,4,2,6.5c-6.4,4.6-7.2,11.4-6.9,18.5c0.1,2.8,2.6,6-0.6,8.1
		c-2.7,1.9-8.7-0.7-11.6-3.7c-4.3-4.4-2.8-9.4-2.6-14.8c-3.9,4.2-8,7.8-13.3,9.6s-11.2,1.1-18.4,1.2c5.3-3.3,9.8-5.7,12-10.5
		c0.7-1.4,1.2-3,1.9-4.4c1.3-2.4,5.7-3.8,4.4-6.4c-1-2.1-5.3,0-7.9-1c-5.5-2.1-11.6-3.2-15.8-8c-4.8-5.6-4.5-12.5,0.7-16.1
		c2.7-1.9,5.8-2.8,8.7-0.4c2.8,2.2,3.2,5.1,1.4,8s0.5,3.3,2.1,3.6c5,1,10,2.3,15-0.7C133.3,178.1,135.7,177.7,138.1,178z
		 M142.7,201.3l0.1-0.4l-0.5,0.1c0,0.1,0.1,0.3,0.1,0.3S142.6,201.3,142.7,201.3L142.7,201.3z"/>
	<path class="st0" d="M492,245.1c4.2-0.9,6.2-5.9,12.5-5c-5.8-3.5-11.1-4.9-13.4-10.5c-1.2-3.1-1.1-6.2-1.1-9.3c0-1,0.5-2.4,1.7-1.7
		c4.9,3,11.2-0.6,15.5,4.2c1.3-2.9,1.4-6.5,4.9-6.6c3.6-0.1,6.3,2.7,7.6,5.7c1.9,4.2,3.6,5.9,7.5,2.1c1-0.9,4.1-1.9,3.3,0.9
		c-1.9,6.4,1.4,11.8,2.7,17.4c1.7,7.6-0.1,14.8-2.6,21.4c-3.6,9.4-9.4,17.8-16.3,25.3c-0.6,0.4-1.2,0.7-1.9,0.9
		c0.6-3.7,2.1-6.8,1.7-10.2c0-0.3,0.1-0.6,0.3-0.9c4.4,1.5,4.3-2.3,4.4-4.4c0.3-4.7,1.1-9.5-2.3-13.9c-3.8-4.8-7.5-8.7-14.5-6.7
		c-2.2,0.6-4.6,0.1-7,0.1C487.6,252.5,487.1,251,492,245.1z M500,230.1l-0.4-0.2L500,230.1c1.8,2.6,4.5,4.4,7.6,5.1
		c9.5,2.7,16,11.5,14.9,20.5c-1.8-2.9-3.1-5.9-8-6.3c6.6,5,8.5,11.5,9.5,18.3c3.8-9.4,0.1-19.4,4.8-29.2c-3.2,1.6-3.9,6.9-6.1,4.2
		c-3-3.7-10.1-6-6.9-13.2c0.3-0.7-0.3-1.9-1.6-2.5c-0.1,0.9-0.1,1.7-0.2,2.4c-0.4,3.5-1.1,5.9-5.5,3.2
		C506,231.1,502.8,230.8,500,230.1L500,230.1z M504.6,247.7l10,0.8C510.7,245.4,507.7,245.8,504.6,247.7L504.6,247.7z"/>
	<path class="st0" d="M505,428c5.2,0.3,10.6-1.1,15.7,1.6c2.4,1.3,3.6-0.9,4.3-2.8c1-2.8,2.6-2.6,5-1.4c4.4,2.2,6.4,6.1,7.9,10.3
		c0.5,1.5,0.9,2.8,2.2,3.7c4.4,2.9,5,6.1,2.5,10.6c-2.3,4.3-5.7,7.9-10,10.3c2.2,1.2,3.8,0.2,5.5-0.2c1.3-0.3,2.8-0.7,3.6,0.8
		s0.8,3.5-0.5,4.1c-7.2,3.2-4.8,9.5-5.2,14.9c-0.4,4.5-5.1,8.3-9.3,8c-2.3-0.2-3.2-1.1-1.8-3.1c1.2-1.8,2.3-3.6,2.2-5.9
		c-0.1-2.1,0.4-5-3.3-2.4c-1.3,0.9-3,0.4-3.2-1c-0.9-6.5-5.8-9.3-11.5-12c4.1-2.1,6.2-5.3,8.2-8.7c4.2-7-0.1-15.1-8.4-15.8
		c-2.3-0.2-5.5,1.9-6.9-1.9C501.2,433.4,503.5,430.8,505,428z M524.2,441c2.4,6,3,11.3-0.4,16.4c-0.5,0.7-0.8,1.6,0.1,2.1
		c0.6,0.2,1.3,0.2,1.8-0.2c2.8-3,4.8-6.3,4.3-10.7C529.8,445.2,527.5,442.1,524.2,441L524.2,441z"/>
	<path class="st0" d="M68.1,443.9c-1.3-5.1-4.7-9.5-4.4-15.4c0.1-2.4-4.9-4.1-2.2-8.4c3.2-5.1,8.1-7.5,13.2-9.9c1-0.4,2-0.6,3-0.9
		c-1.2-2.1-3-1.2-4.4-1.4s-3.5,0.7-4.1-1.6c-0.5-2,0.4-4.1,2.3-5c0.8-0.5,1.7-0.9,2.6-1.3c2,0,4.4,0.2,3.9-2.9
		c-0.6-4.2,1.6-7.2,4-10.2c1,0.1,1.9-0.6,2-1.5c0-0.2,0-0.3,0-0.5c3.6,0.2,7.3-0.7,11,2c-2.3,1.3-4.9,2.3-5.6,4.6
		c-0.7,2-4.7,5.9,2,5.5c1.6-0.1,1.7,1.4,1.6,2.5c-0.6,4.9,1.5,9.7,5.5,12.6c2.4,1.9,0.1,2.1-1.2,2.8c-3.6,1.8-7.6,2.9-9.6,7.2
		c-4,8.6,0.3,16.3,9.6,16.7c0.6,0.1,1.3,0.1,1.9,0.3c-2.6,9-7.6,11.1-15.2,6.7c-1.9-1.1-3.6-2.4-5.4-3.6c-2-1.3-3.8-2-5.3,0.8
		C72,445.6,69.9,444.3,68.1,443.9z M80.4,433c-3.5-9.1-0.1-15.2,6.1-20.6c-4.2,0.1-8,2.5-9.8,6.4C74.7,423,76,428.4,80.4,433z"/>
	<path class="st0" d="M282,269c-10.5-0.2-21.1,15.2-18.8,27.2c0.9,4.9,2.6,9.3,8,11.1c0.6,0.2,1.1,0.7,1.3,1.4
		c0.2,1.1-0.8,1.2-1.5,1.5c-7.5,3.1-12.9-1.3-14.9-7.9c-0.2-1.3-0.3-2.7-0.3-4c-2.7,1.8-5,3.4-7.4,4.7c-3.6,2.1-9.3,0.3-11.8-3.5
		c-1.5-2.3-0.7-9.5,1.7-11.1c2.2-1.5,5-4.5,6.2,1.2c0.4,2.1,2,3.1,4.6,2.6c3.8-0.8,6.7-2.6,8.5-6.1c1.9-3.9,3.9-7.7,5.8-11.6
		c2.7-5.4,6.8-9.1,12.8-9.9c6.2-0.8,12.6-3.2,19-0.1c-3.2,1.1-6.1,2.4-7.8,5.6c-3.1,6.3-2.1,9.6,4.6,11.2c4.2,1,6.4,3.5,8.3,7
		c7,13.4,15.3,14.9,28.9,11.1c-0.9,3.2-1.4,2-4,3.1c-8.9,3.7-18.5-0.2-27.3,2.9c-1.4,0.5-3.2,2.1-4.5,0.5c-1.1-1.4,0.2-3.1,1-4.6
		c0.3-0.6,0.7-1.1,1.3-2.1c-9.8-2.4-8.8-10.5-8.9-18c-2.7,0.9-2.3,2.9-3.2,4.2c-1.7,2.5-4.2,4.5-7.1,2.9c-2.4-1.3-4-3.9-2.5-7.2
		c1.7-3.6,3.1-7.4,6.6-9.7C281.6,271,282,270,282,269c0.1-0.1,0.3-0.3,0.4-0.4L282,269z"/>
	<path class="st0" d="M317.2,309c-5.5,4.2-7,11.5-13.5,14.6c-2.4,1.2-2,3.7-2.5,5.6c-1,3.5-1.8,7-4.7,9.7c-7.5,6.8-8,15.2-4.9,24.1
		c1.6,4.6,1.5,5-3.4,4.9c-6.5-0.2-11.1-4.6-11.1-11.5c0-3.7-1.4-4.2-4.3-3.2c-3.5,1.2-6.8-0.4-10.2-0.6c-2.2-0.1-2.9-2.1-2.5-4.1
		c0.6-2.9,0.8-6,2.1-8.6c1.9-3.6,0.7-5-2.7-5.9c-7.7-2.1-8.8-9.3-6.7-15.7c0.6-2,1.4-2.4,3-0.9c8,7.1,16.7,7.8,26.1,2.8
		c1.6-0.9,3.5-2.2,5.1-1.9c10.1,1.9,16.8-5.5,25-8.8C313.4,309,314.7,307.4,317.2,309z M275.4,335c1.8,1.9,2.7,2.6,3.2,3.5
		c0.9,1.7-0.3,2.9-1.5,3.7c-1.8,1.2-3.1-0.3-3.5-1.6c-1.1-3.8,1-7.8,4.8-8.9c1.5-0.4,3-0.4,4.5,0.1c1.9,0.8,4.1,3,2.4,6.1
		c-0.5,0.9,0.4,3.2,1,2.5c2.2-2.9,7.9-1.4,8-6.8c0-2.3,0.9-4.5,1.4-6.8c0.3-1,0.4-2.4-0.7-2.5c-4.1-0.2-9.2-2.1-12,0.8
		c-3.7,4-8.7,6-12.5,9.6c-2.3,2.2-4.6,4.5-4.2,8c0.3,3.2,2,5.7,5.5,5.9c3.9,0.3,7.6-1.3,10.2-4.2c0.5-0.6,0.6-1.3-0.3-1.5
		c-1.9-0.5-1.5-1.7-1.2-3.1C281,337,279.4,335.8,275.4,335z"/>
	<path class="st0" d="M185,579.9c-1.9,0-2.8-1.6-4.1-2.6c-7.2-5.6-15-7.6-23.6-3.5c-4.3,2-8.9,1.4-13.2,0.8c-2.3-0.3-3.3,0.7-5,1.5
		c-5.6,2.8-11.7,4.8-18.5,7.4c0.6-2.8,2.3-5.3,4.6-7c2.4-1.7,5.2-3.1,6.3-6.2c0.1-0.3,0.4-0.7,0.6-0.7c6.7,0.1,5.8-5.8,7.5-9.6
		c0.9-2.1,1.7-4.5,3.8-5.8c7.7-4.8,9-12.2,8.7-20.4c-0.4-1.8-0.7-3.6-1.9-5l-1-2.9c6.5-0.6,12.5,0,15.1,7.3c0.2,0.6,0.8,1.3,0.7,1.9
		c-1.1,6.6,2.6,6.7,7.8,7c9.4,0.5,10.3,2.4,6.8,10.3c-2.6,5.9-2.7,9,3.8,11.9C188.2,566.6,188.4,572.9,185,579.9z M164,562.9
		c3.7-0.3,7-2.5,8.8-5.8c1.4-2.4,3.5-5.4,1-8.3s-5.4-3.1-9-1.9c-4.8,1.7-8.3,6.1-12.7,7.3c-5.7,1.5-6.5,5-7.7,9.4
		c-1,3.6,0.5,4.7,3.4,5.7C155.3,572.1,159.3,566.7,164,562.9L164,562.9z"/>
	<path class="st0" d="M482,513.9c9.6-3.6,12.3-11.7,13.4-20.8c8.9,2.2,12,8.5,8,16.9c-1.5,3-1.7,4.7,2.3,5.4
		c3.5,0.6,5.9,3.6,8.8,5.6c1.2,0.8,1.8,2,0.6,3.4c-2.2,2.5-3.9,5.8-6.6,7.3c-4.5,2.5-3.1,4-0.7,7c3.9,4.7,3.3,11.6-1.4,15.5
		c-0.2,0.2-0.4,0.3-0.6,0.4c-1.6,1.3-2.8,2.2-3.9-0.8c-3.7-10.1-10.5-14.9-21-14.8c-4.8,0.1-8.1-2.5-11.5-5.2
		c-1.2-1.1-2.7-1.6-4.3-1.5c-7,0.5-14.3,2-21.1-1.4c4.8-1.6,9.5-4.1,14.4-4.7c6.7-0.8,10.9-5,15.5-8.9
		C476.2,515.4,479.4,515.4,482,513.9z M484.3,519.5c-4.5-0.3-11.8,5.4-12,8.2c-0.2,2.1,9.5,8,11.5,6.7c2.5-1.7,5-1.4,7.6-1.3
		c3.5,0,6.9-0.7,10.1-2.1c3-1.2,6.4-3,5.3-7.2c-1-3.7-3.4-5.9-7.9-5.9C493.5,517.8,488.2,519,484.3,519.5L484.3,519.5z"/>
	<path class="st0" d="M311,118.1c3.7-8.4,10.4-13.8,18.5-17.5c1.9-1,3.6-2.2,5.3-3.5c1.2-0.8,2.7-3.2,4.3-0.2c0.6,1.2,1.3,0.2,2-0.1
		c2-0.9,3.9-1.8,5.9-2.6c4.3-1.7,6-0.8,5.9,3.8c-0.1,3.7,0.7,5.7,4.6,7.2c6.8,2.6,7.2,5.2,1.9,10.4c-2.5,2.4-2.8,4.5-1.5,7.4
		c1.9,4.6,0.7,6.5-4,7.1c-9.4,1.2-18.9,0.9-28.2-0.9C318.8,127.9,314.9,123.1,311,118.1L311,118.1z M318.3,114.6
		c-2.9,5.7,3.8,6,4.2,9.5c0.1,1.3,3.5,1.2,5.5,0.7c0.3-0.1,0.6-0.3,0.7-0.7c0.4-4.2,3.3-2,5.2-1.9c2.1,0.1,4.2,0.7,6.4,0.9
		c3.8,0.5,6.7-0.2,5.8-5.1c-0.4-2,1.2-2.8,2.5-3.9c0.7-0.6,2.1-0.8,1.9-2c-0.2-1.4-1.6-1.8-2.7-1.7c-3.2,0-4.6-1.6-4.6-4.5
		c0-2.8-1.6-2.4-3.3-1.7c-3.7,1.5-7.3,3.1-10.2,5.9c-0.6,0.5-1.6,3.3-2.6,0.2c-0.5-1.4-1.2-1.9-2.6-1.2c-1.7,0.9-3.4,1.9-3.8,3.8
		s1.6,1.1,2.6,1.6c1.4,0.6,2.2,1.6,1.6,3.1c-0.7,1.7-2.2,1.8-3.8,1.5C318.9,118.5,319.7,116.4,318.3,114.6L318.3,114.6z"/>
	<path class="st0" d="M307.7,542.8c3.2,0.8,6.1,2.2,8.8,4.1c5.4,4,9.5,4.1,15.5,0.7c2.5-1.4,5.1-2.5,7.8-3.4c2.6-1,5.5-0.4,7.4,1.7
		c1.3,1.6,1.5,3.8,0.6,5.7c-1,2.4-3.4,3.5-6.1,3.4c-2.2-0.1-4.3,0-6.5,0c-2.4,0.2-4.7-0.2-6.9-1.1c6.6,8.6,16.6,9.9,29,4.5
		c8.5-3.7,11.7-9.1,10.2-17.5c8.9,1.2,9.4,9,1.2,19.7c3.6,1,6.9,2.3,9.5,5c3,3.2,2.9,9.1-0.4,12.8c-2.2,2.5-7.9,2.8-10.9,0.5
		c-0.9-0.7-2.1-1.1-0.9-2.7c3.8-5.1,2.1-9.6-4.2-10.1c-4.6-0.4-9.3-0.3-13.9,0.4c-9.1,1.5-17.5,0.3-24.1-7.2
		C318.9,553.8,313.6,548.9,307.7,542.8z"/>
	<path class="st0" d="M110.1,395c-2.2,13.4,10.2,18.4,21,20c5.7,0.8,10.8-1,15.7-3.9c0.9-0.5,2.1-1,1.8-2.1c-0.4-1.6-2-1.2-2.9-0.9
		c-4,1.3-7.8,0.9-11.8-0.1c-3-0.8-4-2.7-3.8-5.5c0.2-3.1,1.9-4.3,4.8-4.5c4.4-0.4,8.1,1.7,11.8,3.4c5.7,2.5,10.8,2.7,15.6-2
		c1.8-1.7,3.8-3.7,8.2-3.1c-10.1,6.5-13.6,18.5-24.8,22.5c-2,0.8-4.1,1.2-6.3,1.3c-7,0-14-0.2-21,0s-9.4,4.4-6,10.3
		c1,1.8-0.2,2.3-1.2,3.1c-3.4,2.6-7.4,2.1-10.6-1.4c-3.3-3.6-3.5-8.9-0.4-12.1c2.6-2.6,5.8-4.4,9.4-5.2
		C101.2,406.8,101.5,398.2,110.1,395L110.1,395z"/>
	<path class="st0" d="M64.1,212c0.5-1,1.2-1.9,1.9-2.8c3.6-3.4,5.3-6.8,2.1-11.8c-2.5-3.8-0.3-5.7,4-5.5c2.3-1.5,7,3.4,7.4-2.9
		c0-0.1,0.5-0.4,0.8-0.4c11.4,0.8,23.5-1.8,32.9,7.6c1.3,1.3,2.3,3.3,1.5,5c-2.9,5.7-6.1,11.3-11.8,14.8c-0.4,0.3-1,0.4-1.3,0.7
		c-5.3,5.7-12.8,6.9-19.4,9.9c-4,1.8-6.2,0.6-6.4-2.9c-0.3-5.1-3.8-6.4-7.3-8.2C66.7,214.8,64.3,214.7,64.1,212z M76.2,209
		c2.8,2.4,7.3,0.4,8.1,4.6c0.8,3.9,3,3.2,5.4,2c1.5-0.7,2.6-2.1,4.1-2.7c2.8-1.2,4.2-5.7,8.7-3.4c1.2,0.6,3.7-1.4,4.3-3.5
		c0.3-1.1-0.4-1.9-1.6-2c-1.5-0.1-3.1-0.1-3.1-2.3c-0.1-1,0.5-2,1.5-2.4c2.2-0.8,3,0.6,3.5,2.4c0.1,0.5,0.6,0.9,1.1,0.8
		c0.1,0,0.3-0.1,0.4-0.1c0.8-0.4,1.5-1.6,0.9-1.9c-3.2-1.6-3.7-6.5-8-6.5c-1.6,0-4.6-0.5-4.7,0.5c-0.2,6-3.9,2.4-6.1,2.5
		c-2.5,0.1-5-0.1-7.5,0.2c-1.6,0.2-3.9,1.2-3.1,3.1C82.2,204.8,78.9,206.6,76.2,209z"/>
	<path class="st0" d="M279,522c6.1-6.5,4.6-13.3,1.4-20.7c-2.2-5.3,0.8-9.5,5.6-9.3c3.2,0.1,4.7,1.7,5,4.9c0.4,5.2-1.5,10.1-2,15.1
		l-0.2,0.4l0.2-0.4c11.6-7.2,10.8-29,1.2-37.4c-2.3-2-5.3-2.9-8.3-2.6c-0.8,0-1.9-0.1-2.2-0.6c-0.8-1,0.4-1.7,1-2.5
		c3.6-4.4,8.4-5,13.2-2c2.3,1.4,3.8,3.6,5.9,5.6c2.1-4.3,3.2-9.4,9.1-10.3c4.5-0.7,7.9,1,10,4.8c1.8,3.2,1.6,6.3-1.3,9
		c-1.5,1.4-2.5,2-4,0.1c-3.1-3.9-5.7-1.4-7.6,1.1c-2.3,3.1-3.3,7-2.6,10.8c2.6,14.7-5.5,27.6-19.9,32C282,520.6,280.5,521.2,279,522
		L279,522z"/>
	<path class="st0" d="M441.9,529.9c-1.1,0.4-2.2,0.8-3.2,1.2c-0.7,0.4-1.5,1-1.1,1.9c0.4,0.5,0.9,0.8,1.6,0.9
		c8.8,1.2,16,8.2,25.5,7.1c2.4-0.3,2.5,1.1,1.1,2.7s-2.8,3.2-6.5,3.8c4.2,1.5,4.9,4.4,6.8,6.4c0,1.7,0,3.3,0,5l-3,9
		c-4.2,0-9.8-5.3-9.9-10.1c-0.1-4.7-1.9-8.7-3.1-12.9c-0.8-3.1-2.6-5-6-5.1c-3.1-3.4-4.4-4.1-14.5-5.2c1.6-1.3,2.7-2.8,4.2-3.5
		c10.6-5.7,12-12.6,9.4-24c-1.3-5.5-1-10.3,1.7-15.3c1.2-2.1,1.7-2.3,3.5-0.5c5,5,9.6,9.8,5.4,17.6c-1,1.8,0.7,1.9,1.8,1.9
		c2.5-0.1,4.4,1,6.2,3.2C452.9,516.8,447.7,523.7,441.9,529.9z"/>
	<path class="st0" d="M334,41.1c3.5,3,6.4,5.2,8.1,8.7c1.6,3.3,4.3,5.1,7.9,6.3c5.4,1.8,11.5,3.3,12.3,10.6c0.1,0.6,1,1.2,1.6,1.7
		c2.5,2.4,6.5,4.7-0.2,6.9c-2,0.6-0.8,2.2-0.3,3.3c1.5,3,2,6.4,1.6,9.7c-0.4,2.8-1.7,4.2-4.8,2.8c-2.9-1.3-5.7-2.7-7.3-5.6
		c-1.3-2.2-2.8-3.2-5.1-0.9s-3.5,1.1-4.4-1.3c-2.8-8-6.3-15.7-3.5-24.6c0.7-2.2-0.4-4.9-2-6.9C335.4,49,334.8,45.5,334,41.1z
		 M345,60.1l-0.4-0.2L345,60.1c0.1,3.1-0.2,6.2,0.9,9.3s3.6,3,5.9,3.6c0.9,0.3,1.8-0.2,2-1.1c0-0.2,0.1-0.3,0.1-0.5
		c0.1-2.3,0.8-4.8-1.5-6.4S347.4,61.7,345,60.1z"/>
	<path class="st0" d="M420.9,260.5c1.5,3.5,3.3,6.9,3,10.7c-0.3,4.3,1.5,7.7,4.5,10.7c3.8,3.8,6.4,8,4.9,13.7
		c-0.1,0.7,0.1,1.3,0.4,1.9c2.1,4.2,2.7,7.5-4,6.6c-1.1-0.2-1.7,0.9-1.7,2c0,0.8-0.1,1.7-0.1,2.5c0,4.3-2.3,7.3-6,9
		c-1.8,0.8-6.1-5.3-6-8.8c0.1-4.1-0.9-5.6-5.1-4c-2.3,0.9-2.9-0.5-2.1-2.7c1.1-3,1.3-6.2,0.7-9.3c-0.6-3.8,1.8-7.1,4.2-9.8
		c3.8-4,5.7-9.5,5.2-15C418.8,265.3,419.9,263,420.9,260.5z M421.5,279.7c-1.5,4-2.4,7-3.8,9.8c-1.8,3.6,2.2,4.2,3,6.5
		c0.3,0.7,1.1,1,1.8,0.7c0.3-0.1,0.5-0.3,0.6-0.6c1.3-2,3.7-3.7,2.5-6.6S423.2,283.8,421.5,279.7z"/>
	<path class="st0" d="M289.2,30.2c-1.8,2.5-4.4,4.3-7.4,5.1c-6.7,2.1-9.9,7.5-13.2,12.7c-2,3.2-4.6,5.4-8.2,5.6
		c-2.1,0.1-2.8,1.5-4,2.5c-2.8,2.2-5,2.3-5.3-1.8c-0.2-3.2-1.5-3-3.8-2.2c-4.2,1.3-9.8,2.8-11.6-1.7c-1.8-4.4,3.2-7.4,7.1-9.3
		c2.6-1.3,2.4-2.8,1.3-4.8c-1.6-2.8-0.2-3.4,2.4-4.2c9.1-2.9,17.8-2,26.6,0.9c3.7,1.2,6.6-2.5,10.5-2.3
		C285.3,30.7,287.2,30.1,289.2,30.2z M262.9,37.1L262.9,37.1c-1.3,0-2.6,0-4,0c-3,0.1-3,2.8-3.6,4.7c-0.7,2.3,1.5,1.9,2.7,2.6
		c4.9,2.9,6.3-2.1,9.1-4c0.8-0.5,1.7-1.3,1.4-2.4s-1.6-0.8-2.6-0.9S263.9,37.1,262.9,37.1L262.9,37.1z"/>
	<path class="st0" d="M192.4,474.4c2.9-0.8,5.9-0.6,8.6,0.5c3.9,1.6,8.2,1.6,12.1,0c5.2-2.1,10.4-3.4,15.7-0.2
		c0.8,0.3,1.6,0.4,2.4,0.3c4.2-0.4,7.2,0.2,4.5,5.5c-0.9,1.7,0,2.2,1.5,2.8c2.8,1,5.3,2.9,7,5.4c2.5,3.5,1.8,5.2-2.3,6.4
		c-2.7,0.8-5.4,1.6-8.1-0.1s-4.1-0.3-4.6,2.2c-0.4,2.3-1.4,3.7-3.6,2.4c-6.6-4-14.6-6.2-18-14.7c-1.8-4.4-7.6-4.8-11.4-7.2
		C195,476.8,193.1,476.7,192.4,474.4z M210.4,480c2,4.1,5.1,6,8,8.1c2.6,1.9,4.4-1.5,6.8-1.5c0.7,0,0.9-1.3,0.4-2.1
		c-1.4-2.2-2.1-5.2-6-4.6C216.9,480.3,214,480,210.4,480z"/>
	<path class="st0" d="M138,529.9c-1.3,0.7-2.9,1.7-4.1,0.2c-3.1-3.6-4.2-0.6-5.7,1.5c-2.3,3.2-4.6,7-9.4,5.3
		c-2.5-0.9-2.9-7.8-0.4-11.5c2.3-3.5,0.7-4.3-2.2-5c-3.5-0.8-2.7-2-1.3-4.7c4.2-7.8,11-11.9,18.7-15.2c2.7-1,4.7-3.2,5.4-6
		c0.9-3.1,3.6-4.6,5.7-6.7c1-1,1.7,0.2,2.1,1.1c-2.9,6.5-7.4,12.3-5.3,20.5c1.2,4.5,2.1,10.2-2.7,14.3
		C137.2,525.3,138.3,527.9,138,529.9z M127.1,515.1c0,1.8,0.3,3.9,2.4,3.6c2.4-0.3,5.7-0.1,6.3-3.6c0.6-2.9,0.1-6,1.1-8.9
		c0.3-0.9,0-2.1-1.5-1.7C133.2,505,127,512.9,127.1,515.1L127.1,515.1z"/>
	<path class="st0" d="M161,282c2.8-0.1,5.7,0.7,8,2.3c2.8,1.9,4.8,2.9,5.2-2.2c0.7-7.1,8.3-12.3,15.2-11c3.1,0.5,4.4,2.2,2,4.6
		c-3.3,3.3-3.6,7.2-3.5,11.5c0.1,5.1-1.5,9.5-6.1,12.2c-2.6,1.5-1.7,3.7-1.9,5.7c-0.1,1.4,0,3-1.6,3.3c-1.8,0.2-1.2-1.6-1.4-2.6
		c-0.7-3.2-3.4-5.6-6.7-5.8c-4.6-0.5-6.6-3.5-8-7.1c-1-2.8-2.3-5-5-6.5c-1-0.6-2.9-1.1-2.6-2.6s2.2-1.7,3.8-1.8
		C159.3,282,160.1,282,161,282z"/>
	<path class="st0" d="M224.7,384.2c-1.3,5.4-1.3,10,3.4,13.5c1.6,1.2,1.9,3.7,1.9,6c0,4.5-0.5,8.9,2.1,13.1c1.6,2.6-1.1,2.3-2.3,2
		c-4.4-0.9-7.9-4-9.3-8.2c-1.6-4.4-3.1-3.6-5.7-1c-6,6.1-10.8,7-16.8,3.9c-1.7-0.9-3.3-2-3.5-3.9c-0.3-2.3,2.1-2,3.5-2.7
		c2.7-1.6,5-3.9,6.5-6.7c2.9-4.7,6.2-9.3,12.7-8.6c2.2,0.2,1.8-1.5,2.3-2.5C220.6,387,221.7,385,224.7,384.2z"/>
	<path class="st0" d="M400.1,541.1c5.4-2.9,8.4-5.9,8.7-11.3c0.2-2.9,3.3-4.9,5.8-6.5c4.1-2.8,8.4-5.3,10.1-10.5
		c0.8-2.4,2.1-1.4,3.2,0.1c6,8,5.4,13.5-2.3,20.2c-1,0.8-1.9,1.7-3.1,2.8c5.5,2.2,10.9,4.4,12.4,10.7c0.3,1.2,1.7,2.5,0.2,3.6
		s-1.9-0.9-2.8-1.2c-3.8-1.2-7.7-1.9-11.7-1.8c-3.5,0.1-6.7,0.1-9.2-3.4C409.2,540.4,404.8,542.7,400.1,541.1z"/>
	<path class="st0" d="M74,397.9c-3.6-1.8-6.7-1.3-9.3,1.9c-3.8,4.6-9.7,2.3-14.4,4.1c-1,0.3-1.9,0.4-2.9,0.5
		c-1.3,0.2-2.8,2.4-3.9,0.5c-1-1.8-0.7-4.1,0.8-5.5c2.2-2.2,4.1-4.9,7.2-6.1c2.5-1,2.6-2.2,0.6-3.9c-1.5-1.3-2.9-2.7-4.2-4.2
		c-4.1-4.6-3.1-13.4,1.7-17.1c1.6-1.2,2.4-0.6,3,0.9c1.9,5.1,6.2,7.5,10.5,10.1c3.8,2.2,6.2,6.2,6.5,10.6c0.1,2.5,1.1,2.3,2.6,2.3
		C76.7,395.6,76.7,395.6,74,397.9z"/>
	<path class="st0" d="M332,340c0.1,0.6,0.1,1.3,0,1.9c-0.5,2.9-0.3,5.8-5.2,3.4c-5.4-2.6-10.2-4.6-9.8-11.8c0.2-3.2-2.3-1.2-3.6-1.4
		c-1.7-0.4-4,0.6-4.8-1.6c-0.7-1.9,1.6-2.1,2.6-3.2c3.8-4.1,5.9-9.1,7.8-14.3c0.3-1.1,0.8-2.2,1.3-3.2c0.6-1.1,1.5-2.8,2.9-2.2
		c1.8,0.8,0.3,2.2-0.1,3.4c-2.5,6.5-0.1,11.9,3.5,17.2C328.9,331.7,332.7,334.7,332,340z"/>
	<path class="st0" d="M388,435c-7.3-6.8-15.5-7.1-24.3-3.3c-0.1,0.1-0.3,0.1-0.5,0.2c-5.1,2.5-9.6,0.8-14-1.9
		c-1.2-0.7-0.8-1.5-0.2-2.5c3.4-5.7,9.5-9.3,14.1-8.4c1.3,0.2,2.6,0.5,3.9,0.8l0.4,0.2L367,420c-0.4-3.1,1.3-5.3,3.4-7.7
		c3.2,6.9,8.4,11.6,14.1,15.9C386.8,429.7,388.1,432.3,388,435z"/>
	<path class="st0" d="M131.1,125.6c-3.7,8.8-11.2,7-18.2,6.3c-1.5-0.1-2.1-1.2-1.4-2.4c2.8-4.4,4.8-8.9,10.9-10.7
		c9.4-2.8,15.1-6.6,16-22c1.8,6.1,2,11.7,0.1,17.5c-1.3,4-0.4,8.3-0.4,12.4c0,0.9,1.1,2,0.1,2.8s-2.3,0.1-3.2-0.5
		C133.7,127.9,132.4,126.8,131.1,125.6z"/>
	<path class="st0" d="M208.1,469.6c10.5-5.5,13.8-13.5,12.1-24c-0.5-3.3,2.1-5.5,3.7-7.9c1.4-1.8,2.8-3.5,4.4-5.2
		c1.2,3.5,2.8,6.9,4.8,10.1c2.1,3.2,0.6,6.4-1.1,8.9s-1.6,3.5,1.1,4.6c1.4,0.6,2.8,1.6,2.6,3.3c-0.2,2.3-2.3,1.4-3.6,1.6
		c-4.1,0.7-8,2.3-11.4,4.7C217.3,468.1,213.7,470.7,208.1,469.6z"/>
	<path class="st0" d="M435.1,260.9c-1.7,1.3-2.5,2.2-3.5,2.6c-1.5,0.6-3.4,2-4.6,1c-1.8-1.4,0.3-3,0.9-4.3c1.9-4.9,1.1-9.9,1.1-14.8
		s1.7-9.2,3.3-13.7c-0.7,6.4-1,12.3,3.4,17.8c2.3,3,5.3,5.4,8.8,7c5,2.1,7.2,6.1,8.8,10.8c0.8,2.2,0.1,2.7-1.9,2.7
		C444.2,270.2,436.5,271.6,435.1,260.9z"/>
	<path class="st0" d="M122.1,459.9c-1.9-4.1,0.4-7.7,1.3-11.5c-2.4-1-6.5,0.5-6.9-2.7c-0.3-2.9,3.7-3.1,5.9-4.4
		c3.8-2.1,5.3-6.3,8.6-8.9c2.6-2.1,4.7-4.7,8.1-5.5l0,0c0.1,1.9-1.5,2.9-2.6,4.1c-5,5.3-5.6,11.5-3.3,18c1.7,5,3.9,9.5,0.6,15.1
		c-2.1,3.7-3,4.3-5.5,0.8c-0.4-0.6-1.4-0.7-2.2-1C125.1,462.3,123.7,460.9,122.1,459.9z"/>
	<path class="st0" d="M123,279c0.7,1.7,2.5,2.5,3.9,4c-5.8,3.5-11.2,5.4-17.9,2.4c-5.9-2.7-12.3-2-18.1,1.4
		c-0.8,0.5-1.6,1.6-2.5,0.5c-0.7-0.9-0.1-1.9,0.6-2.6c1.8-1.8,3.3-3.8,5.4-5.1c3.2-2.1,5.7-5.1,7.1-8.7c1-2.3,2.2-3.1,4.5-2.6
		c0.2,2.5,1.3,4.9,0.4,7.8C113.5,272.7,116.1,273.2,123,279z"/>
	<path class="st0" d="M379,152.1c-1.6-0.1-3,0.8-3.5,2.3c-1.2,4.4-5.1,3.5-8,4.2c-1.6,0.4-3.5-0.3-3.2-2.6c0.3-2,1.6-3.5,3.8-2.7
		c3.1,1.1,3.9-0.4,3.9-3s-0.1-5,3.6-5.2s4.9,2,5.4,5l0,0l-1,1l0,0L379,152.1L379,152.1z"/>
	<path class="st0" d="M133,138.1c-2.1,0.1-2.5,1.9-3.4,2.9c-2.8,3-5.3,2.4-7.4-0.6c-1.8-2.4-1.8-4.4,2-4.5c1.1,0,2.9,0.2,3.3-0.4
		c3.1-4.1,6.1-2.6,9.7-0.8c1.6,0.8,3.3,1,2.6,3.2s-2.6,2.3-4.5,1.5C134.5,139.2,133.7,138.7,133,138.1z"/>
	<path class="st0" d="M360.3,411.5c1.4-2.2-0.5-5.6,3.1-6.4c2.5-0.5,4.1,1.6,2.9,3.9c-0.5,1-1.9,1.8-2,2.8c-0.3,3-2,3.3-4.4,3.2
		c-1.5,0.1-2.9,0.7-4,1.8c-1,0.9-1.6,2.9-3.5,1.6c-1.6-1-2.5-2.9-2-4.7c0.5-1.7,1.2-3.5,3.5-3.7C356,409.9,358.3,410.4,360.3,411.5z
		"/>
	<path class="st0" d="M176.7,318.7c-1-2.3-2.1-4-4.1-5c-1.1-0.6-3.1-1.7-1.6-3.3c1.3-1.4,3.7-2.5,5-0.1c1.7,3.1,2.6,2,4.4,0.1
		c3.2-3.2,6.5-2.8,8.1,0.6c1.4,2.9-0.2,5.8-3,4.8C181.6,314.4,179.2,315.9,176.7,318.7z"/>
	<path class="st0" d="M298.3,465.8c-3-4-6.5-2.6-9.9-2.1c-1.4,0.2-1.8-1.4-2.1-2.4c-0.6-2,0.9-3,2.1-4.1c1.3-1.3,3.1-1.8,4.5-0.5
		c2.5,2.4,4.4,4.3,7.2,0.2c1.1-1.7,3.2-0.6,4.3,0.7c1.4,1.6,0.1,2.9-1.4,3.4C300.7,461.7,299,463.5,298.3,465.8z"/>
	<path class="st0" d="M107.1,264c0.2-1.5-0.7-3.5,1.8-3.9c1.6-0.4,3.2,0.5,3.7,2.1c0,0.1,0,0.2,0.1,0.3c0.6,2.3,1.6,2.5,3.9,2
		c5.8-1.3,8,1.5,6.4,7.5c-4.4,0.4-7.4-4.2-12-3.4c-0.2,0-0.8-1.3-1.2-2C109.2,265.4,108.7,264.1,107.1,264z"/>
	<path class="st0" d="M303,119.1c2.7,0,5.2-1.5,8-1l0,0C309.6,122,306.1,122.4,303,119.1z"/>
	<path class="st0" d="M122.9,195.4c-1,3-3.1,3.6-5.4,3.4c-0.9,0-1.6-1.1-1-1.7C118,195.4,120.3,195.4,122.9,195.4z"/>
	<path class="st0" d="M85.1,291c0.1-1,0.1-2,1.3-2.3c0.1,0,0.5,0.4,0.5,0.6C87,290.6,86.1,290.9,85.1,291L85.1,291z"/>
	<path class="st0" d="M139.1,427l1-0.8C140.4,427.5,139.3,426.7,139.1,427L139.1,427z"/>
	<path class="st0" d="M285,537.9l-0.8-1C285.4,536.7,284.7,537.6,285,537.9L285,537.9z"/>
	<path class="st0" d="M85.1,291l-0.4,1.3C83.8,291.6,84.7,291.4,85.1,291L85.1,291z"/>
	<path class="st0" d="M110,395l0.4-0.4L110,395L110,395z"/>
	<path class="st0" d="M286,172l-0.4-0.2L286,172L286,172z"/>
	<path class="st0" d="M340,573.9l-0.4-0.2L340,573.9L340,573.9z"/>
	<path class="st0" d="M388,435l0.4,0.2L388,435z"/>
	<path class="st0" d="M561.9,169c-6.6,5.5-14.3,6.6-22.4,4.9c-3.5-0.8-6.9-0.7-10.4-0.9c-1.9-0.1-4.9,1.3-4.6-2.9
		c0.1-1.1-1.5-0.9-2.4-1.1c-1.6-0.3-3.2-0.7-4.8-1c-4.3-1-5.2-3.7-2.4-6.7c3.4-3.7,2.6-6.7,0.4-10.6c-2.7-4.8-2.1-5.8,3.3-6.8
		c4-0.7,7.2-1.6,8.3-6.6c0.9-4,3.5-4.2,7.2-1.5c2.3,1.7,3.7,5.8,7.8,3.4c0.2-0.1,0.7,0.2,0.8,0.4c4.4,7.1,13.1,10.4,16.1,18.6
		C560.2,161.7,561,165.4,561.9,169L561.9,169z M553.9,164L553.9,164c1.4-3.8,1.1-8.2-3.2-8.2s-5.5-2.2-7.7-4.3
		c-1.5-1.5-3.1-3-4.8-4.3c-1.2-0.9-3-1.8-3.9,0c-2.1,4.3-6,3.8-9.7,4c0.2,3.1,4.7,3.5,3.6,7.3c-1.4,4.8,0.5,6.9,5.8,7.4
		c2.1,0.2,4.3,0,6.5,0.1c1.2,0.1,2.9-0.6,2.9,1.6c0,4.4,3.5,2.4,5,2.1c2.6-0.6,6.4,0.1,7-4C555.6,165.3,554.5,164.6,553.9,164
		L553.9,164z"/>
	<path class="st0" d="M509.9,311c0.2-9.6,3.2-17.8,11.3-23.7c1.7-1.2,2.9-3.1,4.5-4.6c1.2-1.2,1.8-4.1,4.5-1.6
		c0.8,0.8,1.4-0.5,1.7-1.1c0.6-1,1.5-1.8,2.6-2.3c5.9-4.1,7.9-3.7,10,3.1c0.8,2.7,1.9,3.5,4.4,3.3s6-0.4,7.2,2.2c1,2.5,0,5.7-2,7.8
		s-1.7,3.5-0.1,5.5c4.6,6,3.5,8.4-4.2,9.4c-2,0.2-5.1-1.1-4.4,3.1c0.1,0.7-0.9,0.9-1.5,0.9c-6.3-0.7-11.9,2.8-18,2.9
		C520.1,316,514.5,315.1,509.9,311L509.9,311z M545.9,291.6c-3.2-0.5-6.6,2.2-8.5-1.6c-2.1-4.2-4.5-3.6-7.3-0.7
		c-1.6,1.6-3.2,3.4-4.6,5.2c-1.1,1.5-1.7,6.1-5.2,2c-0.2-0.2-1.2,0.2-1.7,0.5c-2.9,1.6-4.4,9.2-2.4,12.1c0.8,1.1,9.2,2.6,10.5,1.8
		c0.4-0.2,1-0.7,0.9-1c-0.5-3.8,2.3-2.7,4.1-2.8c3.5-0.1,6.9-0.9,10-2.5c1-0.5,2.7-1.4,1.8-2.4C540.1,297.9,544.2,295.3,545.9,291.6
		L545.9,291.6z"/>
	<path class="st0" d="M543.9,19.9c-3.9,1.9-6.6,4.3-10.1,5.5c-4.2,1.3-7.6,4.3-9.4,8.3c-2.1,4.6-5.6,8.2-11.3,8.6
		c-1.5,0.3-2.8,1-3.8,2.2c-3.6,3.4-4.2,3.3-5.3-1.8c-0.5-2.3-1.2-2.7-3.3-2.1c-1.8,0.4-3.6,0.5-5.4,0.5c-2.6,0-6.1,0.3-6.9-2.4
		c-0.9-3,1.8-5.4,4.2-7.3c1-0.7,2-1.2,3.1-1.6c2.6-1,4-2.5,2-5.2s-0.3-3.7,2.1-4.2c7.3-1.6,14.6-2.7,21.7,0.8
		c6.4,3.1,12.2-1.3,18.3-1.5C540.9,19.6,542,18.8,543.9,19.9z M523.5,27.5l-0.5-1.4c-3.5,0-7,0-10.5,0c-3.2,0-3.4,3.1-4.1,4.9
		c-1,2.5,2,2,3.3,2.4C517.9,35.6,518.9,28.4,523.5,27.5L523.5,27.5z"/>
	<path class="st0" d="M494.2,105.7c2.1-2.7,4.9-4.8,8.1-6.1c3.8-1.7,6.9-4.7,8.6-8.5c2.4-5.1,5.2-9.6,11.4-10.8
		c1.1-0.4,2.1-1.1,2.8-2c2.2-2,4.3-4.2,5.1,1c0.4,2.3,2.1,2.2,3.8,1.7c2.5-0.8,5.2-1.1,7.8-1c4.6,0.3,5.6,2,3.6,6
		c-1.3,2.8-3.6,4.9-6.5,6c-2.4,1-3.2,2-1,4.2c2.5,2.6,0.9,3.6-1.8,4.6c-7.9,3-15.7,4.5-24,1.3c-2.5-1-5.2,0.5-7.6,1.7
		C501.5,105.4,498.3,106.6,494.2,105.7z M512.7,98.1c2.3-0.2,4.6-0.2,6.9,0c4.5,0.7,6.2-2.4,7.9-5.4c0.7-1.2,0.9-3-0.8-3.3
		c-2.5-0.4-5.3-2.2-7.6,1C517.2,92.9,514.5,94.7,512.7,98.1z"/>
	<path class="st0" d="M564.6,502.3c-1.3-6.2-4.8-9.1-9.6-11.8c-4.2-2.4-9.4-5.2-9.3-11.8c0-2.4-2.8-2.4-4.4-3.5
		c-0.8-0.6-2-0.9-1.9-2c0.1-1.3,1.4-1.3,2.4-1.1c4.3,0.6,7.2-0.9,9.5-4.6c1.3-2.2,4.1-2.6,6.7-2.4c5.3,0.3,10.2-0.5,14.5-4.9
		c0.2,9.1-5.1,13.2-12,16.1C572.9,485.2,573.4,490.4,564.6,502.3z"/>
	<path class="st0" d="M507.2,335.7c6.2,1.6,10.9,2.4,14.6-2c1.1-1.3,3.2-0.6,4.8-0.7c4.6-0.2,9.3,0.6,13.8-1.2
		c2.4-1,2.7,0.4,1.9,2.2c-1.7,3.8-3.2,7.8-8.2,8.5c-1.9,0.3-3.7,1.3-6.1,2.1c3.9,2.9,7.1,6.1,7.7,10.8c0.5,3.3,0.2,6.7-1.9,9.6
		c-0.9,1.2-1.8,2.3-2.9,3.4c-1.9,1.9-3.1,1.9-3.2-1.2c-0.1-3.5-2.2-5.8-4.6-7.9c-4.7-4.2-11.3-7.3-8.8-15.6c0.3-1-0.6-1.4-1.5-1.6
		C510.4,341.3,509.5,339,507.2,335.7z"/>
	<path class="st0" d="M531,34.1c-4.5,10.6-0.6,19.1,6.5,27.1c3.2,3.6,1.2,8.3,1.3,12.5c0,1.4-1.5,1-2.4,0.5
		C531,71.1,523.7,70,524,61.4c0.1-2.5-1.5-1.9-3.1-1.5s-3.6,0.6-4.4-1.3c-0.7-1.6,1.3-2,2-3c2.4-3.5,4.8-6.9,5.9-11.3
		C525.3,40.2,527.7,36.6,531,34.1L531,34.1z"/>
	<path class="st0" d="M573.7,445c0.5,2.3-0.6,4.7-2.7,5.9c-2.6,1.5-5.6,2.1-8.3,3.7c-3.8,2.3-5.8-3.1-9.1-4.4
		c-1.9-0.8-0.2-3.7,1-5.1c1.9-2.2,0.8-5.2,2.5-7.4c0.8-1.3,2.2-2.1,3.7-2.2c1.3,0,1,1.4,1.1,2.4C562.9,446.4,564.9,447.6,573.7,445z
		"/>
	<path class="st0" d="M568.8,443c-3,0.3-4.5-1.8-4.6-4.4c-0.1-2.9,2.1-4.4,4.9-4.5s4.7,1.1,4.7,3.9S572.5,443.1,568.8,443z"/>
	<path class="st0" d="M546.3,464.7c2.3-4.1,3.2-7.6,5.5-10.5c1.2-1.5,2.5-1.7,3.8-0.5c1,1,2.1,3,0.7,3.9
		C553.3,459.8,551.3,463.3,546.3,464.7z"/>
	<path class="st0" d="M561.9,169.1c3.4-0.3,4.7,2.3,6.2,4.6C566.2,172,560.8,174.8,561.9,169.1L561.9,169.1z"/>
	<path class="st0" d="M509.9,311c-0.3,4.3-3.4,4.3-7.4,4.8C504.9,312.7,506.9,311,509.9,311L509.9,311z"/>
	<path class="st0" d="M531.9,33.1l0.5-0.4L531.9,33.1L531.9,33.1z"/>
	<path class="st0" d="M530.9,34l1-1l0.1,0.1L530.9,34L530.9,34z"/>
	<path class="st0" d="M579.9,140.1l-0.2,0.4L579.9,140.1L579.9,140.1z"/>
	<path class="st0" d="M49.3,390.4c-9.4,1.7-17.3,3.7-21.6,12.2c-2,3.9-1.6,8-2.5,12c-1.1,4.7-4.9,10-7.7,10.1
		c-1.6,0-5.3-7.5-5.3-10.9c0-1.3-0.1-2.9,0.6-3.8c2.6-3.6,4.2-6.6-0.7-9.9c-1.8-1.2,0.2-2.2,1.6-2.1c6.1,0.8,10.8-2.5,15.8-4.9
		c5.4-2.6,11.5-2.6,17.2-4C47.2,389,47.8,389.6,49.3,390.4z"/>
	<path class="st0" d="M112,584.9c1-3.8,3.9-6.7,4.2-10.9c0.4-6.2-1.3-11.7-5.3-16.1s-0.7-9.1-1.3-13.5c-0.1-0.8,1-1.2,1.9-1.1
		c5.3,0.3,11.7,6.5,11.5,11.7c-0.2,4,1.2,5.5,5.1,5c1.2-0.1,3-0.7,3.4,1c0.4,1.3-1.2,1.7-2.2,2.3c-4.8,3.3-6.8,8.5-9.2,13.4
		c-1.8,3.6-4,6.8-8,8.3L112,584.9z"/>
	<path class="st0" d="M40.1,387c-3.3,0-5.5-2.2-7.6-4.2c-4.6-4.3-8.6-9.1-15-11.1c-3-0.9-0.5-2.8,0.9-3.2c4.3-1.1,4.9-3.3,3.1-7.1
		c-1.1-2.5-0.5-5.2,1.9-7.2c2.7-2.2,4.9-5,6.4-8.3c3,5.8,6.4,10.3,4.4,17.1c-2.4,8-2.4,16.2,5.4,22.1
		C39.9,385.5,39.9,386.3,40.1,387L40.1,387z"/>
	<path class="st0" d="M40.1,387l1.3,0.4l-0.3,0.4L40.1,387L40.1,387z"/>
	<path class="st0" d="M112.1,585l-1,1l-0.1-0.1L112.1,585L112.1,585z"/>
	<path class="st0" d="M583.9,386c2-1.7,3.8-3.2,0.9-5.8c-1.3-1.1-0.4-2.3,1.1-2.1c2.3,0.3,4.7,1.3,5.7,3.3c0.8,1.6,1,4.1-0.5,5.6
		c-1.8,1.7-4.4,2.4-6.9,1.9C582.4,388.3,583.6,387,583.9,386L583.9,386z"/>
	<path class="st0" d="M583.9,386c-0.8,0-1.6,0-2.4-0.1c-1.5-0.2-2.5-1-2.4-2.5s1.2-2.2,2.6-2.3c1.7-0.1,2.2,1,2.2,2.5L583.9,386
		L583.9,386z"/>
	<path class="st0" d="M291,328c0,0.2,0,0.3,0,0.5c-0.5,1.9-1.9,3.5-3.8,4.1c-0.8,0.2-1.1-0.7-1-1.3C286.8,328.8,288.6,327.9,291,328
		L291,328z"/>
	<path class="st0" d="M291,328l1-0.7C292.3,328.4,291.3,327.7,291,328L291,328z"/>
	<path class="st0" d="M164,562.9c-1.8,0-3.6,0.1-5.5,0c-2.4,0-4.2-1.9-4.2-4.3c0-0.1,0-0.2,0-0.3c0.3-2.5,1.8-4.7,4.1-5.8
		c1-0.6,1.6,0.3,1.5,1.2c-0.4,3.2,0.6,5.2,3.9,6.2C165.5,560.5,164.3,561.9,164,562.9L164,562.9z"/>
	<path class="st0" d="M167,554.4c0,2-0.7,3.3-2.5,3.4s-3.2-0.7-3.3-2.8c-0.1-1.9,1.4-2.6,2.9-2.9C165.9,551.8,166.6,553.1,167,554.4
		z"/>
	<path class="st0" d="M148.6,565.4c0.6-2.3,1.7-4.1,4.1-4.2c0.6,0,1.1,0.4,1.1,1c0,0.1,0,0.2,0,0.3
		C153.1,564.9,150.6,564.8,148.6,565.4z"/>
	<path class="st0" d="M493.5,520.2c-2.6,3.7-4,7.1,1.5,9.5c-3.4,2.4-6.1,0.6-8.4-0.6c-1-0.5-1.8-4.3-1.2-4.8
		C487.5,522.5,489.5,519.6,493.5,520.2z"/>
	<path class="st0" d="M495.6,522.2c1.8,0.4,3,1.3,3,2.9c0,1.3-0.6,2.8-2.3,2.7c-1.6,0-2.9-1.2-3-2.8
		C493.2,523.5,494.6,522.9,495.6,522.2z"/>
	<path class="st0" d="M476.7,527.9c2-2.1,3.9-3.6,6.5-2.4c0.3,0.1,0.5,1,0.4,1.2C481.7,529.1,479.2,527.5,476.7,527.9z"/>
	<path class="st0" d="M553.9,164c0,1.2-0.6,2.3-1.5,3c-1.1,1-2.3,1.3-3.5,0.2c-0.9-0.8-1.2-2.1-0.7-3.2c0.5-1.3,1.9-2,3.2-1.6
		C552.3,162.9,553.2,163.4,553.9,164L553.9,164z"/>
	<path class="st0" d="M520,304c1.7,0,3,0.4,2.8,2.5c-0.2,1.5-1.1,2.5-2.6,2.3s-3.3-0.9-3.1-3C517.2,303.9,518.8,304.1,520,304z"/>
</g>
</svg>
