<?xml version="1.0" encoding="utf-8"?>
<!-- Generator: Adobe Illustrator 25.0.0, SVG Export Plug-In . SVG Version: 6.00 Build 0)  -->
<svg version="1.1" id="Capa_1" xmlns="http://www.w3.org/2000/svg" xmlns:xlink="http://www.w3.org/1999/xlink" x="0px" y="0px"
	 viewBox="0 0 84.4 100" style="enable-background:new 0 0 84.4 100;" xml:space="preserve">
<style type="text/css">
	.st0{fill:#A18262;}
</style>
<g>
	<path class="st0" d="M80,100c0-1.2-0.6-2.2-1.2-3.1c-1.6-2.4-3.8-3.8-6.5-4.5c-1.3-0.3-2.6-0.8-4-1.2c-0.1,0.6-0.2,1.2-0.3,1.9
		c-0.4,2.2-1.2,4.3-2.4,6.3c-0.1,0.2-0.2,0.4-0.3,0.6c-6.1,0-12.2,0-18.2,0c-0.1-2.9,1-5.5,2.7-7.9c1.3-1.8,2.8-3.5,4.1-5.4
		c2.3-3.1,3.2-6.7,3.4-10.6c-0.1,0.2-0.1,0.4-0.2,0.6c-0.6,1.7-1,3.4-1.8,5c-1,1.9-2.3,3.7-3.7,5.4c-1.5,2-3.2,3.7-4.5,5.9
		c0,0-0.1,0.1-0.2,0.1c-0.3-2.3-0.6-4.5-3.1-5.8c0.8,1.9,0.4,3.7,0.4,5.5C39.4,90.9,24.2,72.6,24,68.8c1.8,1.5,3.7,3.2,5.7,4.7
		c2,1.6,4.1,2.9,6.5,3.9c-0.5-0.5-1.1-1-1.7-1.6c-2.3-2-4.6-4-6.9-6.1c-0.7-0.6-1.2-1.3-1.9-1.9c-1.9-1.8-3.3-3.9-4.7-6.2
		c1,0.2,2,0.5,3,0.6c1.3,0.2,2.4,0.1,2.9-0.2c-3.6-0.6-6.5-2.1-8.1-5.5c0.9,0.6,1.7,1.3,2.6,1.9c2,1.4,4.2,2.2,6.7,2.1
		c2.2-0.1,4.1-1.1,6-2.1c1.9-1,3.8-2.1,5.8-3.1c0.4-0.2,0.9-0.3,1.3-0.5c-0.4-0.1-0.9-0.1-1.3,0.1c-1.3,0.5-2.6,0.9-3.8,1.5
		c-1.7,0.8-3.4,1.9-5.1,2.7c-1.7,0.8-3.3,0.8-4.9-0.3c-1.3-0.9-2.6-1.6-4-2.3c-2.2-1.1-4.4-2-6.6-3.1c-1.5-0.8-2.9-1.8-3.7-3.5
		c-0.1-0.2-0.3-0.4-0.5-0.7c0,0.5,0,0.9,0,1.3c0,0.4-0.2,0.6-0.7,0.5c-0.9-0.2-1.2,0-1.3,0.9c-0.1,1.5-0.3,3-0.5,4.4
		c-0.2,2.2-0.4,4.3,1.7,6.1c-0.9,0-1.6,0-2.3,0c0.1,0.9,0.6,1.4,1.2,1.8c0.5,0.3,1,0.4,1.4,0.7c0.3,0.2,0.6,0.5,0.9,0.7
		c0.5,0.2,1,0.4,1.5,0.5c0.5,0.2,0.7,0.5,0.6,1c-0.3,1.6-0.5,3.3-0.8,4.9c-0.2,0.9-0.6,1-1.2,0.4c-0.7-0.6-1.3-1.4-2-2.2
		C10,70.4,10,70,10,69.7c0.1-0.5,0.2-1,0.3-1.5c0,0-0.1,0-0.1,0c-0.2,0.5-0.5,1-0.7,1.6c-0.2-0.2-0.3-0.4-0.4-0.5
		c-1-1.6-2-3.1-2.9-4.7c-0.7-1.2-0.8-2.5-0.6-3.9c0.2-2.1,0.3-4.2,0.5-6.3C6,53,6,51.6,6.1,50.2c0-0.9,0.5-1.5,1.4-1.7
		c0.5-0.2,0.9-0.3,1.4-0.5c0.7-0.4,1-1.2,0.7-2c-0.5,0.9-1.2,1.5-2.2,1.8c-0.2,0.1-0.5,0.1-0.8,0.1c0-0.3-0.1-0.6,0-0.8
		c0.8-1.7,2.1-2.4,3.9-2c0.5,0.1,1,0.3,1.5,0.5c1.5,0.7,2.9,1.4,4.4,2c2.2,0.9,4.5,1.2,6.9,0.9c1.8-0.2,3,0.9,3.2,2.6
		c0.1,0.5,0.1,1,0.1,1.5c0.8-2.4-0.8-4.4-1.1-6.8c-1.2,1.6-1.6,1.8-2.6,1.9c-0.3-1.5-0.1-3,0.6-4.4c1-2,2.5-3.5,4.4-4.7
		c0.8-0.5,1.7-0.9,2.5-1.4c-2.5,0.4-4.8,1.4-6.5,3.4c-1.7,2-2.3,4.3-2.1,7.1c-1.2-1.8-0.7-3.5-0.4-5.4c-1.6,1.3-2.3,3-2.8,4.8
		c-0.1-0.2-0.2-0.5-0.2-0.7c-0.3-3.1,0.9-5.7,2.7-8.2c0.7-0.9,1.5-1.7,2.2-2.7c2.1-3.1,4.7-5.8,7.3-8.4c2.1-2.2,4.1-4.4,5.1-7.4
		c0.1-0.2,0.3-0.3,0.4-0.4c1-0.5,2-1.2,2.6-2.1c0.5-0.8,0.8-1.8,1.2-2.7c1.7,5-0.1,9.2-3,13.2c2.3-2.3,3.9-4.9,4.5-8.1
		c0.6-3.4-0.3-6.5-1.5-9.6c-0.5-1.2-1-2.5-1.4-3.7c-0.2-0.4-0.1-0.7,0.3-1c1-0.6,1-1.7,1.4-2.8c-1.9,0.7-2.7,2.6-2,4.3
		c0.6,1.3,1,2.7,1.2,4.2c0.2,2.3-0.1,4.4-1.7,6.2c-0.4,0.4-0.9,0.8-1.2,1.2c-1.3,1.6-3.5,1.6-5,0.3c-1-0.9-1.8-1.9-2.8-2.8
		c-0.5-0.5-1.2-0.8-1.9-1.2c-0.5-0.2-0.9,0-1.2,0.3c0.6,0.1,1.3,0,1.8,0.3c1.3,0.7,2,2,2.9,3.1c-1.4-0.7-2.9-1-4.4-0.8
		c-0.6,0.1-1,0.3-1.3,0.8c-0.2,0.4-0.5,0.8-0.9,1.1c-0.2,0.1-0.5,0.2-0.7,0.2c-0.5,0-0.9-0.1-1.4-0.2c-0.5-0.1-1-0.1-1.3-0.6
		c1-0.4,2-0.8,3-1.3c-0.5,0-1,0.1-1.5,0.3c-1,0.3-2,0.8-3.1,0.1c-0.7-0.5-0.9-0.8-0.8-1.7c0.1-0.5,0.1-1.1,0.1-1.7
		c0-0.9,0.4-1.4,1.2-1.8c0.5-0.2,1.4,0.1,1.8,0.6c0.3,0.3,0.5,0.7,0.2,1.1c-0.3,0.5-0.6,0.9-1,1.4c0.3-0.1,0.6-0.2,0.8-0.4
		c0.5-0.5,1-1.1,1.5-1.7c0.1,0,0.1,0,0,0c-0.3,0-0.7,0-0.9-0.1c-0.3-0.1-0.5-0.4-0.7-0.7c0,0,0.1-0.4,0.2-0.4c0.5-0.1,1-0.2,1.4-0.3
		c0.5-0.1,1-0.3,1.5-0.4c-0.4-0.1-0.7,0-1,0.1c-0.3,0.1-0.6,0.1-0.9,0.2c-0.3,0-0.6,0.1-0.7,0.1c3-1.7,6.1-3.4,9.2-5.2
		c0.1,0.1,0.1,0.1,0.2,0.2c-0.4,0.4-0.7,0.7-1.2,1.1c1-0.3,1.1-0.4,1.4-1.3c0.6-1.3,1.2-1.6,2.5-1c0.5,0.2,1,0.4,1.6,0.5
		c0.3,0.1,0.7,0,1,0c0,0,0-0.1,0-0.1c-0.8-0.2-1.6-0.4-2.4-0.6c0.8-0.6,1.6-0.6,2.5-0.5c0.7,0.1,1.3-0.1,1.6-0.7
		c0.5-1.1,1.3-1.9,2.1-2.6c0.5-0.4,0.9-0.8,1.3-1.2C41.2,0.9,41.3,1,41.4,1c-0.2,0.9-0.3,1.8-0.6,2.6c-0.3,0.8-0.9,1.6-1.3,2.4
		c3.7,2.5,6.5,5.8,8.5,9.9c2,4.2,2.5,8.5,1.4,13c-0.2-1.4-0.3-2.8-0.5-4.2c-0.3-3.2-0.9-6.3-2.3-9.2c-0.7-1.4-1.5-2.6-2.6-3.7
		c0,0.1,0,0.1,0,0.1c0.2,0.4,0.4,0.7,0.7,1.1c3.5,5.4,4.4,11.4,3.8,17.7c-0.1,0.9-0.4,1.5-1.2,2c-1.6,0.9-2.4,2.5-3.2,4.1
		c-0.3,0.7-0.6,1.4-0.8,2.1c0.4-0.3,0.7-0.6,1-0.9c1.6-1.5,3.6-2.2,5.7-2.7c1.3-0.3,2.6-0.6,3.9-0.7c1.1-0.1,2.1-0.2,3.2-0.2
		c0,0.1,0,0.1,0.1,0.2c-1.2,0.8-2,1.9-1.9,3.4c0.8-1.1,1.8-1.7,3.1-1.8c1.6-0.2,3.2,0,4.7,0.3c0.1,0,0.3,0.1,0.4,0.2
		c1,1.2,1.2,2.6,0.8,4.1c-0.5,1.7-1.8,2.8-3.1,3.9c-1.5,1.3-3.4,1.6-5.3,1.8c-2.4,0.2-4.9,0.1-7.2,1.2c0.9-1.5,2.3-2.1,3.8-2.6
		c-1.4-0.1-2.8-0.1-4,0.6c0.5-0.9,1.4-1.3,2.3-1.4c1.7-0.2,3.3-0.3,5-0.4c1.7-0.1,3.4-0.3,5-1c1.1-0.5,1.9-1.2,2.2-2.4
		c-0.8,1-1.8,1.7-3.2,1.8c1.2-0.9,1.8-2,1.5-3.6c-0.3,1.7-1.3,2.5-2.6,3.1c-0.8,0.3-1.7,0.6-2.6,0.8c-1.8,0.3-3.5,0.4-5.3,0.7
		c0-0.1,0-0.1,0-0.2c0.1,0,0.3-0.1,0.4-0.1c1.5-0.6,3.1-1.2,4.6-1.8c0.6-0.3,1.1-0.7,1.3-1.5c-1.5,0.3-2.9,0.6-4.2,1
		c-2.5,0.8-4.6,2.2-5.9,4.6c-0.8,1.5-1.2,3.1-1.4,5c1.5-1.2,3-1.9,4.9-2c-0.5,2.9-0.9,5.8-0.5,8.7c0.2,1.9,0.5,3.8,0.8,5.7
		c0.4,2.5,1,5.1,1.4,7.6c0.5,4-0.2,8-1.3,11.8c-0.2,0.9-0.5,1.7-0.7,2.6c2.7-5.3,3.8-10.9,3.3-16.8c1.4,1.3,2.8,2.5,4.1,3.7
		c2,1.9,4,3.8,5.9,5.7c2.1,2.2,3.9,4.5,5,7.4c0.3,0.7,0.4,1.4,0.6,2.1c2.8-0.2,5.5,0,8,1.2c2.6,1.3,4.4,3.2,5.3,6
		c-3.1-4.8-7.8-6.4-13.2-6.7c0,0.4,0.1,0.8,0.1,1.1c1.6,0.1,3.1,0,4.6,0.4c3.7,0.8,6.6,2.7,8.1,6.3c0.8,1.7,1,3.5,0.5,5.3
		C81.1,100,80.5,100,80,100z M41.4,46.5c-0.5-1.5-1.3-2.6-2.4-3.8c1.9,0,3.7,0.2,5.3-1c-2.8,0.6-5.4-0.4-8-1.1
		c-2.1-0.6-4.3-0.9-6.5-0.6c-1,0.1-1.9,0.4-2.7,1.3C32.9,40.6,37.5,42.5,41.4,46.5z M46.3,59.9c-0.2,1.8-1.1,3.2-2.5,4.4
		c1.8-0.3,2.8-1.4,3.4-3c0.8-2.1,1-4.4,0.7-6.7c-0.1-0.8-0.2-1.7-0.2-2.4c-0.5,1.6-1,3.3-1.6,4.9c-0.7,1.7-1.9,3-3.4,4.2
		C43.8,61.4,44.1,61.2,46.3,59.9z M25.2,36.3c1.7-2.2,3.8-4,5.9-5.8c2-1.7,4.1-3.3,5.7-5.5c1-1.4,1.6-2.9,1.9-4.5c0-0.1,0-0.2,0-0.3
		c0-0.1,0-0.1,0-0.3c-0.4,0.7-0.7,1.4-1.1,2.1c-1.3,2.2-3.1,4-5,5.8c-2,1.9-4.1,3.9-6,5.9c-0.9,1-1.6,2.2-2.3,3.3
		c-0.1,0.2-0.2,0.5-0.3,0.7c0,0,0.1,0,0.1,0.1C24.5,37.3,24.8,36.7,25.2,36.3z M30.2,55.3c-0.1,0.4-0.3,0.9-0.6,1.3
		c-0.7,1.2-1.6,1.4-3.1,0.9c0.5,0.8,1.8,1.6,2.7,1.5c1.1-0.1,1.6-0.9,2-1.8c0.8-2.2,0.5-4.3-0.4-6.2C30.6,52.3,30.4,53.8,30.2,55.3z
		 M68.4,89.6c0,0.2,0.3,0.4,0.5,0.5c1.2,0.3,2.3,0.6,3.5,1c2,0.6,4,1.3,5.6,2.7c0.5,0.5,1,0.9,1.4,1.2c-2.5-3.8-6.4-5.5-11-6.4
		C68.4,88.9,68.3,89.3,68.4,89.6z M33.4,47.8c-0.6-0.2-1.2-0.4-1.7-0.7c-0.7-0.4-0.7-0.7,0-1.1c0.5-0.3,1-0.6,1.4-1
		c-0.9,0.2-1.8,0.4-2.6,0.7c-0.5,0.2-0.9,0.6-1.3,1c-0.5,0.6-0.4,1.1,0.4,1.3c0.6,0.2,1.3,0.3,2,0.4c1.4,0.2,2.7,0.3,4.1,0.5
		c0,0,0,0,0-0.1C35,48.4,34.2,48.1,33.4,47.8z M20.5,51.4c-1.4-1-2.7-2.1-4.1-2.9c-1.1-0.7-2.4-1.1-3.6-1.6c3.2,2.3,6.2,4.8,10,6
		C22.1,52.4,21.3,51.9,20.5,51.4z M18.7,13.6c-0.1,0.1-0.2,0.4-0.2,0.6c0.2,0.1,0.4,0.1,0.5,0.2c0.1,0,0.4,0.1,0.4,0.1
		c0,0.1,0,0.3-0.1,0.5c-0.1,0.3-0.3,0.5-0.5,0.8c0,0.1,0.1,0.3,0.1,0.4c0.1,0,0.3-0.1,0.4-0.2c0.3-0.3,0.6-0.7,1-1
		c0.3-0.3,0.6-0.7,0.3-1.1c-0.2-0.3-0.6-0.5-1-0.8C19.3,13.3,19,13.4,18.7,13.6z M36,8.7c-0.5,0.3-1,0.6-1.3,1
		c-0.7,1-1.5,1.8-2.7,2.4c0.8,0,1.7-0.6,2.5-1.5c0.2-0.2,0.4-0.5,0.6-0.7c0.7-0.9,1.6-1.1,2.7-0.8c0.1,0,0.2,0.1,0.4,0.1
		C37.5,8.5,36.8,8.3,36,8.7z M19.9,49.2c1.4,0.8,2.2,2.4,3.9,2.8C22.6,50.9,21.8,49.3,19.9,49.2z M25.4,10.6c0,0.1,0,0.1,0.1,0.2
		c1.6-0.5,3.5-0.2,4.8-1.7C28.6,9.6,27,10.1,25.4,10.6z M33.8,9.2c0.6-0.5,1.2-1,1.8-1.7c-0.3,0.2-0.7,0.4-1,0.6
		c-0.2,0.1-0.4,0.3-0.5,0.5c-0.6,0.7-1.3,1-2.2,0.5C32.5,9.7,33.1,9.7,33.8,9.2z M31.6,7.9c0.1,0.1,0.1,0.2,0.2,0.3
		c0.3-0.2,0.6-0.4,0.9-0.6c-0.1-0.1-0.2-0.2-0.2-0.3C32.1,7.5,31.9,7.7,31.6,7.9z"/>
	<path class="st0" d="M45.1,100c-0.1-0.9-0.2-1.9-0.4-2.8c-0.4-1.7-1.4-3-2.6-4.2c-0.3-0.3-0.7-0.2-0.9,0.1c-0.3,0.5-0.6,1-0.8,1.5
		c-0.3,0.9-0.6,1.8-0.8,2.7c-0.1,0.5,0,1,0.1,1.4c0.1,0.4,0.2,0.8,0.3,1.2C41.7,100,43.4,100,45.1,100z"/>
	<path class="st0" d="M77.8,100c-0.1-2.8-1.6-4.8-4-6.1c-1.1-0.6-2.2-0.9-3.4-1.3c1.9,1.5,3,3.7,4.4,5.6c0.4,0.6,0.9,1.2,1.3,1.9
		C76.7,100,77.3,100,77.8,100z"/>
	<path class="st0" d="M75,100c-1-1.4-1.9-2.9-2.9-4.3c-0.5-0.7-1.1-1.4-1.9-1.6c1,2,2,3.9,3,5.9C73.8,100,74.4,100,75,100z"/>
	<path class="st0" d="M84.3,100c-0.5-0.9-1-1.9-1.4-2.8c-0.1,0-0.2,0-0.2,0.1c0,0.9,0,1.8,0,2.7C83.1,100,83.7,100,84.3,100z"/>
	<path class="st0" d="M79.1,100c-0.1-0.5-0.3-1-0.5-1.6c-0.2,0.7-0.4,1.1-0.6,1.6C78.4,100,78.8,100,79.1,100z"/>
	<path class="st0" d="M56.2,25.1c0.8,0.5,1.6,1.1,2.4,1.6c0.8,0.4,1.7,0.7,2.5,1.1c1.5,0.7,2.8,1.5,3.8,2.8c-0.2-1.3-1-2.3-2-3.1
		c-1-0.8-2.2-1.6-3.2-2.4c-0.5-0.4-0.9-0.8-1.4-1.3c2.6,0.8,5,1.8,7.6,0.8c-4-0.5-7.2-2.2-8.6-6.3c1.8,3,4.2,5,7.9,5.2
		c-0.3-0.1-0.5-0.3-0.8-0.4c-2.6-1.2-4.2-3.2-5.4-5.6c-0.5-1-1-1.9-1.6-2.8c-0.1-0.2-0.3-0.3-0.5-0.6c0.5,3.2-0.9,5.6-2.7,7.8
		c0.6-2.2,0.9-4.4-0.3-6.6c-0.1,0.5-0.2,0.9-0.3,1.3c-0.8-3.4-3.2-4.9-6.5-5.5c2.2,1.5,3.3,3.8,5.1,5.6c0.5,0.5,1,1,1.5,1.5
		c-1.1-0.1-1.8-0.7-2.4-1.4c-0.8-1-1.5-2-2.3-3c-0.5-0.6-1-1.2-1.8-1.4c3,4.3,4.8,9.2,8.1,13.3c-1.2-0.7-2-1.8-2.8-2.9
		c0.3,1.5,0.9,3,1.9,4.1c1.3,1.4,2.7,2.6,4.1,3.9c0.4,0.4,0.8,0.8,1.2,1.2c0.1,0.1,0.2,0.4,0.2,0.6c0,0.1-0.3,0.2-0.5,0.2
		c-0.6,0-1.2,0-1.7-0.1c-2.8,0-5.6,0.1-8.4,0.9c1.5-1,3-1.4,4.6-1.5c1.6-0.1,3.1-0.2,4.7-0.2c-0.5-0.4-1.1-0.9-1.6-1.3
		c-2.5-1.9-4-4.5-5.1-7.5c-0.4-1.2-0.9-2.4-1.3-3.6c-0.1-0.4-0.4-0.7-0.6-1c1.1,4.4,2,8.9-0.4,13.2c2-0.9,4-1.2,6.1-0.5
		c-1.8,0-3.5,0.2-5.2,0.8c-1.7,0.6-3.2,1.6-4.1,3.3c2.5-1,5-1.2,7.6-1.4c1.4-0.1,2.8-0.2,4.3-0.3c0.8-0.1,1.6-0.1,2.4-0.3
		c1.3-0.3,1.5-0.7,1-1.9c0,0,0.1-0.1,0.1-0.1c0.5,0.4,1,0.8,1.3,1.3c0.3,0.4,0.2,0.9-0.3,1.1c-0.6,0.2-1.2,0.4-1.8,0.5
		c-1.2,0.3-2.3,0.5-3.5,0.8c-0.5,0.1-0.8,0.7-1.1,1.1c0.9-0.6,1.9-0.7,2.9-0.7c1.4-0.1,2.8-0.2,4.2-0.3c0.2,0,0.4-0.1,0.6-0.2
		c1.9-0.7,2.2-2.2,0.9-3.7c-1.1-1.2-2.6-1.9-4-2.7c-1.2-0.7-2.5-1.4-3.6-2.2C56.5,26,56.3,25.5,56.2,25.1
		C56.1,25.1,56.1,25.1,56.2,25.1z"/>
	<path class="st0" d="M2.2,60.1c0.2-0.9,0.3-1.7,0.4-2.5c0.1,0,0.1,0,0.2,0c0,0.3,0,0.6,0,0.9c-0.2,1.5,0.2,2.9,0.8,4.2
		c0.2,0.5,0.5,0.8,1.2,0.7c-1,1.4,0,2.5,0.6,3.6c0.3,0.5,0.6,0.3,1,0.1c0.4-0.2,0.4-0.5,0.2-0.8C5.7,65,5,63.6,4.9,62.1
		c0-0.6,0.3-1.3,0.2-1.9c-0.1-0.6-0.8-1-1-1.6c-0.7-1.7-0.5-3.4-0.2-5.2c0.4-2.5,1.7-4.7,2.6-7c0.7-1.8,2-2.6,3.4-2.3
		c1,0.2,1.9,0.5,2.8,0.8c0.9,0.4,1.7,0.9,2.6,1.3C16,46.6,17,47,18,47.4c-0.1-0.8-0.4-1.5-0.3-2c0.2-1.2-0.5-1.6-1.3-2
		c-2-1-4-2.1-6-3.1c-0.2-0.1-0.5-0.1-0.7-0.1c0,0.3,0,0.5,0,0.8c0.1,0.3,0.3,0.6,0.5,1c-0.9-0.6-1.6-1.3-2-2.2
		c-0.1-0.2-0.1-0.5-0.1-0.7c0.2,0,0.5-0.1,0.7,0c1.1,0.4,2.2,0.9,3.2,1.4c0.2,0.1,0.4,0.2,0.6,0.2c-1.2-1-2.3-2.1-3.8-2.5
		c-0.5-0.1-1.1,0-1.6,0.2c-0.8,0.2-1.5,0.6-2.3,0.9c-0.9,0.3-1.2,1-0.6,1.9C4.5,41.5,4.8,41.7,5,42c0.9,0.8,1.1,1.6,0.6,2.7
		c-0.4,0.8-1,1.6-1.5,2.4c0.7-2,1.5-3.9-0.5-5.8c0,3.3-1.3,6.2-2.3,9.2c-0.4,1.3-0.8,2.7-1.1,4c-0.3,1.4,0,2.7,0.8,3.9
		C1.4,58.9,1.8,59.5,2.2,60.1z"/>
	<path class="st0" d="M55.1,19.2c1.9-2.9,1.3-7-1.4-9.3c-2.1-1.7-4.5-2.4-7.1-2.3c-0.7,0-1.4,0.1-2,0.1c1.7,0.5,3.5,0.9,5.2,1.6
		c1.8,0.6,3.2,1.8,4.3,3.3c-1.6-1.7-3.6-2.4-5.7-2.8c-2.1-0.4-4.1-1-6-1.9c0.6,1.1,1.5,1.7,2.6,2c1.6,0.5,3.2,0.9,4.8,1.4
		c2.9,0.9,4.8,2.8,5.3,5.9C55.2,17.8,55.1,18.5,55.1,19.2z"/>
	<path class="st0" d="M50.6,51.8c1.5-1.5,3.3-2.1,5.1-2.7c0.9-0.3,1.7-0.6,2.5-1.1c0.4-0.2,0.7-0.7,1-1.1c-1.3,0.6-2.6,0.6-3.9,0.7
		C53,47.8,51.4,49.2,50.6,51.8z"/>
	<path class="st0" d="M55.8,11.5c-1.2-4.2-8.2-6.9-11.7-4.8C48.6,6.5,52.7,7.4,55.8,11.5z"/>
	<path class="st0" d="M40.9,6.3c0.9,0.6,2.2,0.5,2.8-0.2c0.6-0.7,0.5-1.6-0.3-2.6c-0.2,1.7-1.4,1.8-2.7,2.1c0.5,0.2,1,0.4,1.4,0.6
		c0,0,0,0.1,0,0.1C41.7,6.3,41.3,6.3,40.9,6.3z"/>
	<path class="st0" d="M34.6,4.6c-0.9-0.2-1.8-0.3-2.8-0.5c0.3-0.1,0.5-0.2,0.7-0.3c-1.5-0.2-2.8,0.8-3.4,2.8
		c1.6-1.5,3.5-1.9,5.6-1.8C34.6,4.7,34.6,4.6,34.6,4.6z"/>
	<path class="st0" d="M32.9,2.4c0.8,0.2,1.6,0.4,2.3,0.7c0,0,0,0.1,0,0.1c-0.3,0-0.6-0.1-1.1-0.2c0.6,0.5,1.1,1,1.7,1.4
		c0.5,0.4,1.2,0.2,1.5-0.3c0.3-0.5,0-0.8-0.4-1c-0.9-0.6-2-0.8-3-0.9C33.6,2.3,33.3,2.3,32.9,2.4C32.9,2.4,32.9,2.4,32.9,2.4z"/>
	<path class="st0" d="M34.5,3.9c-1.5-1.7-4.4-2-6,0.1c0.9-0.5,1.7-1.1,2.8-0.9c-0.3,0.1-0.5,0.2-0.8,0.3c0.8,0.1,1.4,0.1,2,0.2
		C33.2,3.6,33.8,3.7,34.5,3.9z"/>
	<path class="st0" d="M34.5,0c0,0.7,0,1.4,0,2c0.6,0.1,1.2,0.2,1.8,0.3C36.2,1.6,35.3,0.4,34.5,0z"/>
</g>
</svg>
