<?xml version="1.0" encoding="utf-8"?>
<!-- Generator: Adobe Illustrator 25.0.0, SVG Export Plug-In . SVG Version: 6.00 Build 0)  -->
<svg version="1.1" id="Capa_1" xmlns="http://www.w3.org/2000/svg" xmlns:xlink="http://www.w3.org/1999/xlink" x="0px" y="0px"
	 viewBox="0 0 512 512" style="enable-background:new 0 0 512 512;" xml:space="preserve">
<style type="text/css">
	.st0{fill:#A18262;}
</style>
<g id="Celebration">
	<path class="st0" d="M290,293.3c2.1,0,4.2-0.8,5.7-2.3c24.4-24.5,57.1-38.9,91.7-40.6l1.2-0.1c4.4-0.2,7.9-3.9,7.7-8.3
		c-0.2-4.4-3.9-7.9-8.3-7.7c0,0-0.1,0-0.1,0l-1.2,0.1c-38.5,1.8-75,17.9-102.2,45.2c-3.1,3.1-3.1,8.2,0,11.3
		C285.8,292.5,287.8,293.3,290,293.3L290,293.3z"/>
	<path class="st0" d="M226.9,230.3c2.1,0,4.2-0.8,5.7-2.3c27.3-27.3,43.4-63.7,45.2-102.2l0.1-1.2c0.2-4.4-3.2-8.2-7.6-8.4
		s-8.2,3.2-8.4,7.6l-0.1,1.2c-1.6,34.6-16.1,67.3-40.6,91.7c-3.1,3.1-3.1,8.2,0,11.3C222.8,229.4,224.8,230.3,226.9,230.3
		L226.9,230.3z"/>
	<path class="st0" d="M180.5,218.6c-3.1-3.1-8.2-3.1-11.3,0c-0.7,0.7-1.3,1.5-1.7,2.4l-90.9,204c-1.8,4,0,8.8,4.1,10.6
		c2.1,0.9,4.4,0.9,6.5,0l204-90.9c4-1.8,5.9-6.5,4.1-10.6c-0.4-0.9-1-1.7-1.7-2.4L180.5,218.6z M99.7,412.5l30.4-68.3l18.3,45.8
		c0.1,0.2,0.2,0.5,0.3,0.7L99.7,412.5z M173.4,379.7l-28-69.8l19.6-44l40,99.8L173.4,379.7z M229.7,354.6l-42.8-107l87.2,87.2
		L229.7,354.6z"/>
	<path class="st0" d="M164.1,131.8c4.5,0,8.2-3.7,8.2-8.2s-3.7-8.2-8.2-8.2s-8.2,3.7-8.2,8.2c0,0,0,0,0,0
		C155.9,128.1,159.5,131.8,164.1,131.8z"/>
	<path class="st0" d="M164.1,108.4c4.4,0,8-3.6,8-8V83.7c0-4.4-3.6-8-8-8s-8,3.6-8,8v16.7C156.1,104.8,159.6,108.4,164.1,108.4
		C164.1,108.4,164.1,108.4,164.1,108.4z"/>
	<path class="st0" d="M164.1,138.8c-4.4,0-8,3.6-8,8v16.7c0,4.4,3.6,8,8,8s8-3.6,8-8v-16.7C172.1,142.4,168.5,138.8,164.1,138.8z"/>
	<path class="st0" d="M124.1,131.6h16.7c4.4,0,8-3.6,8-8c0-4.4-3.6-8-8-8h-16.7c-4.4,0-8,3.6-8,8C116.1,128,119.7,131.6,124.1,131.6
		z"/>
	<path class="st0" d="M187.3,131.6H204c4.4,0,8-3.6,8-8c0-4.4-3.6-8-8-8h-16.7c-4.4,0-8,3.6-8,8C179.3,128,182.9,131.6,187.3,131.6z
		"/>
	<path class="st0" d="M374.8,148.4c4.5,0,8.2-3.7,8.2-8.2s-3.7-8.2-8.2-8.2c-4.5,0-8.2,3.7-8.2,8.2c0,0,0,0,0,0
		C366.6,144.7,370.2,148.4,374.8,148.4z"/>
	<path class="st0" d="M374.8,125c4.4,0,8-3.6,8-8v-16.7c0-4.4-3.6-8-8-8s-8,3.6-8,8V117C366.8,121.4,370.3,125,374.8,125z"/>
	<path class="st0" d="M374.8,155.4c-4.4,0-8,3.6-8,8v16.7c0,4.4,3.6,8,8,8s8-3.6,8-8v-16.7C382.8,159,379.2,155.4,374.8,155.4z"/>
	<path class="st0" d="M334.8,148.2h16.7c4.4,0,8-3.6,8-8s-3.6-8-8-8h-16.7c-4.4,0-8,3.6-8,8S330.4,148.2,334.8,148.2z"/>
	<path class="st0" d="M422.7,140.2c0-4.4-3.6-8-8-8H398c-4.4,0-8,3.6-8,8s3.6,8,8,8h16.7C419.1,148.2,422.7,144.6,422.7,140.2z"/>
	<path class="st0" d="M388.1,359.4c-4.5,0-8.2,3.7-8.2,8.2s3.7,8.2,8.2,8.2c4.5,0,8.2-3.7,8.2-8.2
		C396.3,363,392.7,359.4,388.1,359.4z"/>
	<path class="st0" d="M388.1,319.6c-4.4,0-8,3.6-8,8v16.7c0,4.4,3.6,8,8,8s8-3.6,8-8v-16.7C396.1,323.2,392.6,319.6,388.1,319.6z"/>
	<path class="st0" d="M388.1,382.7c-4.4,0-8,3.6-8,8v16.7c0,4.4,3.6,8,8,8s8-3.6,8-8v-16.7C396.1,386.3,392.6,382.7,388.1,382.7z"/>
	<path class="st0" d="M364.9,359.5h-16.7c-4.4,0-8,3.6-8,8s3.6,8,8,8h16.7c4.4,0,8-3.6,8-8S369.4,359.5,364.9,359.5z"/>
	<path class="st0" d="M428.1,359.5h-16.7c-4.4,0-8,3.6-8,8s3.6,8,8,8h16.7c4.4,0,8-3.6,8-8S432.5,359.5,428.1,359.5z"/>
</g>
</svg>
