<?xml version="1.0" encoding="utf-8"?>
<!-- Generator: Adobe Illustrator 25.0.0, SVG Export Plug-In . SVG Version: 6.00 Build 0)  -->
<svg version="1.1" id="Capa_1" xmlns="http://www.w3.org/2000/svg" xmlns:xlink="http://www.w3.org/1999/xlink" x="0px" y="0px"
	 viewBox="0 0 216.2 300" style="enable-background:new 0 0 216.2 300;" xml:space="preserve">
<style type="text/css">
	.st0{fill:#A18262;}
</style>
<path class="st0" d="M84.7,300c-1.9-1.5-3.6-3.1-2.6-5.8s3.3-3,5.8-3c25.2,0,50.4,0,75.5,0h3.9V288c0-12,0-24,0-36
	c-0.1-1.1,0-2.1,0.2-3.2c0.4-2.1,2.4-3.6,4.5-3.3c2.1,0.1,3.7,1.7,3.9,3.7c0.1,1.1,0.2,2.1,0.1,3.2v38.5c0.7,0.1,1.3,0.2,2,0.3
	c6.8,0,13.7,0.1,20.5-0.1c7-0.2,9.7-3.2,8.5-10.1c-2.2-12.6-4.8-25.1-7.3-37.6c-1.7-8.4-3.4-16.8-5-25.2c-1.7-8.8-6.5-15-15.2-17.5
	c-8.5-2.4-17.2-4.4-25.8-6.4c-0.9-0.2-2.3,0.7-3,1.5c-8.3,9.6-16.5,19.3-24.7,28.9c-3.8,4.5-8.3,8.1-14.3,9.1
	c-8.1,1.4-14.9-1.4-20.2-7.5c-8.7-9.9-17.1-20-25.6-30.1c-1.4-1.7-2.6-2.3-4.9-1.7c-7.3,2-14.7,3.7-22.1,5.5
	c-9.9,2.4-15.8,8.4-17.7,18.6c-3.8,20.1-8,40.2-11.9,60.2c-0.2,1.1-0.3,2.3-0.4,3.5c-0.4,5.6,1.8,8.5,7.4,8.7
	c7.9,0.3,15.7,0.1,24,0.1v-3.2c0-12,0-24,0-36c0-1.2-0.1-2.9,0.6-3.6c1.1-1.2,2.9-2.5,4.4-2.4c1.3,0.1,2.7,1.8,3.6,3.1
	c0.5,0.7,0.2,2.1,0.2,3.1c0,11.9,0,23.8,0,35.7v3.5c5.5,0,10.8-0.2,16,0.1c1.7,0.3,3.3,1.2,4.3,2.7c0.6,0.9,0,2.9-0.4,4.3
	c-0.2,0.7-1.2,1.2-1.8,1.8H15c-3.3-1.4-7-2.3-9.7-4.4c-5.3-4.1-6-10.2-4.9-16.3c4.2-22,8.5-44,13.2-65.9c2.6-12,10.9-18.8,22.5-21.7
	c14.1-3.6,28.2-7,42.3-10.5c0.9-0.2,1.8-0.6,2.7-0.8v-0.9c-1-0.2-2-0.4-3-0.5c-9.9,0-19.7,0-29.6,0s-14.9-5-14.9-14.9
	c0-31.8-0.2-63.7,0.1-95.5C34.1,39.6,47.5,18.6,73.4,6c14-6.8,28.8-7.5,43.7-3.8c6.6,1.6,12.9,4.3,19.4,6.4c1.7,0.7,3.5,1,5.3,0.8
	c17.6-3.5,31.8,8.7,37.9,22.5c2.1,4.6,3.2,9.7,3.2,14.8c-0.1,3.5-1.6,5.5-4.3,5.5s-4.3-1.9-4.4-5.4c-0.6-13-8.1-24.1-19.5-27.9
	c-3.1-1-6.3-1.2-9.4-0.8c-4.8,0.6-9.7-0.1-14.1-2.2c-18.9-8.3-38.1-10.6-57-0.5C54.6,25.9,43.3,42.5,42.8,64.7
	c-0.8,33.5-0.2,67-0.3,100.4c0,3.3,1.4,4.9,4.4,5c11,0.1,22.1,0,33.1,0c0.3,0,0.6-0.1,0.8-0.3c0.7-2.2,0-3.5-2-4.8
	c-16.7-10.2-26.1-25.1-28.4-44.4c-0.6-5.9-0.6-11.9-0.2-17.8c0.3-5.8,5.5-9.8,11.6-10.2c7.4-0.4,14.9-0.3,22.1-1.7
	c18.7-3.4,33.5-13.7,45.7-28c1-1.2,1.9-2.5,2.9-3.7c3.6-4.1,9.1-3.8,12.2,0.8c0.8,1.2,1.5,2.5,2.4,3.7c2,2.8,5,4.7,8.4,5.4
	c4.8,0.9,8.6,3.1,10.3,8c0.3,0.6,0.8,1.1,1.4,1.3c2.1,0.8,4.2,1.4,6.8,2.2c0-3.2,0-6.3,0-9.3c0-1.4-0.2-3,0.4-4
	c0.9-1.5,2.3-2.6,4-3.1c2-0.4,3.7,1,4.1,3.3c0.1,0.8,0.2,1.5,0.2,2.3c0,31.7,0,63.4,0,95.1c0,8.7-5.2,13.8-13.9,13.9
	c-10.2,0.1-20.5,0-30.7,0c-1,0-1.9,0.2-2.9,0.3l-0.1,0.9c0.9,0.4,1.8,0.7,2.7,1c13.9,3.5,27.8,6.9,41.7,10.4
	c13.3,3.3,21.3,11.5,23.9,25c4,20.5,8.1,40.9,12.2,61.4c1.7,8.5-0.6,15.5-6.6,19.2c-2.2,1.3-4.8,2-7.3,2.9L84.7,300z M137.7,67
	C138,66.8,137.8,66.9,137.7,67c-0.6,0.7-1.1,1.3-1.7,2c-11,13.5-25.8,23.5-42.5,28.7c-9.8,3-20.1,4.3-30.3,3.8
	c-3.6-0.1-4.5,0.6-4.4,4.2c0.1,5.4,0,11,0.7,16.3c3.7,26.9,28.5,45.6,55.4,41.9c0.9-0.1,1.7-0.3,2.5-0.4c22.7-4.3,39-22.7,40-45.8
	c0.5-12,0.2-24,0.2-36c0-2.2-1-3.3-3.2-3.8c-2.6-0.7-5.4-1.3-7.6-2.8C143.6,72.8,140.9,69.8,137.7,67L137.7,67z M126.4,170.5
	c-11.9,3.8-24.7,3.8-36.5-0.1v11.2c0,4.9-0.8,5.9-5.5,7.1c-3.4,0.9-6.9,1.7-10.8,2.7c2.6,3,4.7,5.6,7,8.1c0.7,0.5,1.5,0.8,2.4,0.7
	c16.8,0,33.6,0,50.4,0c0.7,0,1.8,0,2.2-0.5c2.4-2.6,4.7-5.4,7.3-8.4l-11-2.8c-4.3-1.1-5.3-2.2-5.3-6.7
	C126.4,178.4,126.4,174.7,126.4,170.5z M174,111.8c-1.5,0.7-3.1,1.3-4.7,1.7c-2.3,0.4-2.9,1.5-3,3.7c-1.2,21-10.7,37-28.6,48
	c-1.8,1.1-3.1,2.2-2.1,4.7c0.9,0,1.9,0.1,2.8,0.1c9.8,0,19.5,0,29.2,0c5.3,0,6.4-1,6.4-6.3c0-16.3,0-32.6,0-48.8L174,111.8z
	 M88.5,209.3c4.2,4.6,7.6,9.1,11.7,12.9c4.2,4.2,11.1,4.4,15.4,0.3c4.3-3.8,7.9-8.4,12.2-13.2H88.5z M166.6,104.9
	c5.5-1.4,7.8-4.6,7.4-10.1c-0.2-3.4-3.4-6.4-7.4-7V104.9z"/>
</svg>
