<?xml version="1.0" encoding="utf-8"?>
<!-- Generator: Adobe Illustrator 25.0.0, SVG Export Plug-In . SVG Version: 6.00 Build 0)  -->
<svg version="1.1" id="Capa_1" xmlns="http://www.w3.org/2000/svg" xmlns:xlink="http://www.w3.org/1999/xlink" x="0px" y="0px"
	 viewBox="0 0 202.7 300" style="enable-background:new 0 0 202.7 300;" xml:space="preserve">
<style type="text/css">
	.st0{fill:#A18262;}
</style>
<path class="st0" d="M135.3,0c2.6,0.6,5.1,1,7.7,1.7c24,5.9,41,27.2,41.4,51.9c0.2,19.8,0.1,39.7,0.1,59.5c0,3.7-2,5.9-5,5.9
	s-4.9-2.1-4.9-5.9c0-19.4,0.1-38.9,0-58.3c0-20.4-13.8-38.2-33.5-43.2c-3.8-1-7.7-1.4-11.6-1.5c-14-0.2-27.9-0.2-41.9,0
	c-19.4,0.3-33.4,9.3-41.7,27c-1.3,2.7-2.9,4-5.9,4.4c-7.1,0.7-11.2,5.4-11.2,12.6c0,19.7,0,39.5,0,59.2c-0.2,4.2,2,8.1,5.7,10v-4.7
	c0-11.2,0-22.5,0-33.7c0-4.3,2-6.1,6.2-5.8c11,0.7,18.8-5.6,20.8-16.7c0.2-1.3,0.4-2.7,0.5-4.1c0.5-4.5,4.3-6.2,8.3-3.8
	c6,3.7,12,7.7,18.3,11c16,8.5,33.3,14.1,51.2,16.6c2.7,0.4,4.7,1.5,5.1,4.4c0.5,2.1-0.6,4.2-2.6,5c-1.4,0.5-2.8,0.6-4.3,0.4
	c-21.5-3.1-42.2-10.4-60.9-21.2c-2-1.2-4-2.4-6.3-3.8c-4,13-12.4,20.8-26.3,22.2v3c0,12.9,0,25.8,0,38.7c0.1,34,27.5,59.6,61.4,57.4
	c26-1.7,49-23.2,51.6-49c1-9.4,0.6-18.9,0.7-28.4c0.1-6.5,0-13.1,0-19.6c0-3.7,1.9-6,4.9-6.1s5.1,2.3,5.1,6.2
	c0,13.6,0.1,27.2,0,40.7c-0.3,36.9-30.5,66.6-67.5,66.3c-1.8,0-3.7-0.1-5.5-0.3c-4.1-0.4-8.2-1.4-12.3-2.1c-1.1,3.5-2.3,7-3.3,10.5
	c-0.2,0.5-0.1,1.1,0.2,1.5c7.1,7.9,14.2,15.8,21.4,23.9c2.9-3.3,5.6-6.4,8.3-9.4c2.2-2.5,4.7-3,7-1.5s2.6,3.5,1.6,6.7
	c-0.2,0.6-0.3,1.4,0,1.8c3.8,4.4,7.6,8.8,11.7,13.6c1.7-7.7,3.4-14.8,4.8-21.9c0.2-0.8-0.7-2-1.4-2.7c-2.7-2.9-5.7-5.6-8.2-8.7
	c-1.8-2-1.6-5.1,0.4-6.8c0.2-0.1,0.3-0.3,0.5-0.4c2.4-1.7,5.4-1,7.3,1.8c4.4,6.5,10.5,9.6,18.3,9.7c27.9,0.3,50.6,22.8,51,50.8
	c0.2,9.8,0.1,19.5,0,29.3c0,3.7-2,6-4.9,6.1s-5-2.2-5-6.2c0-9,0-18,0-27c0-24.6-17.6-42.5-42.2-43c-1.9,0-3.9-0.3-6-0.5
	c-1.9,8.4-3.7,16.8-5.6,25.1c-0.5,2.1-0.8,4.2-1.4,6.3c-1.2,4.2-5.7,5.4-8.7,2.2c-3.2-3.4-6.2-7-9.8-11.2c1.1,9,2.1,17.2,3.2,25.3
	c0.9,7.3,1.8,14.5,2.7,21.8c0.5,4.3-1,6.7-4.2,7.1s-5.2-1.8-5.8-6c-2.2-17.7-4.4-35.4-6.6-53.2c0-0.2-0.1-0.3-0.2-0.5
	c-2.2,1.3-4.5,3.7-6.7,3.7s-4.5-2.3-6.9-3.7c-0.8,6.3-1.7,12.9-2.5,19.6c-1.4,11.5-2.8,23-4.3,34.6c-0.5,3.7-2.7,5.7-5.6,5.4
	c-3.1-0.3-4.8-2.7-4.3-6.7c1.9-15.5,3.8-31,5.8-47.4c-2.2,2.5-3.8,4.4-5.5,6.2c-1.4,1.5-2.7,3.1-4,4.6c-1.5,1.7-3.5,2.7-5.4,1.6
	c-1.6-0.9-2.9-2.4-3.5-4.1c-2.4-9.8-4.4-19.6-6.6-29.4c-0.1-0.5-0.3-0.9-0.6-2.1c-6.9,1.2-14,1.6-20.6,3.8
	C20.9,232,10.2,247.7,10,265.3c-0.1,9.5,0,18.9,0,28.4c0,4-1.9,6.2-5,6.2s-5-2.3-5-5.9c0.1-11.6-0.3-23.3,0.6-34.8
	c1.8-22.4,21.2-42,43.4-44.7c2.8-0.3,5.6-0.5,8.5-0.6c10.8-0.5,19.5-9.1,20.1-19.9c0.2-1.3-0.5-2.7-1.8-3.2
	c-22.2-12.2-34.3-30.9-36.3-56.1c0-0.2-0.1-0.5-0.2-0.7c-1.7-0.6-3.3-1.4-4.9-2.2c-6.7-3.8-10.5-9.7-10.6-17.4
	c-0.2-20.5-0.2-41,0-61.5c0.1-10,6.6-18,16.2-20.9c1.2-0.4,2.3-1.1,3-2.2C47.3,12.9,61.3,3,80.3,0.4c0.3-0.1,0.7-0.3,1-0.4H135.3z
	 M73.1,215.5c-1.5,1-2.9,2.1-4.2,3.2c-0.6,0.6-0.9,1.3-0.9,2.1c1.5,7.2,3.1,14.4,4.8,22.1l12.3-14.1L73.1,215.5z"/>
</svg>
