<?xml version="1.0" encoding="utf-8"?>
<!-- Generator: Adobe Illustrator 25.0.0, SVG Export Plug-In . SVG Version: 6.00 Build 0)  -->
<svg version="1.1" id="Capa_1" xmlns="http://www.w3.org/2000/svg" xmlns:xlink="http://www.w3.org/1999/xlink" x="0px" y="0px"
	 viewBox="0 0 512 512" style="enable-background:new 0 0 512 512;" xml:space="preserve">
<style type="text/css">
	.st0{fill:#A18262;}
</style>
<g>
	<path class="st0" d="M61,160.8l-25.6,25.6C32.6,189.2,31,193,31,197v300c0,8.3,6.7,15,15,15h420c8.3,0,15-6.7,15-15V197
		c0-4-1.6-7.8-4.4-10.6L451,160.8V107c0-8.3-6.7-15-15-15s-15,6.7-15,15v53.8l-25.6,25.6c-2.8,2.8-4.4,6.6-4.4,10.6v23.8l-120-120
		V60h15c8.3,0,15-6.7,15-15s-6.7-15-15-15h-15V15c0-8.3-6.7-15-15-15s-15,6.7-15,15v15h-15c-8.3,0-15,6.7-15,15s6.7,15,15,15h15
		v40.8l-120,120V197c0-4-1.6-7.8-4.4-10.6L91,160.8V107c0-8.3-6.7-15-15-15s-15,6.7-15,15V160.8z M76,188.2l15,15V242H61v-38.8
		L76,188.2z M256,128.2l62.9,62.9C308,199.3,301,212.4,301,227c0,8.3-6.7,15-15,15s-15-6.7-15-15c0-24.8-20.2-45-45-45h-23.8
		L256,128.2z M391,482h-30V233.2l30,30V482z M151,482h-30V263.2l30-30V482z M61,272h30v210H61V272z M181,212h45c8.3,0,15,6.7,15,15
		c0,24.8,20.2,45,45,45s45-20.2,45-45v255h-30v-75c0-8.3-6.7-15-15-15h-60c-8.3,0-15,6.7-15,15v75h-30V212z M271,482h-30v-60h30V482
		z M421,482V272h30v210H421z M436,188.2l15,15V242h-30v-38.8L436,188.2z"/>
	<circle class="st0" cx="256" cy="317" r="15"/>
</g>
</svg>
