<?xml version="1.0" encoding="utf-8"?>
<!-- Generator: Adobe Illustrator 25.0.0, SVG Export Plug-In . SVG Version: 6.00 Build 0)  -->
<svg version="1.1" id="Capa_1" xmlns="http://www.w3.org/2000/svg" xmlns:xlink="http://www.w3.org/1999/xlink" x="0px" y="0px"
	 viewBox="0 0 100 68.3" style="enable-background:new 0 0 100 68.3;" xml:space="preserve">
<style type="text/css">
	.st0{fill:#FFFFFF;}
</style>
<g>
	<g>
		<path class="st0" d="M26.9,53.9c-1-0.3-1.9-0.6-2.9-0.8c-2.5-0.4-5-0.1-7.5,0.3c-1.5,0.2-2.9,0.5-4.4,0.7c-0.1,0-0.3,0.1-0.4,0.2
			c1.8-0.2,3.7-0.3,5.5-0.5c2.5-0.2,5.1-0.3,7.5,0.6c0.5,0.2,1,0.4,1.5,0.7c-3.9,0-7.5,1.4-11.3,1.8c-2.8,0.4-5.5,0.3-8.2-0.7
			c-2.2-0.9-3.9-2.3-4.8-4.6c-0.1-0.3-0.2-0.7-0.3-1.1c0.6,0.2,1,0.4,1.5,0.5c2.4,0.7,4.8,0.5,7.2,0.2c3-0.4,5.9-1,8.9-0.7
			c2.7,0.2,5.3,0.9,7.3,3C26.7,53.8,26.8,53.9,26.9,53.9z"/>
		<path class="st0" d="M88.3,54.3c-2.2-0.4-4.4-0.7-6.7-1.1c-2-0.3-4.1-0.4-6.1,0.1c-0.8,0.2-1.6,0.5-2.5,0.8c0.8-1,1.7-1.7,2.8-2.2
			c2.7-1.3,5.6-1.5,8.5-1.2c1.8,0.2,3.7,0.5,5.5,0.7c2.8,0.4,5.6,0.4,8.4-0.8c-0.1,1.2-0.6,2.2-1.2,3c-1.8,2.2-4.2,3.2-7,3.5
			c-2.7,0.4-5.4-0.1-8.1-0.6c-1.3-0.3-2.7-0.6-4-0.8c-1.3-0.2-2.7-0.3-4.1-0.5c0.9-0.6,1.9-0.9,2.9-1.1c2.4-0.5,4.8-0.3,7.2-0.1
			c1.4,0.1,2.8,0.2,4.2,0.3C88.3,54.4,88.3,54.3,88.3,54.3z"/>
		<path class="st0" d="M10.8,37.6c1.3,0.5,2.6,1,3.9,1.5c1.7,0.7,3.2,1.5,4.6,2.8c0.8,0.8,1.4,1.6,1.8,2.8c-2.4-2-5.3-2.5-8-3.4
			c-2-0.6-4-1.3-5.7-2.6c-2-1.5-3.5-3.4-3.7-5.9c-0.1-0.9,0-1.7,0.6-2.6c1.6,2.5,4.2,3.4,6.8,4.3c2.1,0.7,4.3,1.5,6.3,2.4
			c1.7,0.8,3.1,2.1,4.1,3.7c0.6,1,1,2.1,1,3.4c-1-1.9-2.5-3.2-4.4-4.1c-0.9-0.5-1.9-0.8-2.9-1.2c-1.4-0.5-2.7-0.8-4.1-1.3
			C10.8,37.5,10.8,37.5,10.8,37.6z"/>
		<path class="st0" d="M79.1,44.6c0.5-1.5,1.5-2.6,2.6-3.4c1.5-1.2,3.1-1.9,4.9-2.5c1-0.4,2.1-0.8,3.1-1.2c0-0.1,0-0.1-0.1-0.2
			c-2.1,0.7-4.3,1.3-6.4,2.2c-2.3,0.9-4.2,2.3-5.2,4.7c-0.2-0.8,0.1-1.9,0.6-3c1.3-2.5,3.4-4,5.9-5c1.8-0.7,3.8-1.3,5.6-2
			c1.1-0.4,2.2-0.8,3.2-1.4c1-0.6,1.9-1.5,2.8-2.3c0.4,0.4,0.6,1.4,0.5,2.4c-0.4,2.8-2,4.7-4.2,6.2c-2,1.3-4.2,2-6.4,2.6
			C83.5,42.4,81.2,43,79.1,44.6z"/>
		<path class="st0" d="M51.3,66.5c1.5-0.8,3.2-1,4.9-0.9c1.7,0.1,3.4,0.2,5.1,0.4c-2.3-1-7.9-1.2-10.8-0.3c0.3-0.3,0.6-0.6,1-0.8
			c1.3-0.9,2.7-1.4,4.2-1.4c2.1,0,4.2,0.2,6.3,0.4c2.3,0.3,4.6,0.4,6.8-0.5c0.1,0,0.1,0.1,0.2,0.1c-0.2,0.5-0.4,1.1-0.7,1.6
			c-1.3,1.9-3.2,2.8-5.4,2.9c-1.8,0.1-3.6-0.1-5.3-0.4C55.5,67.3,53.4,66.9,51.3,66.5z"/>
		<path class="st0" d="M49,65.6c-3.4-1.4-6.8-0.3-10.2,0.2c3.3-0.1,6.6-0.9,9.9,0.8c-1.1,0.1-2.2,0.2-3.2,0.3
			c-2.2,0.3-4.4,0.8-6.6,1.1c-2,0.2-4-0.1-5.8-1.2c-1-0.7-1.9-1.5-2.3-2.7c-0.1-0.2-0.1-0.3-0.1-0.5c0-0.1,0-0.1,0.1-0.3
			c3.2,1.4,6.4,0.5,9.6,0.1c1.9-0.2,3.9-0.3,5.8,0.4C47.3,64.2,48.3,64.7,49,65.6z"/>
		<path class="st0" d="M79.5,32.2c1.2-2.2,2-4.4,2.5-6.7c0.1-0.7,0.2-1.4,0.3-2.1c-0.7,2.9-1.8,5.6-3.6,8c0.3-5.3,1.3-10.3,3.5-15.2
			C86.1,19.7,85.5,28.9,79.5,32.2z"/>
		<path class="st0" d="M18,16.3c2.1,4.8,3.2,9.8,3.5,15.1c-1.8-2.4-2.9-5.1-3.6-8c-0.2,1.4,0.7,4.4,2.7,8.9
			c-3.1-1.9-4.6-4.6-5.1-7.9C15,21.3,16.1,17.7,18,16.3z"/>
		<path class="st0" d="M85.9,47.1c2.4-0.7,4.8-1.4,7.2-2.2c0,0,0-0.1,0-0.1c-2.5,0.5-5,0.9-7.6,1.4c2.7-3.2,9.5-4.9,13.6-2.8
			C97.2,46.5,90.7,48.9,85.9,47.1z"/>
		<path class="st0" d="M14.6,46.1c-2.7-0.5-5.1-0.9-7.6-1.3c0,0,0,0.1,0,0.1c2.4,0.7,4.9,1.4,7.4,2.2c-3,1.5-10.2,0.5-13.3-3.6
			C4.2,41.6,11.1,42.5,14.6,46.1z"/>
		<path class="st0" d="M47.4,11.1c-1.1-2.1-2.4-4-4.2-5.6c1.5,1.8,2.7,3.7,3.3,6c-3.3-3-6.4-6.2-9.2-9.8
			C41.8,0.5,47.9,5.4,47.4,11.1z"/>
		<path class="st0" d="M47.5,60.7c-1-2.1-2.3-3.9-4.1-5.4c1.4,1.8,2.6,3.7,3.2,5.9c-3.3-3-6.4-6.2-9.2-9.8
			C41.8,50.1,48.1,55,47.5,60.7z"/>
		<path class="st0" d="M53.1,61.1c0.7-2.4,1.9-4.4,3.5-6.2c-1.9,1.6-3.4,3.6-4.4,6c-0.5-2,0.7-5.2,2.8-7.2c2.1-2,5.2-3,7.2-2.3
			C59.4,54.9,56.4,58.1,53.1,61.1z"/>
		<path class="st0" d="M52,11.2c-0.2-2.9,0.9-5.3,3-7.2c2-1.8,4.2-2.7,7.1-2.3c-2.8,3.6-6,6.8-9.1,9.9c-0.1,0-0.1-0.1-0.2-0.1
			c0.5-1.1,0.9-2.2,1.5-3.2c0.6-1,1.3-1.9,2.1-3C54.4,7,53.1,9,52,11.2z"/>
		<path class="st0" d="M10,27.3c1.2,1.9,2.7,3.4,4.7,4.5c-1.5,0.5-4.3-0.8-5.9-2.8c-1.8-2.2-2.3-5.4-1.1-7.6c2.7,3,5.1,6.2,7.4,9.5
			C13.1,30.2,11.4,28.9,10,27.3z"/>
		<path class="st0" d="M92.3,21.4c1.1,2.5,0.7,4.8-0.6,6.8c-1.4,2.3-3.5,3.6-6.3,3.7c2-1.3,3.7-2.8,4.8-4.9
			c-1.4,1.8-3.1,3.2-5.3,4.1C87.1,27.7,89.6,24.5,92.3,21.4z"/>
		<path class="st0" d="M39.9,60.8c-7.7-2.8-16.3-11.3-16.3-23.9c-0.1-13,8.8-21.9,17.3-24.6c-10.2,4.6-16.4,12.4-16.7,23.9
			C23.9,47.7,29.7,55.7,39.9,60.8z"/>
		<path class="st0" d="M59.8,60.9c10.1-5.1,15.9-13,15.8-24.4c-0.1-11.3-6-19.2-16.1-24c4.1,1.5,7.5,3.9,10.3,7.2
			c4.1,4.7,6.2,10.3,6.3,16.5C76.4,48.8,68.1,57.8,59.8,60.9z"/>
		<path class="st0" d="M72.5,12.1c3.7,1.7,5,7,3.7,9.6c-0.6-1.7-1.1-3.4-1.7-5.1c0,0-0.1,0-0.1,0c0.4,1.8,0.7,3.5,1.1,5.4
			C73.3,20.4,71.5,15.3,72.5,12.1z"/>
		<path class="st0" d="M27.5,12.1c1,2.6-0.3,7.4-2.9,9.7c0.3-1.7,0.7-3.5,1-5.2c0,0-0.1,0-0.1,0c-0.6,1.7-1.1,3.4-1.7,5.1
			C22.4,19,24,13.4,27.5,12.1z"/>
		<path class="st0" d="M40.8,58.9C32.9,56,25.5,47.7,25.7,36.4c0.2-12,8.5-19.6,15.3-21.9c-9.2,4.4-14.6,11.6-14.7,22
			C26.2,47,31.5,54.3,40.8,58.9z"/>
		<path class="st0" d="M59.7,14.9c7.1,2.7,14.4,10.9,14.4,22c-0.1,11.3-7.6,19.4-15,22c1.4-0.8,3.2-1.8,4.8-3
			c1.6-1.3,3.2-2.7,4.5-4.4c1.3-1.6,2.2-3.5,3.2-5.3c1-1.9,1.4-3.9,1.7-6c0.3-2.1,0.3-4.1,0.1-6.2c-0.2-2.1-0.6-4.2-1.5-6.1
			c-0.9-1.9-1.8-3.7-3-5.4c-1.2-1.7-2.7-3.2-4.3-4.5C62.9,16.8,61.1,15.8,59.7,14.9z"/>
		<path class="st0" d="M50.4,0.2c1.3,2.1,1.2,5.6-0.3,7.7c-0.1-1.4-0.1-2.6-0.2-3.9c0,0-0.1,0-0.1,0c-0.1,1.3-0.2,2.5-0.4,3.8
			C47.8,6.4,47.9,1.9,50.4,0.2z"/>
		<path class="st0" d="M49.9,53.8c-0.1,0.6-0.1,1.2-0.2,1.8c-0.1,0.6-0.1,1.2-0.1,1.8c-1.7-1.6-1.4-6.1,0.9-7.6
			c1.4,1.7,1.3,5.4-0.3,7.7c-0.1-1.4-0.1-2.6-0.2-3.8C50,53.8,49.9,53.8,49.9,53.8z"/>
		<path class="st0" d="M0.1,34.4c1.8,1.3,3,2.9,3.9,4.9C1.5,39.5-0.6,36.1,0.1,34.4z"/>
		<path class="st0" d="M99.9,34.4c0.6,2.5-2,5.2-4,5C96.9,37.4,98.1,35.7,99.9,34.4z"/>
		<path class="st0" d="M18.3,46.7c2-0.4,4.3,0.5,5.2,2C22,49.7,18.9,48.5,18.3,46.7z"/>
		<path class="st0" d="M81.7,46.7c-0.7,1.8-3.3,2.9-5.1,2.1C77,47.3,79.7,46.2,81.7,46.7z"/>
		<path class="st0" d="M21.4,36.3c-0.6-0.3-1.2-0.6-1.7-0.9c0,0-0.1,0.1-0.1,0.1c0.5,0.4,1,0.8,1.6,1.2c-1.3,0.4-4.2-1.4-4.3-3.5
			C18.4,33.1,20.8,34.6,21.4,36.3z"/>
		<path class="st0" d="M80.7,35.1c-0.7,0.4-1.4,0.8-2.1,1.2c0.6-1.6,3-3.2,4.5-3.2c-0.1,1.8-2.2,3.5-4.3,3.6c0.7-0.5,1.3-1,2-1.5
			C80.7,35.2,80.7,35.1,80.7,35.1z"/>
		<path class="st0" d="M77,27.7c-0.9-1.3-1.3-2.8-1.5-4.3C77,23.7,77.9,26.1,77,27.7z"/>
		<path class="st0" d="M24.5,23.3c-0.1,1.6-0.6,3-1.5,4.4C22.2,26.2,22.9,24,24.5,23.3z"/>
		<path class="st0" d="M23.5,12c-0.1,1.2-0.9,3.2-1.6,4C21.1,14.8,21.9,12.7,23.5,12z"/>
		<path class="st0" d="M78.1,16.2c-0.9-1.3-1.4-2.7-1.7-4.2C78,12.6,78.8,14.6,78.1,16.2z"/>
		<path class="st0" d="M50.8,63c0,0.6-0.4,1-1,1c-0.5,0-1-0.4-1-1c0-0.5,0.4-1,0.9-1C50.3,62,50.8,62.4,50.8,63z"/>
		<path class="st0" d="M48.9,10.6c0.1-0.7,0.3-1,0.9-1c0.5,0,0.8,0.3,0.8,0.8c0,0.5-0.3,0.9-0.8,0.8C49.4,11.1,49.1,10.7,48.9,10.6z
			"/>
		<path class="st0" d="M50.7,60c-0.3,0.2-0.6,0.5-0.9,0.5c-0.4,0.1-0.7-0.3-0.7-0.7c0-0.5,0.3-0.8,0.8-0.7c0.3,0.1,0.6,0.4,0.8,0.6
			C50.7,59.8,50.7,59.9,50.7,60z"/>
	</g>
	<g>
		<path class="st0" d="M44.1,43.5c0.9-0.3,0.3-0.9-0.7-2.5l-3.4-5.6l-3.8,5.7c-1.1,1.6-0.9,2.2,0.2,2.4v0.4h-3.4v-0.4
			c0.8-0.3,1.6-0.8,2.6-2.4l4.1-6.1l-4-6.6c-1-1.6-1.7-2.2-2.3-2.5v-0.4h4.9v0.4c-0.9,0.3-0.3,0.9,0.7,2.5l2.8,4.7l3.2-4.8
			c1.1-1.6,0.9-2.2-0.2-2.4v-0.4h3.4v0.4c-0.8,0.3-1.6,0.8-2.6,2.4l-3.5,5.2l4.5,7.5c1,1.6,1.7,2.2,2.3,2.5v0.4h-4.9V43.5z"/>
		<path class="st0" d="M48.5,25.8v-0.4h4.8v0.4c-0.9,0.3-0.5,1,0.2,2.7l4.8,12.3l4.8-12.3c0.7-1.8,0.5-2.5-0.4-2.7v-0.4h3.1v0.4
			c-0.8,0.3-1.5,1-2.2,2.7l-5.9,15.3h-1l-6.2-15.3C49.8,26.8,49.1,26.1,48.5,25.8z"/>
	</g>
</g>
</svg>
